<svg xmlns="http://www.w3.org/2000/svg" viewBox="0 0 188.42 188.42"><defs><style>.cls-1{fill:#0f6026;}.cls-2{fill:#6bcf29;}.cls-3{fill:#c9781f;}.cls-3,.cls-4{fill-rule:evenodd;}.cls-4{fill:#9ddd6b;}</style></defs><g id="Layer_2" data-name="Layer 2"><g id="Layer_1-2" data-name="Layer 1"><circle class="cls-1" cx="94.21" cy="94.21" r="94.21"/><circle class="cls-2" cx="94.21" cy="94.21" r="86.43" transform="translate(-28.66 42.69) rotate(-22.25)"/><circle class="cls-1" cx="94.21" cy="94.21" r="79.7"/><path class="cls-3" d="M93.71,110c5.52-3.56,8-9.27,10.73-15.34,2.79,3.49,4.84,7.25,8,10.19,2.87,2.69,4.53,1.83,6-1.15a27.63,27.63,0,0,0,2.72-10c3.22.54,5.17,3.14,7.9,4.16.35,13.81-5.56,24.25-16.94,31.85-5.47,3.65-10.8,7.52-16.18,11.3-2.4.23-2.9-1.67-3.1-3.24a110.25,110.25,0,0,1-.35-25.93A2.75,2.75,0,0,1,93.71,110Z"/><path class="cls-3" d="M93.71,110c0,8.3-.18,16.6.09,24.89.06,2-.34,4.69,2.11,6.1-1.4,2.36-2.74,1-4.13,0-5.18-3.76-10.29-7.65-15.6-11.22-11.38-7.63-17.36-18-17-31.87l7.6-4.72a44.9,44.9,0,0,0,3.42,11.3c1.17,2.66,2.68,2.83,4.76,1a26.82,26.82,0,0,0,8.19-11.51c3.2,5.87,5,11.83,10.36,15.15C93.6,109.35,93.65,109.65,93.71,110Z"/><path class="cls-4" d="M93.55,109.06c1.1-17.4,2.14-34.8.18-52.23-.4-3.64.34-7.4.42-11.11C94.2,43.4,96,44.45,97,44c-.23,7,3.67,8.92,10,10.67C118.5,57.82,125.5,66.4,127.6,78.1c1.5,8.36,3,16.38,12.3,21.46A24.19,24.19,0,0,1,129,97.79c-3.06,1-4.77-1.84-7.32-2.58.71,3.63-.75,6.72-2.63,9.58s-4.38,3.41-7.18,1a29.45,29.45,0,0,1-7-8.49c-3.07,5-4.51,11.14-11,13.09a.89.89,0,0,1-.5-.83Q93.42,109.06,93.55,109.06Z"/><path class="cls-4" d="M59.22,98.81c-3,.74-5.94,2-10.7,1.92C57,95.52,59.1,88.29,60.42,80.41c2.4-14.35,11.12-23.25,25.49-26.1,3.27-.65,4.73-1.78,4.42-5.1C89.79,43.44,93,43.57,97,45c-1.87,4.31-1.89,8.86-1.47,13.39,1.48,15.88.67,31.76,0,47.63a7,7,0,0,1-1,3.22c-2.61,2.41-4-.14-5.57-1.49-2.6-2.28-3.42-5.8-5.81-9a28.53,28.53,0,0,1-6.58,7.85c-3.69,3.08-5.81,2.6-7.94-1.67a14.43,14.43,0,0,1-1.05-2.63c-1-3.71-2.41-6.42-6.76-3.3C60.42,99.3,59.74,99.06,59.22,98.81Z"/></g></g></svg>