<svg xmlns="http://www.w3.org/2000/svg" width="35.245" height="42" viewBox="0 0 35.245 42">
  <path id="Path_499" data-name="Path 499" d="M31.047,30.041l.344.351.348-.351a4.353,4.353,0,0,1,6.218,0,4.5,4.5,0,0,1,0,6.3L31.391,43l-6.562-6.655a4.5,4.5,0,0,1,0-6.3A4.353,4.353,0,0,1,31.047,30.041ZM19.633,26.755v3.962A11.806,11.806,0,0,0,7.908,42.6H4A15.75,15.75,0,0,1,19.145,26.763ZM19.633,1A11.8,11.8,0,0,1,31.358,12.887,11.811,11.811,0,0,1,20.073,24.766l-.44.008A11.8,11.8,0,0,1,7.908,12.887,11.811,11.811,0,0,1,19.193,1.008Zm0,3.962a7.925,7.925,0,1,0,7.817,7.925A7.869,7.869,0,0,0,19.633,4.962Z" transform="translate(-4 -1)" fill="#b1bace"/>
</svg>
