<svg xmlns="http://www.w3.org/2000/svg" viewBox="0 0 188.42 188.42"><defs><style>.cls-1{fill:#0f6026;}.cls-2,.cls-5{fill:#6bcf29;}.cls-3{fill:#b56c43;}.cls-3,.cls-4,.cls-5{fill-rule:evenodd;}.cls-4{fill:#f4253e;}</style></defs><g id="Layer_2" data-name="Layer 2"><g id="Layer_1-2" data-name="Layer 1"><circle class="cls-1" cx="94.21" cy="94.21" r="94.21" transform="translate(-15.71 169.5) rotate(-79.41)"/><path class="cls-2" d="M180.64,94.21A86.43,86.43,0,1,1,94.21,7.78,86.42,86.42,0,0,1,180.64,94.21Z"/><circle class="cls-1" cx="94.21" cy="94.21" r="79.7" transform="translate(-22.63 158.24) rotate(-73.72)"/><g id="q3Gtlg"><path class="cls-3" d="M99.47,69.37c.27-5.37.52-10.45.79-15.77l5.49.34c-1.63,5.26-3.17,10.24-4.72,15.23"/></g><g id="q3Gtlg-2" data-name="q3Gtlg"><path class="cls-4" d="M99.22,69.17l1.09,1c3.17-.65,6.36-1.27,9.52-1.95,6.57-1.43,12.31.19,16.42,5.47a30.58,30.58,0,0,1,5.68,10.63c4.52,17.4-1.38,31.71-14,43.75a13.6,13.6,0,0,1-9.52,3.81c-7.12.11-14.25.53-21.34.21a19,19,0,0,1-9.16-2.91C65.52,121,58.35,102.33,61.58,87.86c2.76-12.33,14.83-24.32,30.75-19.58,1.79.53,3.68.76,5.33,1.09"/></g><path class="cls-5" d="M96.63,62.79C92.33,52.24,79.41,46.42,69.11,50.2,72.36,59.67,85.3,65.67,96.63,62.79Z"/></g></g></svg>