<svg xmlns="http://www.w3.org/2000/svg" viewBox="0 0 188.42 188.42"><defs><style>.cls-1{fill:#0f6026;}.cls-2{fill:#6bcf29;}.cls-3{fill:#edca35;fill-rule:evenodd;}</style></defs><g id="Layer_2" data-name="Layer 2"><g id="Layer_1-2" data-name="Layer 1"><circle class="cls-1" cx="94.21" cy="94.21" r="94.21" transform="translate(-7.9 179.79) rotate(-84.97)"/><circle class="cls-2" cx="94.21" cy="94.21" r="86.43" transform="translate(-31.75 137.64) rotate(-64.02)"/><circle class="cls-1" cx="94.21" cy="94.21" r="79.7" transform="translate(-16.56 20.17) rotate(-11.24)"/><g id="_1SWn4W.tif" data-name="1SWn4W.tif"><path class="cls-3" d="M110.11,34.46a20.63,20.63,0,0,1,.52,4.43A17.41,17.41,0,0,1,99.2,55a1,1,0,0,0-.53.53A126.08,126.08,0,0,0,92.36,81.4a131.34,131.34,0,0,0-1.11,13.5,35.52,35.52,0,0,1,1.22-3.6,18,18,0,0,1,2-3.41,16.49,16.49,0,0,1,5.94-5,23.64,23.64,0,0,1,3.69-1.37,13.94,13.94,0,0,1,4-.48,17.29,17.29,0,0,1-16.84,17A127.26,127.26,0,0,0,105.3,157.4l-.36.22-.42.21a124.89,124.89,0,0,1-11.83-34,130.82,130.82,0,0,1-2-36,17.3,17.3,0,0,1-13.28-7.3,16.66,16.66,0,0,1-3.11-9.73,16.94,16.94,0,0,1,10.81,3.91A17.19,17.19,0,0,1,91,84.63c.18-1.35.34-2.7.52-4s.42-2.73.63-4.12c-5.67-1.93-9.66-5.59-11.55-11.35a17,17,0,0,1-.29-9.45A16.8,16.8,0,0,1,92.9,72.39a1,1,0,0,0,.13-.27,127.68,127.68,0,0,1,4.77-17,1.67,1.67,0,0,0,.06-.83,16.92,16.92,0,0,1,11.89-19.8l.17-.08Z"/><path class="cls-3" d="M113.24,51.36c.11,9.72-8.67,17.2-16.87,16.91C96,59.6,103.81,51.06,113.24,51.36Z"/><path class="cls-3" d="M93.76,62.68C85.57,58,83.14,47,87.61,39.57,95.35,43.55,98.75,54.62,93.76,62.68Z"/><path class="cls-3" d="M72.45,84.24a16.76,16.76,0,0,1,16.83,16.94A17.06,17.06,0,0,1,72.45,84.24Z"/><path class="cls-3" d="M91.93,110.91A16.76,16.76,0,0,1,108.8,94,17.06,17.06,0,0,1,91.93,110.91Z"/><path class="cls-3" d="M89.88,115.13A17.1,17.1,0,0,1,73,98.23C81.68,97.9,90.05,105.39,89.88,115.13Z"/><path class="cls-3" d="M75.72,113.07A16.76,16.76,0,0,1,92.57,130,17.07,17.07,0,0,1,75.72,113.07Z"/><path class="cls-3" d="M114.19,117.94a17.16,17.16,0,0,1-16.91,17,16.68,16.68,0,0,1,4.2-11.23A16.85,16.85,0,0,1,114.19,117.94Z"/><path class="cls-3" d="M93.91,83.44a16.8,16.8,0,0,1,16.89-17,17,17,0,0,1-3.72,10.45A17.23,17.23,0,0,1,93.91,83.44Z"/><path class="cls-3" d="M94.37,123.1a16.79,16.79,0,0,1,16.91-17,17.27,17.27,0,0,1-16.91,17Z"/></g></g></g></svg>