<svg xmlns="http://www.w3.org/2000/svg" width="269.485" height="159.344" viewBox="0 0 269.485 159.344">
  <g id="Group_385" data-name="Group 385" transform="translate(-123.256 -494.935)">
    <g id="Group_294" data-name="Group 294" transform="translate(12.48 136.123)">
      <path id="Path_441" data-name="Path 441" d="M199.32,393.994c1.011,9.751,5.317,16.105,10.107,23,7.392,10.929,11.144,26.088,7.594,39.165-2.117,7.516-7.127,14.217-12.374,19.5-10.811,10.884-31.091,15.325-45.136,10.46-19.936-6.851-31.6-30.265-26.045-52.014a44.8,44.8,0,0,1,6.839-15.121c4.2-5.808,7.071-13.138,8.786-22.149l.551-2.455a39.76,39.76,0,0,1,9.321-16.037c6.359-6.4,14.563-8.96,21.665-6.608C189.1,374.294,195.676,379.994,199.32,393.994Z" fill="#025e2b"/>
      <path id="Path_442" data-name="Path 442" d="M172.041,518.156c-18.828,0-34.091-1.628-34.091-3.636s15.263-3.638,34.091-3.638,34.09,1.629,34.09,3.638-15.264,3.636-34.09,3.636Z" fill="#b1bace" opacity="0.72"/>
      <path id="Path_443" data-name="Path 443" d="M191.848,512.34l-12.315,1.179s14.282-35.634-2.262-61.008" fill="none" stroke="#025e2b" stroke-width="2"/>
      <path id="Path_444" data-name="Path 444" d="M151.392,512.34l12.315,1.179s-14.284-35.632,2.261-61.008" fill="none" stroke="#025e2b" stroke-width="2"/>
      <path id="Path_445" data-name="Path 445" d="M193.845,395.846c.9,9.506,3.645,17.768,8.258,24.463a43.964,43.964,0,0,1,5.6,36.622,45.1,45.1,0,0,1-11.21,19.2c-10.66,10.692-25.777,14.531-39.449,9.881-19.408-6.547-30.585-29.308-24.954-50.564a44.507,44.507,0,0,1,6.821-14.8c4.151-5.7,7.028-12.864,8.787-21.667l.561-2.4a39.611,39.611,0,0,1,9.253-15.708c6.271-6.289,14.307-8.841,21.222-6.6C186.978,376.72,192.71,385.049,193.845,395.846Z" fill="#c5d621" stroke="#007837" stroke-miterlimit="10" stroke-width="1"/>
      <path id="Path_446" data-name="Path 446" d="M203.645,442.279" fill="none" stroke="#262626" stroke-width="10"/>
      <path id="Path_447" data-name="Path 447" d="M169.091,470.213a20.094,20.094,0,1,0-20.1-20.1,20.1,20.1,0,0,0,20.1,20.1Z" fill="#ba5835"/>
      <path id="Path_448" data-name="Path 448" d="M157.924,466.824A20.09,20.09,0,0,0,185,437.849a21,21,0,0,1-27.074,28.975Z" fill="#995039"/>
      <g id="Group_290" data-name="Group 290">
        <line id="Line_25" data-name="Line 25" x1="11.925" y1="48.795" transform="translate(111.985 375.33)" fill="none" stroke="#171717" stroke-linecap="round" stroke-linejoin="round" stroke-width="2"/>
        <g id="Group_289" data-name="Group 289">
          <path id="Path_449" data-name="Path 449" d="M111.634,418.72a2.564,2.564,0,0,0,1.267,1.448l2.9,1.535a2.257,2.257,0,0,0-1.4,2.875,2.622,2.622,0,0,0,1.27,1.428l.438.232a2.22,2.22,0,0,0-1.272,1.093,2.187,2.187,0,0,0-.135,1.8,2.753,2.753,0,0,0,1.281,1.431l6.093,3.227a6.622,6.622,0,0,0,6.791-.345l.029-.02a9.208,9.208,0,0,0,3.568-6.17,4.273,4.273,0,0,0-1.326-4.351q-.246-.316-.55-.7a8.86,8.86,0,0,1-1.3-2.049.388.388,0,0,0-.02-.047,13.7,13.7,0,0,1-1.131-2.945,2.847,2.847,0,0,0-1.167-2.078,2.364,2.364,0,0,0-1.759-.276,2.122,2.122,0,0,0-1.469,1.157,3.292,3.292,0,0,0-.161,2.776c.381,1.039.287,1.406.229,1.515a1.847,1.847,0,0,1-.217.326l-8.519-4.512a2.684,2.684,0,0,0-1.852-.289l-.034.008a2.3,2.3,0,0,0-1.4,1.158A2.262,2.262,0,0,0,111.634,418.72Z" fill="#c5d621" stroke="#025e2b" stroke-miterlimit="10" stroke-width="0.75"/>
          <line id="Line_26" data-name="Line 26" x2="5.766" y2="2.809" transform="translate(115.799 421.703)" fill="#9abc1e" stroke="#025e2b" stroke-linecap="round" stroke-miterlimit="10" stroke-width="0.75"/>
          <line id="Line_27" data-name="Line 27" x2="4.557" y2="2.304" transform="translate(115.669 426.006)" fill="#9abc1e" stroke="#025e2b" stroke-linecap="round" stroke-miterlimit="10" stroke-width="0.75"/>
        </g>
      </g>
      <path id="Path_450" data-name="Path 450" d="M159.029,408.237c2.01.25,3.844,1.791,4.119-.06.316-2.137-1.6-3.663-3.6-3.98-1.555-.247-3.881,1.268-3.909,3.14-.029,2.088,1.385.649,3.394.9Z" fill="#262626"/>
      <path id="Path_451" data-name="Path 451" d="M184.425,409.616c-2.024.032-4.017,1.365-4.087-.505-.083-2.158,1.99-3.468,4.012-3.567,1.574-.076,3.721,1.681,3.546,3.546-.2,2.079-1.446.495-3.471.526Z" fill="#262626"/>
      <path id="Path_452" data-name="Path 452" d="M185.9,421.2a5,5,0,1,1,5.268-4.725A5.007,5.007,0,0,1,185.9,421.2Z" fill="#85a729"/>
      <path id="Path_453" data-name="Path 453" d="M155.982,419.734a5,5,0,1,1,5.266-4.725,5,5,0,0,1-5.266,4.725Z" fill="#85a729"/>
      <g id="Group_293" data-name="Group 293">
        <g id="Group_292" data-name="Group 292">
          <g id="Group_291" data-name="Group 291">
            <path id="Path_454" data-name="Path 454" d="M153.913,390.167A12.9,12.9,0,0,0,141.4,406.231a.278.278,0,0,0,.006.028,12.9,12.9,0,1,0,12.5-16.092Zm0,1.4a11.5,11.5,0,0,1,9.433,4.927l-20.75,8.652a11.492,11.492,0,0,1,11.317-13.579Zm0,23.016a11.526,11.526,0,0,1-10.981-8.065l15.413-6.427a7.1,7.1,0,0,0-.59,2.984c0,2.295.866,4.156,1.934,4.156s1.933-1.861,1.933-4.156a5.43,5.43,0,0,0-1.2-3.848l3.667-1.529a11.5,11.5,0,0,1-10.171,16.885Z" fill="#171717"/>
            <path id="Path_455" data-name="Path 455" d="M189.875,390.167a12.9,12.9,0,1,0,12.9,12.9A12.916,12.916,0,0,0,189.875,390.167Zm0,24.411a11.5,11.5,0,0,1-10.2-16.82l4.965,2.07a6.711,6.711,0,0,0-.726,3.242c0,2.295.866,4.156,1.934,4.156s1.934-1.861,1.934-4.156a8.089,8.089,0,0,0-.249-2.035l13.3,5.548A11.531,11.531,0,0,1,189.875,414.578ZM180.4,396.55a11.5,11.5,0,0,1,20.781,8.664" fill="#171717"/>
            <path id="Path_456" data-name="Path 456" d="M143.175,402.186a.7.7,0,0,0,.644.429.686.686,0,0,0,.268-.054l13.429-5.6a.7.7,0,0,0-.537-1.287l-13.428,5.6A.7.7,0,0,0,143.175,402.186Z" fill="#171717"/>
            <path id="Path_457" data-name="Path 457" d="M207.846,402.187h-2.654a15.342,15.342,0,0,0-30.643.185h-5.31a15.342,15.342,0,0,0-30.643-.185h-2.24a.7.7,0,0,0-.7.7v3.532a.7.7,0,0,0,.7.7h2.757a15.343,15.343,0,0,0,29.682-.307h6.2a15.344,15.344,0,0,0,29.71.208.7.7,0,0,0,.353.1h2.79a.7.7,0,0,0,.7-.7v-3.532A.7.7,0,0,0,207.846,402.187Zm-70.793,3.531v-2.136h1.529a15.168,15.168,0,0,0,.221,2.136Zm16.86,11.3a13.95,13.95,0,1,1,13.95-13.95A13.966,13.966,0,0,1,153.913,417.019Zm15.166-11.608a15.074,15.074,0,0,0,.16-1.644h5.31a15.644,15.644,0,0,0,.16,1.644Zm20.8,11.608a13.95,13.95,0,1,1,13.95-13.95A13.966,13.966,0,0,1,189.875,417.019Zm17.273-11.3h-2.092c-.025,0-.047.005-.071.007a15.4,15.4,0,0,0,.221-2.143h1.942v2.136Z" fill="#171717"/>
            <path id="Path_458" data-name="Path 458" d="M185.023,396.051a.7.7,0,0,0,.375.912l13.428,5.6a.7.7,0,0,0,.913-.375.7.7,0,0,0-.375-.913l-13.429-5.6A.7.7,0,0,0,185.023,396.051Z" fill="#171717"/>
          </g>
          <path id="Path_459" data-name="Path 459" d="M179.589,397.8l4.964,2.07a6.712,6.712,0,0,0-.725,3.242c0,2.3.866,4.156,1.933,4.156s1.934-1.861,1.934-4.156a8.145,8.145,0,0,0-.248-2.036l13.3,5.548a11.507,11.507,0,1,1-21.163-8.824" fill="#fff"/>
          <path id="Path_460" data-name="Path 460" d="M153.869,414.615a11.526,11.526,0,0,1-10.981-8.065l15.413-6.427a7.1,7.1,0,0,0-.59,2.984c0,2.3.866,4.156,1.934,4.156s1.933-1.861,1.933-4.156a5.43,5.43,0,0,0-1.205-3.848l3.667-1.529a11.5,11.5,0,0,1-10.171,16.885Z" fill="#fff"/>
          <path id="Path_461" data-name="Path 461" d="M185.023,396.051a.7.7,0,0,0,.375.912l13.428,5.6a.7.7,0,0,0,.913-.375.7.7,0,0,0-.375-.913l-13.429-5.6A.7.7,0,0,0,185.023,396.051Z"/>
          <path id="Path_462" data-name="Path 462" d="M153.916,391.547a11.5,11.5,0,0,1,9.433,4.928l-20.75,8.652a11.493,11.493,0,0,1,11.317-13.58Z" fill="#428934"/>
          <path id="Path_463" data-name="Path 463" d="M143.175,402.186a.7.7,0,0,0,.644.429.686.686,0,0,0,.268-.054l13.429-5.6a.7.7,0,0,0-.537-1.287l-13.428,5.6A.7.7,0,0,0,143.175,402.186Z"/>
          <circle id="Ellipse_20" data-name="Ellipse 20" cx="11.563" cy="11.563" r="11.563" transform="translate(178.313 391.507)" fill="#fff"/>
          <circle id="Ellipse_21" data-name="Ellipse 21" cx="11.563" cy="11.563" r="11.563" transform="translate(142.57 391.507)" fill="#fff"/>
        </g>
        <path id="Path_464" data-name="Path 464" d="M156.594,404.878c2.022.126,3.948,1.55,4.107-.315.183-2.152-1.827-3.557-3.843-3.749-1.567-.15-3.795,1.506-3.707,3.377.1,2.086,1.423.562,3.443.687Z" fill="#262626"/>
        <path id="Path_465" data-name="Path 465" d="M187.08,404.307c-2.02.157-3.925,1.611-4.112-.251-.216-2.149,1.772-3.585,3.784-3.808,1.566-.174,3.818,1.447,3.759,3.319-.067,2.087-1.412.583-3.431.74Z" fill="#262626"/>
      </g>
      <path id="Path_466" data-name="Path 466" d="M178.037,420.3a3.849,3.849,0,0,0,1.354,1.182.426.426,0,0,0,.2.057.422.422,0,0,0,.173-.806,2.883,2.883,0,0,1-1.239-1.182,2.812,2.812,0,0,1-.317-1.67.436.436,0,1,0-.864-.116,3.567,3.567,0,0,0,.23,1.815,12.41,12.41,0,0,1-6.164,1.642,12.2,12.2,0,0,1-6.482-1.843.44.44,0,0,0-.461.749,13.11,13.11,0,0,0,6.943,1.958A13.881,13.881,0,0,0,178.037,420.3Z" fill="#171717" stroke="#171717" stroke-miterlimit="10" stroke-width="0.5"/>
    </g>
    <path id="Path_467" data-name="Path 467" d="M392.293,443.677c-15.559,17.9-42.781,21.546-65.119,21.8a202.825,202.825,0,0,1-37.463-3.115c-9.946-1.755-19.976-4.129-29.3-8.078a62.25,62.25,0,0,1-9.988-5.7c-1.891-1.239-3.379.528-4.659,1.9-2.617,2.8-5.358,4.643-8.75,4.715a6.367,6.367,0,0,0,2.9-3.277,14.446,14.446,0,0,0,1.112-4.929c.1-1.529.251-4.255-.579-5.633-.745-1.238-2.324-2.205-3.2-3.435a22.306,22.306,0,0,1-3.739-13.773.381.381,0,0,0-.762,0c-.164,6.064,1.493,12.456,6.05,16.723.275.258.824.546,1.019.861.666,1.074.521,3.353.48,4.658-.116,3.7-1.683,9.587-6.559,8.366a.381.381,0,0,0-.2.735,10.352,10.352,0,0,0,7.942-.495,17.121,17.121,0,0,0,3.935-3.045c1.072-1.056,2.315-3.312,4.141-3.06.578.079,2.294,1.752,3.069,2.252a42.384,42.384,0,0,0,4.621,2.545c8.882,4.27,18.666,6.76,28.294,8.666,24.442,4.842,51.043,6.121,75.335-.206,11.921-3.1,23.75-8.473,31.968-17.927C393.151,443.847,392.615,443.306,392.293,443.677Z" transform="translate(-0.728 83.587)" fill="#b1bace" stroke="#b1bace" stroke-linecap="round" stroke-linejoin="round" stroke-width="1"/>
    <text id="Sed_ut_perspiciatis_unde_omnis_iste_natus_error_sit." data-name="Sed ut perspiciatis unde 
omnis iste natus error sit." transform="translate(245.437 503.935)" fill="#7283a7" font-size="12" font-family="Helvetica"><tspan x="0" y="0">Sed ut perspiciatis unde </tspan><tspan x="0" y="14">omnis iste natus error sit.</tspan></text>
  </g>
</svg>
