<svg xmlns="http://www.w3.org/2000/svg" viewBox="0 0 107.23 107.23"><defs><style>.cls-1{fill:#125e2f;}.cls-2{fill:none;stroke:#fff;stroke-miterlimit:10;stroke-width:2px;}</style></defs><g id="Layer_2" data-name="Layer 2"><g id="Layer_1-2" data-name="Layer 1"><path class="cls-1" d="M107.23,53.62A53.62,53.62,0,1,1,53.61,0,53.61,53.61,0,0,1,107.23,53.62Z"/><path class="cls-2" d="M45.62,55.18s.13,5.74,4.05,6.4H61.43s4.05-.13,3.91-4.12L68,32.88l2.36-3.3H42.88Z"/><path class="cls-2" d="M42.88,35.36H40.4s-4.44-.52-3.66,6l.53,8s.12,4.57,3.78,4.31l4.36-.43"/><path class="cls-2" d="M67.41,66.28s-.29-4.8-4.5-4.7H48.24c-4.22-.1-4.51,4.7-4.51,4.7L41,82H70.11Z"/><path class="cls-2" d="M42.88,29l.75-2.38c.62-1.92,1.49-2.08,3.4-2s3.62,0,5.43,0c3.87.06,7.75.06,11.63,0,1.86,0,2.53-.35,3.27,1.47.46,1.16.93,2.31,1.39,3.47"/></g></g></svg>