<svg xmlns="http://www.w3.org/2000/svg" width="17.546" height="21.5" viewBox="0 0 17.546 21.5">
  <g id="Group_202" data-name="Group 202" transform="translate(-47.75 0.25)">
    <path id="Path_353" data-name="Path 353" d="M64.387,1.23h.044a.615.615,0,0,0,0-1.23H50.262A2.265,2.265,0,0,0,48,2.263V18.737A2.265,2.265,0,0,0,50.262,21H62.783a2.265,2.265,0,0,0,2.263-2.263V5.558a2.254,2.254,0,0,0-.659-1.594Zm-14.125,0H63.157v2.1a2.255,2.255,0,0,0-.373-.031H50.262a1.032,1.032,0,0,1,0-2.065ZM63.816,18.737a1.033,1.033,0,0,1-1.032,1.032H50.262a1.033,1.033,0,0,1-1.032-1.032V4.276a2.25,2.25,0,0,0,1.032.249H62.783a1.028,1.028,0,0,1,.6.19c.014.012.029.023.044.033a1.031,1.031,0,0,1,.392.809Z" transform="translate(0)" fill="#b1bace" stroke="#b1bace" stroke-width="0.5"/>
    <path id="Path_355" data-name="Path 355" d="M135.954,169.746c-.058,0-.116,0-.174.006a2.738,2.738,0,0,0-4.316,0q-.087-.006-.174-.006a3.154,3.154,0,0,0-2.954,3.316,3.256,3.256,0,0,0,2.332,3.242v3.564a.663.663,0,0,0,.622.7h4.664a.664.664,0,0,0,.622-.7V176.3a3.256,3.256,0,0,0,2.332-3.242A3.154,3.154,0,0,0,135.954,169.746Zm-4.042,9.423v-.847h3.42v.847Zm4.042-4.188a.664.664,0,0,0-.622.7v1.246h-3.42v-1.246a.663.663,0,0,0-.622-.7,1.932,1.932,0,0,1,0-3.839,1.549,1.549,0,0,1,.321.034.592.592,0,0,0,.621-.279,1.605,1.605,0,0,1,2.78,0,.592.592,0,0,0,.621.279,1.545,1.545,0,0,1,.321-.034,1.932,1.932,0,0,1,0,3.839Z" transform="translate(-77.426 -162.828)" fill="#b1bace" stroke="#b1bace" stroke-width="0.5"/>
  </g>
</svg>
