<svg xmlns="http://www.w3.org/2000/svg" width="36.903" height="36.912" viewBox="0 0 36.903 36.912">
  <g id="Group_358" data-name="Group 358" transform="translate(-0.6)">
    <path id="Path_515" data-name="Path 515" d="M37.5,7.688A7.686,7.686,0,0,0,23.3,3.613a17.18,17.18,0,0,0-8.5,0A7.685,7.685,0,0,0,1.773,11.762a7.793,7.793,0,0,0,1.614,1.845,16.914,16.914,0,1,0,31.328,0A7.677,7.677,0,0,0,37.5,7.688ZM17.514,33.731a13.812,13.812,0,0,1-9.745-5.747,15.259,15.259,0,0,1,7.169-4.363,4.564,4.564,0,0,0,2.575,2.249Zm1.538-10.667a1.538,1.538,0,1,1,1.538-1.538A1.542,1.542,0,0,1,19.052,23.064Zm1.538,10.667V25.87a4.708,4.708,0,0,0,2.575-2.249A15.141,15.141,0,0,1,30.333,28,13.853,13.853,0,0,1,20.589,33.731Zm11.282-8.553a18.332,18.332,0,0,0-8.322-4.632,4.614,4.614,0,0,0-9.014,0,18.37,18.37,0,0,0-8.3,4.632,13.838,13.838,0,1,1,25.639,0Z" fill="#025e2b"/>
    <path id="Path_516" data-name="Path 516" d="M361.037,256.347a1.538,1.538,0,1,0,1.538,1.538A1.538,1.538,0,0,0,361.037,256.347Z" transform="translate(-337.373 -240.971)" fill="#025e2b"/>
    <circle id="Ellipse_24" data-name="Ellipse 24" cx="1.538" cy="1.538" r="1.538" transform="translate(12.901 15.376)" fill="#025e2b"/>
  </g>
</svg>
