<svg xmlns="http://www.w3.org/2000/svg" width="36.994" height="37.003" viewBox="0 0 36.994 37.003">
  <g id="surface1" transform="translate(-0.6)">
    <path id="Path_512" data-name="Path 512" d="M37.594,7.707A7.7,7.7,0,0,0,23.355,3.622a17.223,17.223,0,0,0-8.516,0A7.7,7.7,0,0,0,1.776,11.792a7.812,7.812,0,0,0,1.618,1.85,16.956,16.956,0,1,0,31.406,0A7.7,7.7,0,0,0,37.594,7.707ZM29.887,3.083a4.624,4.624,0,0,1,3.43,7.726A17,17,0,0,0,26.361,4.72,4.58,4.58,0,0,1,29.887,3.083ZM3.683,7.707a4.621,4.621,0,0,1,8.15-2.987,17,17,0,0,0-6.955,6.088A4.592,4.592,0,0,1,3.683,7.707ZM19.1,6.166A13.854,13.854,0,0,1,31.949,25.24,18.378,18.378,0,0,0,23.606,20.6a4.626,4.626,0,0,0-9.036,0A18.415,18.415,0,0,0,6.246,25.24,13.868,13.868,0,0,1,19.1,6.166Zm0,16.955a1.541,1.541,0,1,1,1.541-1.541A1.546,1.546,0,0,1,19.1,23.121ZM7.787,28.053a15.3,15.3,0,0,1,7.187-4.374,4.575,4.575,0,0,0,2.582,2.254v7.88A13.846,13.846,0,0,1,7.787,28.053Zm12.852,5.761v-7.88a4.72,4.72,0,0,0,2.582-2.254,15.179,15.179,0,0,1,7.187,4.393A13.888,13.888,0,0,1,20.639,33.814Z" transform="translate(0)" fill="#b1bace"/>
    <path id="Path_513" data-name="Path 513" d="M362.583,257.888a1.541,1.541,0,1,1-1.541-1.541A1.541,1.541,0,0,1,362.583,257.888Z" transform="translate(-337.32 -240.933)" fill="#b1bace"/>
    <path id="Path_514" data-name="Path 514" d="M208.772,257.888a1.541,1.541,0,1,1-1.541-1.541A1.541,1.541,0,0,1,208.772,257.888Z" transform="translate(-192.757 -240.933)" fill="#b1bace"/>
  </g>
</svg>
