<svg xmlns="http://www.w3.org/2000/svg" viewBox="0 0 107.23 107.23"><defs><style>.cls-1{fill:#125e2f;}.cls-2,.cls-3{fill:none;stroke:#fff;stroke-miterlimit:10;}.cls-2{stroke-width:2px;}</style></defs><g id="Layer_2" data-name="Layer 2"><g id="Layer_1-2" data-name="Layer 1"><path class="cls-1" d="M107.23,53.62A53.62,53.62,0,1,1,53.62,0,53.61,53.61,0,0,1,107.23,53.62Z"/><path class="cls-2" d="M78.09,49.85V47.71a1.45,1.45,0,0,0-1.53-1.52l-1.53,0c-1.31.29-1-1.2-1-1.2V43.24c0-2-.07-3.55-1.67-4.92a8.14,8.14,0,0,0-2-1.21,22,22,0,0,0-3.76-1.19,50.94,50.94,0,0,0-10.88-1.2c0-1.09,0-1.65.89-2.32.65-.47,1.38-.77,1.18-1.73-.26-1.24-1.62-1.47-2.67-1.58A7.07,7.07,0,0,0,53.62,29a7.2,7.2,0,0,0-1.54.06c-1,.11-2.41.34-2.66,1.58-.21,1,.52,1.26,1.17,1.73.92.67.87,1.23.89,2.32a51,51,0,0,0-10.88,1.2,22,22,0,0,0-3.76,1.19,8.14,8.14,0,0,0-2,1.21c-1.59,1.37-1.66,3-1.66,4.92V45s.33,1.49-1,1.2l-1.54,0a1.46,1.46,0,0,0-1.53,1.52v2.14s-.24,2,1.23,2.06h1.37s1.71-.08,1.56,2.31l-.12,12.87s.17,11.1,11.28,11.14H62.77c11.11,0,11.29-11.14,11.29-11.14l-.13-12.87c-.14-2.39,1.56-2.31,1.56-2.31h1.37C78.33,51.84,78.09,49.85,78.09,49.85Z"/><line class="cls-3" x1="33.18" y1="43.24" x2="74.06" y2="43.24"/></g></g></svg>