<svg xmlns="http://www.w3.org/2000/svg" width="23.148" height="14" viewBox="0 0 23.148 14">
  <g id="Group_275" data-name="Group 275" transform="translate(0 -121)">
    <g id="Group_274" data-name="Group 274" transform="translate(0 121)">
      <path id="Path_388" data-name="Path 388" d="M22.47,127.606h-.976a.623.623,0,0,0-.4.152l-.556.471.621-3.081H22.47a.785.785,0,0,0,0-1.556H16.538l-.815-2.128A.682.682,0,0,0,15.1,121H8.046a.681.681,0,0,0-.621.465l-.815,2.128H.678a.785.785,0,0,0,0,1.556H1.993l.621,3.081-.556-.471a.623.623,0,0,0-.4-.152H.678a.785.785,0,0,0,0,1.556h.753l1.653,1.4.773,3.836a.705.705,0,0,0,.661.6H18.631a.705.705,0,0,0,.661-.6l.773-3.836,1.653-1.4h.753a.785.785,0,0,0,0-1.556Zm-13.981-5.05H14.66l.4,1.037H8.092Zm9.6,10.889H5.057l-1.672-8.3H19.764Z" transform="translate(0 -121)" fill="#b1bace"/>
    </g>
  </g>
</svg>
