<svg xmlns="http://www.w3.org/2000/svg" width="15.733" height="15.733" viewBox="0 0 15.733 15.733">
  <path id="Path_492" data-name="Path 492" d="M13.8,5.147h3.933V6.72H16.16V16.947a.787.787,0,0,1-.787.787H4.36a.787.787,0,0,1-.787-.787V6.72H2V5.147H5.933V2.787A.787.787,0,0,1,6.72,2h6.293a.787.787,0,0,1,.787.787Zm.787,1.573H5.147v9.44h9.44Zm-3.608,4.72,1.391,1.391-1.112,1.112L9.867,12.552,8.476,13.943,7.363,12.831,8.754,11.44,7.363,10.049,8.476,8.937l1.391,1.391,1.391-1.391,1.112,1.112ZM7.507,3.573V5.147h4.72V3.573Z" transform="translate(-2 -2)" fill="#7283a7"/>
</svg>
