<svg xmlns="http://www.w3.org/2000/svg" viewBox="0 0 133.77 133.77"><defs><style>.cls-1{fill:#b4b7cd;}.cls-2{fill:#fff;}</style></defs><g id="Layer_2" data-name="Layer 2"><g id="Layer_1-2" data-name="Layer 1"><path class="cls-1" d="M133.77,66.88A66.89,66.89,0,1,1,66.88,0,66.89,66.89,0,0,1,133.77,66.88Z"/><path class="cls-2" d="M51.6,77H46V71.61h4.88c-.1-1.49-.16-2.69-.16-3.6,0-1.6,0-2.8.08-3.6H46V59.05h5.36q1.53-9,6.92-13.88t15.64-4.84a36.19,36.19,0,0,1,7.16.6,52.89,52.89,0,0,1,6.6,1.88v7.52a30.54,30.54,0,0,0-6.28-2,36.9,36.9,0,0,0-6.84-.56q-6.72,0-10,2.8t-4.44,8.48H77.52v5.36h-18c-.05.8-.08,2-.08,3.6s0,2.85.08,3.6h18V77H60.4a11.36,11.36,0,0,0,4.72,6.92c2.3,1.47,5.52,2.2,9.68,2.2a38.71,38.71,0,0,0,6.72-.52,33.11,33.11,0,0,0,6.24-1.8v7.52a62.28,62.28,0,0,1-6.64,1.64,41.62,41.62,0,0,1-7.12.52Q55.21,93.45,51.6,77Z"/></g></g></svg>