<svg xmlns="http://www.w3.org/2000/svg" viewBox="0 0 64.93 82.59"><defs><style>.cls-1{fill:#0f6026;}</style></defs><g id="Layer_2" data-name="Layer 2"><g id="Layer_1-2" data-name="Layer 1"><path class="cls-1" d="M8.71,57H0V48.63H7.59c-.17-2.32-.25-4.18-.25-5.59,0-2.49,0-4.36.12-5.6H0V29.11H8.33Q10.7,15.05,19.09,7.53T43.41,0A56.58,56.58,0,0,1,54.54.93,80.73,80.73,0,0,1,64.8,3.86V15.55A47.47,47.47,0,0,0,55,12.44a57.16,57.16,0,0,0-10.64-.87q-10.44,0-15.61,4.35t-6.9,13.19H49v8.33H21c-.08,1.24-.12,3.11-.12,5.6s0,4.43.12,5.59H49V57H22.39q2,7.34,7.34,10.75t15.05,3.43a60.58,60.58,0,0,0,10.44-.81,51,51,0,0,0,9.71-2.8V79.23A97.87,97.87,0,0,1,54.6,81.78a63.52,63.52,0,0,1-11.07.81Q14.31,82.59,8.71,57Z"/></g></g></svg>