<svg xmlns="http://www.w3.org/2000/svg" viewBox="0 0 159.4 159.4"><defs><style>.cls-1{fill:#0f6026;}.cls-2{fill:#fff;}</style></defs><g id="Layer_2" data-name="Layer 2"><g id="Layer_1-2" data-name="Layer 1"><circle class="cls-1" cx="79.7" cy="79.7" r="79.7"/><path class="cls-2" d="M55.67,95.56H47V87.22h7.59c-.17-2.32-.25-4.18-.25-5.59,0-2.49,0-4.36.13-5.6H47V67.7H55.3q2.36-14.06,10.76-21.58t24.31-7.53a56.62,56.62,0,0,1,11.14.93,83.4,83.4,0,0,1,10.26,2.93V54.14A48.17,48.17,0,0,0,102,51a57,57,0,0,0-10.63-.87q-10.45,0-15.61,4.35T68.86,67.7H96V76H68c-.09,1.24-.13,3.11-.13,5.6s0,4.43.13,5.59H96v8.34H69.35q2,7.34,7.34,10.76t15,3.42a60.7,60.7,0,0,0,10.45-.81,51,51,0,0,0,9.7-2.8v11.69a98.35,98.35,0,0,1-10.32,2.55,63.68,63.68,0,0,1-11.07.81Q61.27,121.18,55.67,95.56Z"/></g></g></svg>