<svg id="facebook" xmlns="http://www.w3.org/2000/svg" width="18.788" height="18.788" viewBox="0 0 18.788 18.788">
  <path id="Path_309" data-name="Path 309" d="M16.258,0H2.534A2.532,2.532,0,0,0,0,2.532V16.256a2.532,2.532,0,0,0,2.532,2.532H9.3l.012-6.714H7.57a.412.412,0,0,1-.412-.41L7.15,9.5a.412.412,0,0,1,.412-.413H9.3V7a3.416,3.416,0,0,1,3.647-3.748h1.776a.412.412,0,0,1,.412.412V5.484a.412.412,0,0,1-.411.412h-1.09c-1.177,0-1.405.559-1.405,1.38v1.81h2.587a.412.412,0,0,1,.409.46l-.257,2.164a.412.412,0,0,1-.409.363H12.242l-.012,6.714h4.028a2.532,2.532,0,0,0,2.532-2.532V2.532A2.532,2.532,0,0,0,16.258,0Z" transform="translate(-0.002)" fill="#475993"/>
</svg>
