<svg xmlns="http://www.w3.org/2000/svg" viewBox="0 0 124.56 124.56"><defs><style>.cls-1{fill:#008048;}.cls-2{fill:#75c04a;}.cls-3{fill:#0095d4;}.cls-3,.cls-4,.cls-5,.cls-6{fill-rule:evenodd;}.cls-4{fill:#6db7e5;}.cls-5{fill:#c0dbef;}.cls-6{fill:#fff;}</style></defs><g id="Layer_2" data-name="Layer 2"><g id="Layer_1-2" data-name="Layer 1"><circle class="cls-1" cx="62.28" cy="62.28" r="62.28" transform="translate(-13.51 17.41) rotate(-14.37)"/><path class="cls-2" d="M119.42,62.28A57.14,57.14,0,1,1,62.28,5.14,57.14,57.14,0,0,1,119.42,62.28Z"/><path class="cls-1" d="M115,62.28A52.69,52.69,0,1,1,62.28,9.59,52.69,52.69,0,0,1,115,62.28Z"/><g id="_1Gb9ve" data-name="1Gb9ve"><path class="cls-3" d="M35.71,56A17.61,17.61,0,0,0,40,55.3a19.93,19.93,0,0,0,2.64-.88c.13,0,.26-.07.31-.22A21.79,21.79,0,0,1,45.78,53c1.37-.55,2.75-1.06,4.17-1.49a2.33,2.33,0,0,1,.78-.1c1.91-.47,3.79-1,5.72-1.37,2.22-.43,4.46-.76,6.71-1a.53.53,0,0,0,.4-.15,13.73,13.73,0,0,1,2.2-.25,72.51,72.51,0,0,1,7.66-.11,25.38,25.38,0,0,1,4.52.38,16.3,16.3,0,0,0,3,.45A61.87,61.87,0,0,1,94,52.49c0,.29-.25.3-.41.39A12.91,12.91,0,0,0,89,56.68a8.2,8.2,0,0,0-1.37,2.91c-.07.28-.12.61-.51.66-1.19,0-2.38-.16-3.57-.24-.87-.06-1.74-.13-2.6-.16l-4.15-.15c-3.69-.12-7.38-.26-11.07-.2-3.33.07-6.67.09-10,.23-2.42.11-4.84.18-7.26.35s-5.06.3-7.59.51c-2.77.23-5.55.47-8.32.72-.43,0-.86.11-1.29.19s-.3-.24-.35-.42c-.22-.81-.25-.83-1.09-.82a30.07,30.07,0,0,0-3.28.2c-.5.08-.7-.09-.74-.54s.13-.78.65-.76c.73,0,1.45.17,2.19.16.45,0,.91,0,1.36.06a.73.73,0,0,0,.87-.69,3.41,3.41,0,0,1,.56-1.35,2.45,2.45,0,0,1,2.37-1.26A8.31,8.31,0,0,1,35.71,56Z"/><path class="cls-4" d="M31.16,61.47c.27-.45.76-.28,1.11-.31,2.84-.26,5.67-.54,8.52-.74q3.36-.24,6.73-.44c2.43-.15,4.87-.25,7.3-.36,2.77-.11,5.53-.14,8.29-.23,2.27-.07,4.55-.1,6.82,0,2,0,3.94,0,5.91.1s3.66.12,5.49.23c2,.12,4,.29,5.93.44a.62.62,0,0,1,.16.53A6.85,6.85,0,0,0,88,64a.51.51,0,0,1-.61.16,24.7,24.7,0,0,0-5.13-.6,18.29,18.29,0,0,0-6.76,1,.39.39,0,0,0-.2.17.81.81,0,0,0,.64.26,10.71,10.71,0,0,1,5.22,2.23,2.93,2.93,0,0,0,3.85.09,28.38,28.38,0,0,1,2.5-1.58,3,3,0,0,1,1.14-.49c.27,0,.42.23.6.39a5.12,5.12,0,0,0,3.57,1.46c.21,0,.45,0,.62.16a25.58,25.58,0,0,1-4,1.33,56.62,56.62,0,0,1-7.51,1.58c-2,.27-3.92.54-5.9.62-1.6.07-3.2.22-4.81.22a2.29,2.29,0,0,0-.44.09,6.43,6.43,0,0,1-1.07.08,77.47,77.47,0,0,1-8.47-.63c-.21-.36-.58-.21-.88-.27-1.47-.27-3-.51-4.44-.75a6.27,6.27,0,0,1-2.23-.39,54.84,54.84,0,0,1-10-3.41,23.32,23.32,0,0,0-2.28-.88.62.62,0,0,0-.72.12c0-.53-.43-.63-.87-.74a29.68,29.68,0,0,0-3.74-.7.9.9,0,0,0-.27.07c-.59,0-1.17-.11-1.77-.06a2.6,2.6,0,0,1-2.65-1.51A.69.69,0,0,1,31.16,61.47Z"/><path class="cls-5" d="M93.42,67.29a5.74,5.74,0,0,1-4.76-1.94c-.37-.34-.79-.64-.72-1.23A4.83,4.83,0,0,1,87.26,61c0-.29,0-.57,0-.86a17.06,17.06,0,0,1,1-2.62,11.51,11.51,0,0,1,4.13-4.1c.52-.31,1-.6,1.57-.9a61,61,0,0,1,8.17,4.07c.91.54,1.79,1.12,2.66,1.74.42.3.43.46,0,.77l-2.35,1.71L105,60c.19-.06.39-.08.5.12s0,.37-.19.52a43.07,43.07,0,0,1-8.63,5.62A8.73,8.73,0,0,1,93.42,67.29Z"/><path class="cls-3" d="M31.16,61.47A2.87,2.87,0,0,0,33,63.33a5.16,5.16,0,0,0,.89.09c0,.34-.22.45-.45.57-3,1.45-6,2.83-9,4a2.1,2.1,0,0,1-.65.18c-.19,0-.31,0-.2-.27.36-1.08.75-2.16,1.07-3.26A17.21,17.21,0,0,0,25.5,60a17.63,17.63,0,0,0-.9-5c-.33-1.18-.8-2.3-1.16-3.46.25-.17.48,0,.7.07,2.35.94,4.68,1.9,7,3,.75.37,1.52.69,2.24,1.1.22.12.57.19.44.59C32.35,56,31.22,57.37,31,58.91c-.07.44-.27.62-.65.62-.58,0-1.18-.08-1.75,0-.77,0-1.48-.18-2.22-.19-.46,0-.39.29-.41.57s.09.53.44.46A23.42,23.42,0,0,1,30,60.1c.68,0,.84.07,1,.72C31.08,61,31,61.29,31.16,61.47Z"/><path class="cls-3" d="M40.6,65c-.05-.44.12-.48.51-.36,1.85.58,3.57,1.48,5.37,2.16a60.09,60.09,0,0,0,9.2,2.66.93.93,0,0,1,.2.1A21.49,21.49,0,0,1,48,74.88c-.33.13-.72.38-1,.3s-.24-.58-.38-.88a13.14,13.14,0,0,0-2.36-3.18c-.63-.7-1.28-1.39-1.89-2.12A8,8,0,0,1,40.6,65Z"/><path class="cls-3" d="M77.94,48.84a4.06,4.06,0,0,1-1.77,0c-.94-.09-1.88-.12-2.82-.16-1.77-.08-3.55-.08-5.33,0a31.36,31.36,0,0,0-4,.29c-.17,0-.34.06-.47-.11a12.39,12.39,0,0,0,1.18-7.06c-.07-.61,0-.61.57-.43A27.38,27.38,0,0,1,73,45.07,56.93,56.93,0,0,1,77.94,48.84Z"/><path class="cls-3" d="M33.78,56.23c-.05-.28-.3-.37-.51-.47a96.66,96.66,0,0,0-9.61-4.24,1.8,1.8,0,0,0-.22-.06c-.42-.86-.79-1.76-1.28-2.59a13.52,13.52,0,0,0-1.53-2.15,22.24,22.24,0,0,1,3.51,1.69A88.16,88.16,0,0,1,34,54.62,20.67,20.67,0,0,1,35.71,56,8.37,8.37,0,0,1,33.78,56.23Z"/><path class="cls-3" d="M23.54,67.94c.12.38.35.1.49,0,1.24-.49,2.5-1,3.72-1.52,1.89-.84,3.76-1.74,5.65-2.61a1.05,1.05,0,0,0,.49-.44,3.92,3.92,0,0,1,1.83.21,68.56,68.56,0,0,1-10.78,7.15A39.68,39.68,0,0,1,20.47,73,16.1,16.1,0,0,0,23.54,67.94Z"/><path class="cls-3" d="M50.73,51.36c-1.83.58-3.65,1.21-5.43,1.93A11.44,11.44,0,0,1,43,54.2a7.15,7.15,0,0,1-2.83-1.85c-.47-.51-.92-1.09-.64-1.83s.94-.75,1.57-.81a15.41,15.41,0,0,1,4.06.38A51.14,51.14,0,0,1,50.73,51.36Z"/><path class="cls-3" d="M61.2,70.58c.57-.32,1.14,0,1.7,0,2.45.24,4.9.38,7.37.41.16,0,.34-.07.47.1a22,22,0,0,1-9.92,4.69A8.37,8.37,0,0,0,61.2,70.58Z"/><path class="cls-3" d="M48.53,58.07c-.3,0-.71,0-.73-.36s.4-.43.72-.44.75,0,.76.41S48.84,58.05,48.53,58.07Z"/><path class="cls-3" d="M70.26,55c.32,0,.76,0,.77.35s-.47.39-.79.44a1,1,0,0,1-.33-.07c-.21-.05-.42-.12-.39-.39s.25-.3.46-.32A1.31,1.31,0,0,1,70.26,55Z"/><path class="cls-3" d="M66.92,52.25a1.39,1.39,0,0,1,.32,0,.4.4,0,0,1,.33.35c0,.21-.15.27-.32.32a1,1,0,0,1-.33.09c-.35,0-.84,0-.85-.44S66.53,52.25,66.92,52.25Z"/><path class="cls-3" d="M54.14,54.19c-.33,0-.63,0-.62-.35s.31-.34.56-.33.58.05.59.32S54.31,54.13,54.14,54.19Z"/><path class="cls-3" d="M71.07,58c-.21,0-.51,0-.5-.29s.31-.24.5-.26.46,0,.47.27S71.29,57.94,71.07,58Z"/><path class="cls-3" d="M61.38,58c-.26,0-.55,0-.56-.24s.29-.32.52-.31.48.05.48.29S61.52,57.91,61.38,58Z"/><path class="cls-3" d="M43.18,58.74c-.19,0-.47,0-.47-.25s.28-.28.47-.3.48,0,.48.29S43.4,58.74,43.18,58.74Z"/><path class="cls-3" d="M79.58,56c-.24,0-.49,0-.48-.26s.33-.27.54-.29.45,0,.43.27S79.75,56,79.58,56Z"/><path class="cls-3" d="M55.24,57.39c-.19,0-.46,0-.46-.23s.28-.24.48-.24.44,0,.45.21S55.43,57.36,55.24,57.39Z"/><path class="cls-3" d="M64.32,55c.18,0,.37,0,.38.2s-.19.24-.36.25-.33,0-.34-.2S64.2,55,64.32,55Z"/><path class="cls-3" d="M81,52.47c0,.18-.15.22-.28.23s-.38,0-.43-.17.13-.25.29-.26A.4.4,0,0,1,81,52.47Z"/><path class="cls-3" d="M74,53c0,.19-.19.23-.33.24s-.36,0-.38-.22.15-.19.28-.2S74,52.83,74,53Z"/><path class="cls-3" d="M89,53.28c-.18,0-.37,0-.4-.18s.17-.24.31-.23.35,0,.38.18S89.09,53.26,89,53.28Z"/><path class="cls-3" d="M45.19,56.47c-.15,0-.37,0-.38-.16s.22-.18.37-.19.36,0,.36.17S45.33,56.46,45.19,56.47Z"/><path class="cls-3" d="M77.44,51.45c.15,0,.35,0,.35.18s-.17.17-.3.17-.36,0-.38-.16S77.3,51.46,77.44,51.45Z"/><path class="cls-3" d="M58,53.4c-.14,0-.36,0-.34-.19s.22-.16.37-.16.31,0,.31.16S58.13,53.38,58,53.4Z"/><path class="cls-3" d="M38.8,58.2c.12,0,.29,0,.3.2s-.18.22-.33.22-.28,0-.29-.19S38.67,58.24,38.8,58.2Z"/><path class="cls-3" d="M87.94,64.12c.11.48.54.78.72,1.23a26.43,26.43,0,0,0-3.8,2.26,2.86,2.86,0,0,1-3.62-.09,11.51,11.51,0,0,0-5.62-2.4c-.26,0-.64-.07-.67-.32s.38-.31.61-.39a19.52,19.52,0,0,1,7.16-.93A41.57,41.57,0,0,1,87.94,64.12Z"/><path class="cls-3" d="M100.83,58.28a1.56,1.56,0,0,1-1.77,1.57,1.5,1.5,0,0,1-1.52-1.62,1.53,1.53,0,0,1,1.68-1.65C100.31,56.59,100.78,57.26,100.83,58.28Z"/></g><path class="cls-6" d="M100.74,58.35a1,1,0,1,1-1-1A1,1,0,0,1,100.74,58.35Z"/></g></g></svg>