<svg xmlns="http://www.w3.org/2000/svg" viewBox="0 0 107.23 107.23"><defs><style>.cls-1{fill:#125e2f;}.cls-2,.cls-3,.cls-4{fill:none;stroke:#fff;stroke-miterlimit:10;}.cls-2,.cls-4{stroke-width:2px;}.cls-4{stroke-linecap:round;}</style></defs><g id="Layer_2" data-name="Layer 2"><g id="Layer_1-2" data-name="Layer 1"><path class="cls-1" d="M107.23,53.62A53.62,53.62,0,1,1,53.62,0,53.61,53.61,0,0,1,107.23,53.62Z"/><rect class="cls-2" x="29.53" y="29.23" width="48.17" height="48.5" rx="1.04"/><path class="cls-3" d="M73.27,71.78c0,.34-.38.62-.84.62H35.09c-.46,0-.84-.28-.84-.62V43.68c0-.34.38-.62.84-.62H72.43c.46,0,.84.28.84.62Z"/><line class="cls-4" x1="42.74" y1="49.09" x2="65.82" y2="49.09"/><path class="cls-3" d="M44.48,36.67A2.45,2.45,0,1,1,42,34.23,2.45,2.45,0,0,1,44.48,36.67Z"/><path class="cls-3" d="M52.25,36.67a2.45,2.45,0,1,1-2.44-2.44A2.44,2.44,0,0,1,52.25,36.67Z"/><path class="cls-3" d="M60,36.67a2.45,2.45,0,1,1-2.44-2.44A2.44,2.44,0,0,1,60,36.67Z"/><path class="cls-3" d="M67.86,36.67a2.44,2.44,0,1,1-2.44-2.44A2.44,2.44,0,0,1,67.86,36.67Z"/></g></g></svg>