<svg xmlns="http://www.w3.org/2000/svg" width="223.508" height="212.99" viewBox="0 0 223.508 212.99">
  <g id="Group_422" data-name="Group 422" transform="translate(-95.875 -192.246)">
    <g id="Group_409" data-name="Group 409" transform="translate(159.401 352.571)">
      <g id="Group_408" data-name="Group 408" transform="translate(0 0)">
        <path id="Path_559" data-name="Path 559" d="M-3.695-95.793c-2.484-6.178-7.987-9.769-16.794-8.122-1.084.2-2.1.567-3.09.8-.039-3.4-.884-2.5.987-2.114,4.145.848,7.97-3.1,10.634-5.8l-1.605-1.028c-5.137-3.29-10.817-4.586-12.864.676a10.317,10.317,0,0,0-2.647-2.178l-1.543,2.674c2.769,1.6,3.891,4.55,3.95,7.708-.941-.239-1.858-.554-2.852-.74-8.725-1.631-14.28,1.87-16.794,8.122-7.025,17.468,9.754,33.529,16.365,33.529A11.334,11.334,0,0,0-25-63.469a11.334,11.334,0,0,0,4.944,1.2c6.867,0,23.293-16.3,16.365-33.529Zm-13.261-14.683c-2.343,2-5.2,3.489-6.788.843.7-3.263,3.857-2.413,6.788-.843ZM-10.937-72c-2.819,3.37-7.182,6.652-9.108,6.652A8.26,8.26,0,0,1-25-67.105a8.118,8.118,0,0,1-4.959,1.755c-2.016,0-6.429-3.45-9.108-6.652-10.275-12.285-6.955-33.476,10.592-28.469a10.773,10.773,0,0,0,4.207.6c2.221-.206,13.535-5.159,17.714,5.231C-3.643-87.392-5.321-78.717-10.937-72Zm0,0" transform="translate(48 114.929)" fill="#ff784c"/>
      </g>
    </g>
    <g id="Group_411" data-name="Group 411" transform="translate(166.391 226.282)">
      <g id="Group_410" data-name="Group 410" transform="translate(0 0)">
        <path id="Path_560" data-name="Path 560" d="M412.616-220.916a7.007,7.007,0,0,0-10.991-5.054c.459-3.514,3.728-5.42,7.122-6.424l-.876-2.96c-5.135,1.52-4.864,3.022-7.386,3.073,3.246-3.731,3.028-7.537,1.527-11.83-2.274-.05-4.533.214-6.439,2.086a6.308,6.308,0,0,0-5.528-2.027c-.686.1-.473-.033-.95.514a6.319,6.319,0,0,0-1.331,5.739c-2.553.557-4.021,2.243-5.272,4.25,2.553,3.317,5.307,5.588,9.963,5.274a12.429,12.429,0,0,0,4.765-1.337c.544-.28.344.126,2.231.36a9.282,9.282,0,0,0-.91,3.139,7.009,7.009,0,0,0-10.78,5.2c-7.337,1.617-7.276,12.157.079,13.692a7.012,7.012,0,0,0,5.378,8.091,7.01,7.01,0,0,0,6.969,7.681,7.01,7.01,0,0,0,6.969-7.681,7.012,7.012,0,0,0,5.379-8.091c7.353-1.534,7.416-12.074.079-13.691Zm-3.109.02a7,7,0,0,0-3.859,2.437,7,7,0,0,0-3.86-2.437,3.917,3.917,0,0,1,7.719,0Zm-23.112-12.763c1.825-1.722,3.2-1.186,6.458-.743-1.244-2.139-3.037-4.44-1.781-6.619,2.5.141,3.443,2.888,4.559,5.119,1.344-2.825,1.684-4.4,4.158-5,1.669,7.612-7.958,12.785-13.393,7.245Zm17.476,20.916a7.014,7.014,0,0,0-3.681,2.392,7.012,7.012,0,0,0-3.681-2.392,3.92,3.92,0,0,1,2.565-5.09,3.921,3.921,0,0,1,4.8,5.09Zm-5.28-8.153a7,7,0,0,0-3.859,2.437,7,7,0,0,0-3.859-2.437,3.917,3.917,0,0,1,7.718,0Zm-9.461,10.728a3.918,3.918,0,0,1-.971-7.665,3.92,3.92,0,0,1,4.795,5.09,7.012,7.012,0,0,0-3.824,2.575Zm5.078,8.077a3.92,3.92,0,0,1-3.156-5.216c1.637-4.495,8.39-2.615,7.531,2.039a7.024,7.024,0,0,0-4.375,3.177Zm5.983,7.552a3.92,3.92,0,0,1-1.775-7.4,3.912,3.912,0,0,1,3.55,0,3.92,3.92,0,0,1-1.775,7.4Zm5.983-7.552a7.024,7.024,0,0,0-4.375-3.177,3.919,3.919,0,0,1,3.851-4.617c4.86,0,5.315,7.152.524,7.794Zm5.078-8.077a7.018,7.018,0,0,0-3.824-2.575,3.92,3.92,0,0,1,4.8-5.09,3.918,3.918,0,0,1-.971,7.665Zm0,0" transform="translate(-382.292 244.117)" fill="#99004a"/>
      </g>
    </g>
    <g id="Group_414" data-name="Group 414" transform="translate(95.875 215.128)">
      <path id="Path_562" data-name="Path 562" d="M-297.193-235.27a26.313,26.313,0,0,0-37.232,0,26.689,26.689,0,0,0-7.711,20.159h19.331l-1.019,15.5a5.257,5.257,0,0,0,5.242,5.6h5.548a5.257,5.257,0,0,0,5.242-5.6l-1.019-15.5h19.331a26.677,26.677,0,0,0-7.711-20.159Zm-9.647-2.824a23.312,23.312,0,0,1,7.128,4.693,4.376,4.376,0,0,1-4.163,2.963,4.407,4.407,0,0,1-4.4-4.4,4.381,4.381,0,0,1,1.436-3.252ZM-332.6-232.7a3.864,3.864,0,0,1,1.807,3.277,3.875,3.875,0,0,1-3.871,3.872,3.863,3.863,0,0,1-2.286-.748,23.349,23.349,0,0,1,4.349-6.4Zm19.566,35.61h-5.548a2.166,2.166,0,0,1-2.163-2.31l1.032-15.706h7.81l1.032,15.706a2.166,2.166,0,0,1-2.163,2.31ZM-339-218.2a23.09,23.09,0,0,1,.937-5.162,6.945,6.945,0,0,0,3.4.889,6.965,6.965,0,0,0,6.956-6.957,6.949,6.949,0,0,0-2.569-5.4,23.127,23.127,0,0,1,14.468-5.067,23.19,23.19,0,0,1,5.813.737,7.465,7.465,0,0,0-1.366,4.318,7.5,7.5,0,0,0,7.488,7.488,7.485,7.485,0,0,0,4.881-1.81,7.5,7.5,0,0,0,1.507-1.773,23.125,23.125,0,0,1,4.869,12.739Zm0,0" transform="translate(342.141 242.987)" fill="#ffe315"/>
      <path id="Path_563" data-name="Path 563" d="M-200.2-151.452a5.2,5.2,0,0,0-5.2,5.2,5.2,5.2,0,0,0,5.2,5.2,5.2,5.2,0,0,0,5.2-5.2,5.2,5.2,0,0,0-5.2-5.2Zm0,7.308a2.114,2.114,0,0,1-2.111-2.111,2.114,2.114,0,0,1,2.111-2.111,2.114,2.114,0,0,1,2.112,2.111,2.114,2.114,0,0,1-2.112,2.111Zm0,0" transform="translate(224.154 164.006)" fill="#ffe315"/>
    </g>
    <g id="Group_415" data-name="Group 415" transform="translate(212.479 192.246)">
      <path id="Path_564" data-name="Path 564" d="M187.307-316.839a11.827,11.827,0,0,0-11.814-11.814h-7.357c-.011-1.26.342-6.047,6.11-8.187l-1.072-2.889c-5.409,2.007-8.132,6.472-8.119,11.076h-8.013a11.827,11.827,0,0,0-11.814,11.814v5.482H148.4c1.4,11.089,7.236,20.645,18.208,24.293,10.923-3.631,16.533-13.177,17.568-24.293h3.127Zm-9.987-8.539-3.519,3.339-3.693-3.533c5.7,0,6-.065,7.212.194Zm-.032,10.939h-7.019l3.524-3.344Zm-10.966-10.489,5.241,5.012-5.3,5.024-5.261-4.992Zm-4.056,10.489h-7l3.5-3.321Zm.257-11.133-3.756,3.564-3.552-3.37c1.189-.254,1.408-.194,7.308-.194ZM148.31-314.438c0-2.433-.463-6.692,3.822-9.617l4.4,4.172-5.738,5.445Zm18.3,24.12c-8.887-3.185-13.769-11.69-15.1-21.038H181.08c-.975,9.3-5.57,17.846-14.468,21.038Zm17.613-24.12h-2.478l-5.716-5.468,4.373-4.149c4.258,2.906,3.822,7.171,3.822,9.617Zm0,0" transform="translate(-145.228 339.729)" fill="#025e2b"/>
    </g>
    <g id="Group_417" data-name="Group 417" transform="translate(224.628 341.578)">
      <rect id="Rectangle_60" data-name="Rectangle 60" width="3.081" height="3.081" transform="translate(15.673 43.654)" fill="#ffe315"/>
      <rect id="Rectangle_61" data-name="Rectangle 61" width="3.081" height="3.081" transform="translate(6.636 34.925)" fill="#ffe315"/>
      <rect id="Rectangle_62" data-name="Rectangle 62" width="3.081" height="3.081" transform="translate(25.121 37.624)" fill="#ffe315"/>
      <rect id="Rectangle_63" data-name="Rectangle 63" width="3.081" height="3.081" transform="translate(15.673 28.147)" fill="#ffe315"/>
      <rect id="Rectangle_64" data-name="Rectangle 64" width="3.081" height="3.081" transform="translate(27.483 26.328)" fill="#ffe315"/>
      <rect id="Rectangle_65" data-name="Rectangle 65" width="3.081" height="3.081" transform="translate(13.208 17.968)" fill="#ffe315"/>
      <rect id="Rectangle_66" data-name="Rectangle 66" width="3.081" height="3.081" transform="translate(23.58 15.811)" fill="#ffe315"/>
      <rect id="Rectangle_67" data-name="Rectangle 67" width="3.081" height="3.081" transform="translate(33.182 13.706)" fill="#ffe315"/>
      <g id="Group_416" data-name="Group 416">
        <rect id="Rectangle_68" data-name="Rectangle 68" width="3.081" height="3.081" transform="translate(18.754 6.312)" fill="#ffe315"/>
        <path id="Path_565" data-name="Path 565" d="M588.352-411.664a18.554,18.554,0,0,0-16.431-.052c-9.638,5.065-7.358,15.014-13.447,26.833-3.571,6.932-5.837,12.545,3.854,20.044,8.1,6.264,21.737,5.665,28.927-6.863,2.767-4.821,4.352-10.358,5.863-16.082,2.891-10.958,1.137-18.917-8.766-23.878Zm5.788,23.092c-2.78,10.534-6.413,22.488-17.24,24.259a16.19,16.19,0,0,1-12.686-2.963c-10.7-8.277-3.6-12.846-.851-20.887,1.575-4.6,2.635-9.31,4.129-13.825,2.707-8.179,12.211-10.563,19.479-6.921,6.793,3.4,10.294,8.489,7.168,20.338Zm0,0" transform="translate(-555.41 413.607)" fill="#ffe315"/>
      </g>
    </g>
    <g id="Group_418" data-name="Group 418" transform="translate(278.677 311.101)">
      <path id="Path_566" data-name="Path 566" d="M892.112-441.021c3.937-5.037,3.946-15.254,3.6-21.632-12.2,7.206-20.495,6.742-21.668,16.851-.254,2.179.521,1.407-2.189.909-12.234-2.253-18.286,14.572-7.354,20.583a11.082,11.082,0,0,0,10.581,14.323,11.082,11.082,0,0,0,10.992-9.781,11.079,11.079,0,0,0,13.24-8.808,11.087,11.087,0,0,0-7.2-12.445Zm.7-16.546c-.033,5.189-.878,14.115-4.637,15.918a11.069,11.069,0,0,0-6.689,2.453c2.989-7.787,7.113-8.98,9.9-14.059l-2.7-1.5c-2.526,4.491-6.769,6.051-9.969,14.137a11.042,11.042,0,0,0-1.606-1.738c-1.062-9.508,5.186-10.1,15.7-15.215Zm-29.538,28.087c-4.979-7.225,3.873-16.71,11.933-10.435a7.99,7.99,0,0,1,2.614,6.163,11.183,11.183,0,0,0-.388,1.882,11.063,11.063,0,0,0-11.615,4.76,7.946,7.946,0,0,1-2.545-2.369Zm11.806,16.4a7.989,7.989,0,0,1-7.683-10.138,7.986,7.986,0,0,1,11.913-4.606,8.077,8.077,0,0,1,3.75,6.764,7.99,7.99,0,0,1-7.98,7.98Zm21.2-16.06a7.988,7.988,0,0,1-10.3,6.149c-1.013-5.742-5.546-7.549-5.528-7.851a7.988,7.988,0,0,1,9.423-7.594,7.989,7.989,0,0,1,6.4,9.3Zm0,0" transform="translate(-858.79 462.653)" fill="#ff784c"/>
      <rect id="Rectangle_69" data-name="Rectangle 69" width="3.089" height="3.088" transform="translate(13.607 43.679)" fill="#ff784c"/>
      <rect id="Rectangle_70" data-name="Rectangle 70" width="3.088" height="3.088" transform="translate(30.848 33.837)" fill="#ff784c"/>
      <rect id="Rectangle_71" data-name="Rectangle 71" width="3.088" height="3.088" transform="translate(4.955 28.336)" fill="#ff784c"/>
    </g>
    <g id="Group_419" data-name="Group 419" transform="translate(257.324 242.842)">
      <rect id="Rectangle_72" data-name="Rectangle 72" width="3.086" height="3.086" transform="translate(12.446 15.429)" fill="#c5d621"/>
      <rect id="Rectangle_73" data-name="Rectangle 73" width="3.086" height="3.086" transform="translate(18.618 9.258)" fill="#c5d621"/>
      <rect id="Rectangle_74" data-name="Rectangle 74" width="3.086" height="3.086" transform="translate(18.618 21.601)" fill="#c5d621"/>
      <rect id="Rectangle_75" data-name="Rectangle 75" width="3.086" height="3.086" transform="translate(24.79 15.429)" fill="#c5d621"/>
      <rect id="Rectangle_76" data-name="Rectangle 76" width="3.086" height="3.086" transform="translate(43.408 40.322)" fill="#c5d621"/>
      <rect id="Rectangle_77" data-name="Rectangle 77" width="3.086" height="3.086" transform="translate(18.515 40.322)" fill="#c5d621"/>
      <path id="Path_567" data-name="Path 567" d="M546.525-747.038V-760.23a7.726,7.726,0,0,0,3.086-5.86c0-3.907-3.615-7.366-9.686-9.292a19.753,19.753,0,0,0-6.214-3.1c-4.347-3.347-11.1-4.581-16.6-4.581-10.772,0-20.161,4.452-20.161,10.8a7.727,7.727,0,0,0,3.086,5.86v26.747h9.451c1.411,5.607,10.254,9.258,19.968,9.258,10.773,0,20.161-4.453,20.161-10.8a7.692,7.692,0,0,0-3.086-5.84Zm0-19.052c0,1.932-1.639,3.261-3.086,4.349v12.7l-.16-.082a23.438,23.438,0,0,0-2.926-1.2v-12.988a7.726,7.726,0,0,0,3.086-5.86,6.292,6.292,0,0,0-.143-1.323,10.984,10.984,0,0,1,1.316.974,4.875,4.875,0,0,1,1.913,3.435Zm-6.172-3.086c0,1.932-1.639,3.261-3.086,4.349v13.647c-1-.219-2.029-.4-3.086-.528V-766.4a7.727,7.727,0,0,0,3.086-5.86,6.286,6.286,0,0,0-.142-1.323,10.95,10.95,0,0,1,1.315.973,4.874,4.874,0,0,1,1.913,3.435Zm-30.871,26.436h-6.365v-25.172l-.616-.463c-1.127-.848-2.47-2.21-2.47-3.886,0-3.8,7.268-7.715,17.075-7.715,9.741,0,17.075,3.885,17.075,7.715,0,1.932-1.639,3.261-3.086,4.349v15.95q-.817-.035-1.646-.035c-9.848,0-18.574,3.72-19.968,9.258Zm19.968,9.258c-9.733,0-17.075-3.881-17.075-7.715,0-3.8,7.261-7.715,17.075-7.715a28.726,28.726,0,0,1,12.458,2.551c2.934,1.456,4.617,3.338,4.617,5.164,0,3.8-7.261,7.715-17.075,7.715Zm0,0" transform="translate(-496.946 783.063)" fill="#c5d621"/>
      <rect id="Rectangle_78" data-name="Rectangle 78" width="3.086" height="6.172" transform="translate(24.79 38.779)" fill="#c5d621"/>
      <rect id="Rectangle_79" data-name="Rectangle 79" width="3.086" height="9.258" transform="translate(30.961 37.236)" fill="#c5d621"/>
      <rect id="Rectangle_80" data-name="Rectangle 80" width="3.086" height="6.172" transform="translate(37.236 38.779)" fill="#c5d621"/>
    </g>
    <g id="Group_420" data-name="Group 420" transform="translate(194.645 278.944)">
      <path id="Path_568" data-name="Path 568" d="M236.529-656.5c-.937-3.685-3.543-7.685-7.745-11.887s-8.2-6.808-11.887-7.745c-3.562-.906-6.77-.16-9.031,2.1l-1.646,1.646a23.139,23.139,0,0,0-6.473,20.132l-.018.027c-1.59,2.392-2.963,4.458-3.446,6.644a6.829,6.829,0,0,0,.01,3.139l-5.428,5.428a4.636,4.636,0,0,0-5.268.9,4.6,4.6,0,0,0-1.356,3.273,4.6,4.6,0,0,0,1.356,3.273,4.608,4.608,0,0,0,3.018,1.347,4.608,4.608,0,0,0,1.347,3.018,4.615,4.615,0,0,0,3.273,1.354,4.617,4.617,0,0,0,3.274-1.354,4.6,4.6,0,0,0,1.356-3.273,4.611,4.611,0,0,0-.451-2l5.427-5.427a6.522,6.522,0,0,0,1.557.189,7.324,7.324,0,0,0,1.581-.178c2.186-.483,4.252-1.856,6.644-3.446l.027-.018a23.139,23.139,0,0,0,20.132-6.473l1.646-1.646c2.262-2.261,3.008-5.469,2.1-9.031Zm-43.3,25.846,1.091,1.091a1.545,1.545,0,0,1,0,2.183,1.545,1.545,0,0,1-2.182,0,1.545,1.545,0,0,1,0-2.183l-2.183-2.182a1.545,1.545,0,0,1-2.182,0,1.534,1.534,0,0,1-.452-1.091,1.535,1.535,0,0,1,.452-1.091,1.546,1.546,0,0,1,2.182,0l1.091,1.091,6.695-6.695a11.906,11.906,0,0,0,1.023,1.159,11.89,11.89,0,0,0,1.16,1.022ZM212.6-642.493l-.619-.119-1.07.71c-4.833,3.212-6.915,4.394-9.962,1.348s-1.864-5.13,1.348-9.962l.71-1.07-.119-.619a20.066,20.066,0,0,1,2.588-14.285,12.47,12.47,0,0,0,.285,1.492c.937,3.685,3.543,7.684,7.745,11.886s8.2,6.808,11.887,7.746a12.577,12.577,0,0,0,1.491.286,20.065,20.065,0,0,1-14.284,2.588Zm19.643-7.158,0,0c-1.5,1.5-3.552,1.937-6.088,1.292-3.1-.787-6.714-3.186-10.465-6.937s-6.149-7.37-6.937-10.465c-.645-2.537-.21-4.586,1.294-6.089,1.658-1.658,3.826-1.87,6.089-1.294,3.1.787,6.714,3.185,10.465,6.936s6.15,7.37,6.937,10.465c.646,2.537.21,4.585-1.293,6.089Zm0,0" transform="translate(-184.239 676.508)" fill="#3bab74"/>
      <path id="Path_569" data-name="Path 569" d="M416.179-605.312a11.551,11.551,0,0,0-4.328-2.82c-1.82-.606-3.383-.38-4.4.638s-1.245,2.581-.637,4.4a11.552,11.552,0,0,0,2.82,4.328,11.546,11.546,0,0,0,4.329,2.82,6,6,0,0,0,1.888.333,3.444,3.444,0,0,0,2.513-.971c1.018-1.018,1.244-2.581.637-4.4a11.551,11.551,0,0,0-2.82-4.328Zm0,6.547c-.038.038-.406.171-1.242-.108a8.566,8.566,0,0,1-3.122-2.074,8.56,8.56,0,0,1-2.074-3.122c-.279-.837-.146-1.2-.108-1.242a.628.628,0,0,1,.345-.065,2.9,2.9,0,0,1,.9.173A8.57,8.57,0,0,1,414-603.13a8.571,8.571,0,0,1,2.074,3.122c.279.837.146,1.2.108,1.242Zm0,0" transform="translate(-375.999 617.798)" fill="#3bab74"/>
    </g>
    <g id="Group_421" data-name="Group 421" transform="translate(116.154 285.813)">
      <path id="Path_570" data-name="Path 570" d="M-288.124-763.062l.012-3.778a8.21,8.21,0,0,0-2.4-5.854,8.249,8.249,0,0,0-2.7-1.817l-.013-1.562a12.394,12.394,0,0,0-2.963-7.9,11.705,11.705,0,0,0-1.973-1.858,9.764,9.764,0,0,0-2.721-6.246,10.022,10.022,0,0,0-7.132-3.121l-.119,0c-.052,0-5.309.314-8.347-2.468l-1.484-1.359-1.056,1.712a12.776,12.776,0,0,0-.926,10.212,10.535,10.535,0,0,0-6.648,9.739v.018l.048,2.738a8.254,8.254,0,0,0-2.614,1.754,8.211,8.211,0,0,0-2.444,5.836l-.013,3.833-3.1-.926,7.311,21.813h35.449l7.31-21.813Zm-28.762-30.8a17.394,17.394,0,0,0,8.912,1.992,6.774,6.774,0,0,1,4.692,2.1,6.514,6.514,0,0,1,1.414,2.238,8.854,8.854,0,0,0-1.824-.2l-12.341-.1h-.042q-.3,0-.593.017a9.5,9.5,0,0,1-.218-6.044Zm.8,9.355h.029l12.341.1c4.051.016,7.176,4.489,7.161,8.327l.008.936-26.683-.1-.037-2.116a7.2,7.2,0,0,1,7.181-7.144ZM-328.274-767a4.906,4.906,0,0,1,1.46-3.485,4.888,4.888,0,0,1,3.5-1.432l26.96.106a4.9,4.9,0,0,1,3.485,1.459,4.906,4.906,0,0,1,1.432,3.5l-.015,4.786-3.141.939-5.105-2.285-4.989,2.233-4.989-2.233-4.989,2.233-4.989-2.233-5.1,2.285-3.527-1.054Zm12.025,8.758,1.013,12.622h-3.473l-3.916-12.82,2.967-1.328Zm3.333-.077,3.236-1.448,3.237,1.448-1.02,12.7H-311.9Zm9.805.077,3.409-1.526,2.95,1.32-3.919,12.828h-3.453Zm-26.407-.836,3.541,1.059,3.788,12.4h-2.819Zm35.169,13.458h-2.842l3.786-12.392,3.566-1.066Zm0,0" transform="translate(334.714 799.017)" fill="#025e2b"/>
    </g>
  </g>
</svg>
