<svg xmlns="http://www.w3.org/2000/svg" viewBox="0 0 128.22 128.22"><defs><style>.cls-1{fill:#008048;}.cls-2{fill:#75c04a;}.cls-3{fill:#61b051;}.cls-10,.cls-11,.cls-3,.cls-4,.cls-5,.cls-6,.cls-7,.cls-8,.cls-9{fill-rule:evenodd;}.cls-4{fill:#eaebed;}.cls-5{fill:#59a74e;}.cls-6{fill:#7dbb54;}.cls-7{fill:#dcdfe4;}.cls-8{fill:#9ac588;}.cls-9{fill:#75b452;}.cls-10{fill:#519e4d;}.cls-11{fill:#c4c9d0;}</style></defs><g id="Layer_2" data-name="Layer 2"><g id="Layer_1-2" data-name="Layer 1"><path class="cls-1" d="M128.22,64.11A64.11,64.11,0,1,1,64.11,0,64.11,64.11,0,0,1,128.22,64.11Z"/><path class="cls-2" d="M122.93,64.11A58.82,58.82,0,1,1,64.11,5.29,58.81,58.81,0,0,1,122.93,64.11Z"/><path class="cls-1" d="M118.35,64.11A54.24,54.24,0,1,1,64.11,9.88,54.25,54.25,0,0,1,118.35,64.11Z"/><g id="DNNETu"><path class="cls-3" d="M63.6,44.21a2.85,2.85,0,0,1,.17,1.23V68.06h-.05a1.4,1.4,0,0,1-.1-.39c0-.77-.16-1.52-.19-2.29s-.25-1.29-.28-1.94c-.09-1.51-.52-3-.74-4.45-.13-.88-.41-1.74-.6-2.61s-.47-1.66-.68-2.49c-.32-1.28-.71-2.52-1.14-3.76s-.81-2.42-1.34-3.59c-.1-.21,0-.49-.25-.64a.49.49,0,0,1-.25-.33,9.2,9.2,0,0,1-.53-1.44c-.69-1.69-1.52-3.31-2.37-4.92s-1.7-3.05-2.64-4.53c-.15-.25-.13-.36.11-.52q2-1.3,4-2.65c.22-.15.33-.12.46.08a4.9,4.9,0,0,1,.93,1.33c1.35,2.22,2.57,4.51,3.69,6.85.63,1.32,1.24,2.65,1.77,4C63.61,43.91,63.72,44.05,63.6,44.21Z"/><path class="cls-4" d="M66.64,98.31a2.85,2.85,0,0,1-1.8-.17c-.61-.16-1.2-.39-1.8-.56-.18,0-.45-.14-.45.22A8.11,8.11,0,0,1,61.33,95a8,8,0,0,1-.14-3,15,15,0,0,1,.63-3c.27-.78.5-1.56.75-2.34s.45-1.54.71-2.29a8.24,8.24,0,0,0,.47-3.8c-.1-.83.08-1.62,0-2.44s0-1.62,0-2.44c.93-.09,1.87,0,2.8,0a.18.18,0,0,1,.13.09,1.45,1.45,0,0,1,.07.62c0,1.07,0,2.13,0,3.2,0,4.14,0,8.29,0,12.44,0,1.88,0,3.75,0,5.63a1.36,1.36,0,0,1-.08.66Z"/><path class="cls-5" d="M75.89,33.86a1.18,1.18,0,0,1-.11.69c-1,3.12-1.88,6.26-2.6,9.46,0,.13,0,.27-.06.41s.07.26,0,.39c-.42,1.56-.73,3.14-1,4.72s-.55,2.94-.77,4.42c-.24,1.65-.51,3.3-.7,4.95a10,10,0,0,1-.15,1.46c-.22.25-.18.41.07.64a9.28,9.28,0,0,1,.78.58c-.51,2-1,3.93-1.52,5.89-.27-.09-.21-.33-.21-.53,0-1,0-2.07,0-3.11a5.09,5.09,0,0,0-.06-.87,2.29,2.29,0,0,1,0-.64c.22-.39.35-.42.63-.1,0-.25-.1-.3-.29-.32s-.27,0-.26-.25c.07-1,0-2,0-3,0-5,0-10.08,0-15.12,0-1.72,0-3.43,0-5.14a3.74,3.74,0,0,1,.08-.75c.42-1.64.91-3.26,1.44-4.86,0-.15.08-.34.3-.35C72.91,32.93,74.38,33.45,75.89,33.86Z"/><path class="cls-6" d="M53,40.85c-.25.1-.43.36-.75.34a.1.1,0,0,0-.09,0c-.18.31-.24.33-.5.08a1,1,0,0,0-.38-.16c-.1,0-.19,0-.25.06a.21.21,0,0,0,0,.27,4.15,4.15,0,0,1,.27.32c0,.08.18.16.1.25s-.2,0-.29,0A.3.3,0,0,0,51,42a.71.71,0,0,1-.39.73c-.12.07-.15.15,0,.27s.17.19,0,.27-.24,0-.3-.14-.29-.52-.61-.59L51.34,40c.15-.24.31-.21.48-.06A14.73,14.73,0,0,1,53,40.85Z"/><path class="cls-7" d="M63.8,31l0,4.29c0,.2,0,.39,0,.59-.1-.1-.06-.24-.06-.36,0-1.38,0-2.76,0-4.14C63.69,31.24,63.63,31.08,63.8,31Z"/><path class="cls-6" d="M49.18,43.19a.73.73,0,0,1,.17.88C48.79,43.72,48.79,43.7,49.18,43.19Z"/><path class="cls-7" d="M66.63,75.64H63.77a.28.28,0,0,1,0-.09l2.85,0s0,0,0,.05A0,0,0,0,1,66.63,75.64Z"/><path class="cls-8" d="M49.51,42.76c.14.21.28.41.64.3-.19.3-.39.27-.57.14a.35.35,0,0,0-.33-.1A.73.73,0,0,1,49.51,42.76Z"/><path class="cls-6" d="M66.75,63.13c.06.19,0,2.91,0,3.1,0,1.58,0,3.16,0,4.74,0,.48.07,1,0,1.43,0,.84,0,1.68,0,2.52,0,.28.22.41.26.64a.49.49,0,0,1-.37.12H64.28a.61.61,0,0,1-.5-.13c0-1.59,0-3.17,0-4.76A22.71,22.71,0,0,0,63,65.41a38,38,0,0,0-3.92-10.07,37.58,37.58,0,0,0-5.25-7.21,29.78,29.78,0,0,0-4.29-3.88,1.45,1.45,0,0,1-.17-.18c-.06-.3-.09-.6-.17-.88l.07-.09c.22-.2.37,0,.56.1-.13-.14-.35-.2-.3-.44a.41.41,0,0,1,.17-.24c.45-.09.51.35.79.59-.16-.37.12-.5.29-.68s0-.6.46-.53c0-.17-.17-.25-.25-.38a.32.32,0,0,1,0-.36c.08-.12.21-.08.33-.12.29-.07.42.52.77.17s.55-.19.77-.39a.11.11,0,0,1,.15,0l1.37,1.09a30.5,30.5,0,0,1,3.8,3.74.6.6,0,0,0,.39.25c.42.88.73,1.79,1.06,2.7.58,1.55,1.11,3.13,1.56,4.72s.83,3.14,1.18,4.73.63,2.89.82,4.34a33,33,0,0,1,.54,5.06,2.18,2.18,0,0,1,0,.27c0-.7,0-1.42,0-2.14q0-9,0-17.91a31.1,31.1,0,0,0-.07-3.48.83.83,0,0,0,.07-.41c0-1.81,0-3.62,0-5.43A13,13,0,0,1,63.75,36v-.09c0-1.59,0-3.18,0-4.77,0-.06,0-.07.07-.11h5.36c.18,0,.39-.19.5.1a.88.88,0,0,1-.57.11c-.62,0-1.24,0-1.85,0-.33,0-.48.09-.51.44a10.66,10.66,0,0,0,0,1.13,14.56,14.56,0,0,1-.06,2,14.43,14.43,0,0,0,0,2c0,.85,0,1.71,0,2.56,0,1.82.08,3.64,0,5.47,0,.8,0,1.62,0,2.43,0,1.26,0,2.52,0,3.78,0,1.56,0,3.11,0,4.67,0,1.2.07,2.41,0,3.61-.1,1.56,0,3.11,0,4.66,0,.14.07.28-.07.38l-.11,1.27a5.16,5.16,0,0,0,.08.78c0,1.44,0,2.87,0,4.31,0,.25-.1.48-.08.75a17.89,17.89,0,0,1,0,3.51c0,.35,0,.56.39.64a.27.27,0,0,0,.25.13c.72,0,1.43,0,2.15,0a.36.36,0,0,0,.37-.22c0-2.66-.09-5.33.1-8-.14-.12-.08-.29-.08-.44q0-1.73,0-3.45c0-.23,0-3.21-.09-.66"/><path class="cls-9" d="M66.65,75.62c0-.64,0-13,0-13.67-.14-1.4.07-2.79,0-4.19s0-2.54,0-3.81c-.06-1,0-2,0-3,0-1.25.07-2.52,0-3.77,0-.78,0-1.56,0-2.33,0-1.27.06-2.55,0-3.82,0-.71,0-1.43,0-2.16,0-.4.11-.83,0-1.24-.12-.75.07-1.49-.06-2.25a19,19,0,0,1,.07-2.13c0-.67-.08-1.33,0-2,0-.26.17-.18.28-.18h2.78c.15.13.08.31.08.47,0,1.82,0,3.63,0,5.45,0,.18-.08.39.09.55a8.56,8.56,0,0,0-.08,1.75V58.54c0,.86,0,1.72,0,2.58,0,.21.32.45-.07.62.11.1.18,0,.26,0a.37.37,0,0,1,.37.51.31.31,0,0,1-.31.23.17.17,0,0,1-.14-.07c-.08-.17.16-.15.2-.29-.23-.09-.36-.05-.4.2,0,0,.08,12.44,0,12.43"/><path class="cls-10" d="M70.43,60.47c.06-1.18.19-2.36.35-3.53s.35-2.53.58-3.79c.16-.87.28-1.75.47-2.63s.31-2,.55-2.9a17.63,17.63,0,0,1,.72-2.95,1.06,1.06,0,0,0,0-.25c.4-.84.81-1.66,1.18-2.51.14-.32.28-.32.56-.18,1,.52,2.06,1,3.1,1.52.25.12.3.23.18.5-1.27,2.61-2.41,5.28-3.45,8-.92,2.38-1.77,4.78-2.51,7.22l-.82,2.63-1.52,5.89s-.5-4.94.59-7"/><path class="cls-11" d="M67,75.53l2.47,0a.37.37,0,0,0,.3-.1c0,2,.05,4,0,5.94a10,10,0,0,0,.52,3.21l.93,3.13c.11.35.23.69.37,1A8.45,8.45,0,0,1,72.1,91a12.63,12.63,0,0,1,.19,2.46,6.76,6.76,0,0,1-.22,1.57,8.08,8.08,0,0,1-1.56,3.11c-.08.1-.08.1-.43-.12a.64.64,0,0,1-.28.81c-.46.25-.81.68-1.32.81s-.75.45-1.2.2c0,0-.08,0-.12,0-.53.13-.53.13-.53-.41,0-.39,0-.79,0-1.18h0a1.64,1.64,0,0,1,.77-.63,5.12,5.12,0,0,0,2.93-4,8.15,8.15,0,0,0-.25-3.5c-.33-1.23-.7-2.46-1-3.7A37,37,0,0,1,68.43,82c-.09-1.27-.17-2.54-.29-3.81a17,17,0,0,1,0-2c0-.38-.13-.45-.46-.45s-.7.11-1-.11h0a.09.09,0,0,0,0-.07Z"/><path class="cls-7" d="M66.64,75.64H68c.17,0,.25,0,.23.25a30.31,30.31,0,0,0,.11,3.81c.06.8.16,1.61.2,2.41a18.65,18.65,0,0,0,.25,2,46.26,46.26,0,0,0,1,4.81c.15.57.33,1.13.45,1.69A7,7,0,0,1,69.62,96a5.13,5.13,0,0,1-2.14,1.83c-.3.15-.53.41-.84.53Z"/><path class="cls-4" d="M61.46,95.45s.17,4.2,5.32,4.52V94.73Z"/><path class="cls-11" d="M66.78,100s4.06.25,5.29-4.9-1.14-5.31-1.14-5.31v5.39l-1.85,2.61-2.36.51Z"/></g></g></g></svg>