<svg xmlns="http://www.w3.org/2000/svg" width="42" height="42" viewBox="0 0 42 42">
  <g id="Group_186" data-name="Group 186" transform="translate(-281 -323)">
    <circle id="Ellipse_13" data-name="Ellipse 13" cx="21" cy="21" r="21" transform="translate(281 323)" fill="rgba(2,94,43,0.2)"/>
    <g id="Group_200" data-name="Group 200" transform="translate(399 500)">
      <path id="Path_347" data-name="Path 347" d="M-91.365-167h-10.83A1.807,1.807,0,0,0-104-165.195v17.148a1.807,1.807,0,0,0,1.805,1.805v.451a.451.451,0,0,0,.451.451h.9a.451.451,0,0,0,.451-.451v-.451h7.22v.451a.451.451,0,0,0,.451.451h.9a.451.451,0,0,0,.451-.451v-.451a1.807,1.807,0,0,0,1.805-1.805v-17.148A1.807,1.807,0,0,0-91.365-167Zm.9,18.953a.9.9,0,0,1-.9.9h-10.83a.9.9,0,0,1-.9-.9V-159.78h12.635Zm0-12.635H-103.1v-4.513a.9.9,0,0,1,.9-.9h10.83a.9.9,0,0,1,.9.9Zm0,0" fill="#025e2b" stroke="#025e2b" stroke-width="0.8"/>
      <path id="Path_348" data-name="Path 348" d="M-68.843-110.549h-1.805a.45.45,0,0,0-.132-.319.451.451,0,0,0-.638,0l-.451.451a.451.451,0,0,0-.1.492.451.451,0,0,0,.417.279h2.708a.451.451,0,0,0,.451-.451.451.451,0,0,0-.451-.451Zm0,0" transform="translate(-29.193 -52.841)" fill="#025e2b" stroke="#025e2b" stroke-width="0.8"/>
      <path id="Path_349" data-name="Path 349" d="M-71.551-13.646h2.708a.451.451,0,0,0,.451-.451.451.451,0,0,0-.451-.451h-1.805a.45.45,0,0,0-.132-.319.451.451,0,0,0-.638,0l-.451.451a.451.451,0,0,0-.1.492.451.451,0,0,0,.417.279Zm0,0" transform="translate(-29.193 -143.426)" fill="#025e2b" stroke="#025e2b" stroke-width="0.8"/>
    </g>
  </g>
</svg>
