<svg xmlns="http://www.w3.org/2000/svg" xmlns:xlink="http://www.w3.org/1999/xlink" width="182" height="120" viewBox="0 0 182 120">
  <defs>
    <clipPath id="clip-path">
      <rect id="Rectangle_32" data-name="Rectangle 32" width="182" height="120" rx="5" transform="translate(212 316)" fill="#fff"/>
    </clipPath>
  </defs>
  <g id="Mask_Group_7" data-name="Mask Group 7" transform="translate(-212 -316)" clip-path="url(#clip-path)">
    <g id="Group_204" data-name="Group 204" transform="translate(312.551 500)">
      <path id="Path_347" data-name="Path 347" d="M-54.222-167H-96.889A7.118,7.118,0,0,0-104-159.889v67.556a7.118,7.118,0,0,0,7.111,7.111v1.778a1.777,1.777,0,0,0,1.778,1.778h3.556a1.777,1.777,0,0,0,1.778-1.778v-1.778h28.444v1.778a1.777,1.777,0,0,0,1.778,1.778H-56a1.777,1.777,0,0,0,1.778-1.778v-1.778a7.118,7.118,0,0,0,7.111-7.111v-67.556A7.118,7.118,0,0,0-54.222-167Zm3.556,74.667a3.56,3.56,0,0,1-3.556,3.556H-96.889a3.56,3.56,0,0,1-3.556-3.556v-46.222h49.778Zm0-49.778h-49.778v-17.778a3.56,3.56,0,0,1,3.556-3.556h42.667a3.56,3.56,0,0,1,3.556,3.556Zm0,0" transform="translate(0 0)" fill="#f2f3f7" stroke="#f2f3f7" stroke-width="0.8"/>
      <path id="Path_348" data-name="Path 348" d="M-59.557-109.222h-7.111a1.771,1.771,0,0,0-.521-1.257,1.777,1.777,0,0,0-2.514,0l-1.778,1.778a1.776,1.776,0,0,0-.386,1.937,1.776,1.776,0,0,0,1.642,1.1h10.667a1.777,1.777,0,0,0,1.778-1.778,1.777,1.777,0,0,0-1.778-1.778Zm0,0" transform="translate(-20.948 -43.556)" fill="#f2f3f7" stroke="#f2f3f7" stroke-width="0.8"/>
      <path id="Path_349" data-name="Path 349" d="M-70.224-9.666h10.667a1.777,1.777,0,0,0,1.778-1.778,1.777,1.777,0,0,0-1.778-1.778h-7.111a1.771,1.771,0,0,0-.521-1.257,1.777,1.777,0,0,0-2.514,0L-71.481-12.7a1.776,1.776,0,0,0-.386,1.937,1.776,1.776,0,0,0,1.642,1.1Zm0,0" transform="translate(-20.948 -118.222)" fill="#f2f3f7" stroke="#f2f3f7" stroke-width="0.8"/>
    </g>
  </g>
</svg>
