<svg xmlns="http://www.w3.org/2000/svg" xmlns:xlink="http://www.w3.org/1999/xlink" width="346.712" height="293.487" viewBox="0 0 346.712 293.487">
  <defs>
    <clipPath id="clip-path">
      <path id="Path_204" data-name="Path 204" d="M86.834,219.408c4.419-.237,9.728.221,11.884,4.084,1.029,1.838,1.062,4.043,1.07,6.15q.037,8.491.065,16.973a6.106,6.106,0,0,1-.572,3.186c-.858,1.429-2.679,1.887-4.313,2.246a208.6,208.6,0,0,0-52.275,18.876,24.234,24.234,0,0,1-6.779,2.744,7.623,7.623,0,0,1-6.82-1.8c-1.438-1.5-1.919-3.651-2.3-5.693q-1.715-9.054-2.589-18.231c-1.282-13.469,13.191-16.867,23.614-20.616A136.591,136.591,0,0,1,86.834,219.408Z" transform="translate(-24.122 -219.357)"/>
    </clipPath>
    <clipPath id="clip-path-2">
      <ellipse id="Ellipse_2" data-name="Ellipse 2" cx="157.569" cy="27.526" rx="157.569" ry="27.526"/>
    </clipPath>
    <clipPath id="clip-path-3">
      <ellipse id="Ellipse_4" data-name="Ellipse 4" cx="71.135" cy="14.841" rx="71.135" ry="14.841"/>
    </clipPath>
  </defs>
  <g id="Group_158" data-name="Group 158" transform="translate(-24.122 0.003)">
    <path id="Path_169" data-name="Path 169" d="M343.64,79.833q27.6.11,55.15-.27c1.152-20.379,1.674-40.791-.114-61.1L344.7,17.92Q343.869,48.77,343.64,79.833Z" transform="translate(-58.536 -3.283)" fill="#d6effb"/>
    <path id="Path_170" data-name="Path 170" d="M326.57,79.68q.233-31.034,1.07-61.938-28.253-.282-56.506-.572c-1.4-.016-2.434,30.842-3.1,61.66Q297.226,79.541,326.57,79.68Z" transform="translate(-44.684 -3.146)" fill="#d6effb"/>
    <path id="Path_171" data-name="Path 171" d="M326.342,97.433q-29.331-.147-58.581-.833c-.564,26.938-.849,53.027-.841,57.543a1.173,1.173,0,0,0,1.421,1.421q29.1.784,58.2,1.56Q326.158,127.328,326.342,97.433Z" transform="translate(-44.481 -17.698)" fill="#d6effb"/>
    <path id="Path_172" data-name="Path 172" d="M356.273,97.624c-4.223,0-8.454-.033-12.677-.049q-.184,29.907.2,59.749,25.325.674,50.658,1.356,1.421-20.681,2.834-41.363c.457-6.657.907-13.322,1.307-19.987Q377.469,97.612,356.273,97.624Z" transform="translate(-58.517 -17.832)" fill="#d6effb"/>
    <path id="Path_173" data-name="Path 173" d="M405.511,73.86a69.634,69.634,0,0,1-11.582,4.46c-6.714,2.165-13.543,6.257-17.659,11.746q7.633-.037,15.266-.106a30.965,30.965,0,0,1,6.534-4.166c1.389-.662,4.035-1.527,7.049-2.606Q405.34,78.532,405.511,73.86Z" transform="translate(-64.514 -13.532)" fill="#e6f5fc"/>
    <path id="Path_174" data-name="Path 174" d="M368.312,97.622a16.9,16.9,0,0,0-1.862,8.585c.172,3.284,1.331,6.469,1.47,9.753.319,7.376-4.468,13.951-9.589,19.26s-11,10.267-13.886,17.063a17.749,17.749,0,0,0-.645,1.854c.016,1.078.016,2.156.033,3.235q12.142.319,24.275.645a41.807,41.807,0,0,1,4.868-20.15c3.169-5.9,7.915-11.484,7.907-18.174,0-4.476-2.2-8.748-2.066-13.216a14.924,14.924,0,0,1,3.553-8.936Q375.349,97.589,368.312,97.622Z" transform="translate(-58.565 -17.87)" fill="#e6f5fc"/>
    <path id="Path_175" data-name="Path 175" d="M399.838,44.827c-.049-8.772-.384-17.537-1.152-26.293q-10-.1-20-.2c.662,1,1.266,1.952,1.756,2.842,1.356,2.483,2.516,5.342,1.813,8.078a11.659,11.659,0,0,1-3.39,5.064c-9.728,9.744-22.2,15.634-34.934,21.229q-.184,12.166-.286,24.349c3.2.016,6.4.016,9.606.016a19.584,19.584,0,0,1,.5-3.136c2.23-8.985,10.6-15.078,19.056-18.852S390.477,51.8,398,46.4A10.8,10.8,0,0,0,399.838,44.827Z" transform="translate(-58.538 -3.359)" fill="#e6f5fc"/>
    <path id="Path_176" data-name="Path 176" d="M331.253,88.559q.086-11.468.261-22.919c-11.974,5.236-23.989,10.48-33.979,18.68a33.385,33.385,0,0,0-3.945,3.823Q312.4,88.449,331.253,88.559Z" transform="translate(-49.367 -12.026)" fill="#e6f5fc"/>
    <path id="Path_177" data-name="Path 177" d="M326.342,97.517q-20.044-.1-40.048-.457c-2.72,4.182-4.01,8.936-1.895,13.289,1.821,3.741,5.669,5.954,8.838,8.65s5.954,6.886,4.517,10.79a10.425,10.425,0,0,1-3.782,4.452c-6.436,4.884-14.335,7.343-21.6,10.863-1.846.89-3.643,1.87-5.407,2.9-.033,3.03-.041,5.187-.041,6.216a1.173,1.173,0,0,0,1.421,1.421q28.265.76,56.539,1.511c0-.229-.008-.449-.008-.678a38.382,38.382,0,0,1,1.544-10.038Q326.207,122.005,326.342,97.517Z" transform="translate(-44.481 -17.782)" fill="#e6f5fc"/>
    <path id="Path_178" data-name="Path 178" d="M356.845,109.8A31.081,31.081,0,0,1,353.2,97.671q-4.8-.012-9.606-.041-.135,20.926.025,41.845a24.033,24.033,0,0,1,3.267-4.182c5.219-5.309,13.649-9.467,13.314-16.9C360.063,115.3,358.283,112.553,356.845,109.8Z" transform="translate(-58.517 -17.886)" fill="#e6f5fc"/>
    <g id="Group_64" data-name="Group 64" transform="translate(329.92 165.938)">
      <path id="Path_179" data-name="Path 179" d="M398.836,241.508a8.662,8.662,0,0,1-.057-4.427c.482-1.413,2-2.589,3.431-2.14.539.163,1,.539,1.536.67a2.716,2.716,0,0,0,2.916-1.911,11.249,11.249,0,0,0,.351-3.782,17.853,17.853,0,0,1,2.548-8.887.925.925,0,0,1,1.536-.074h0a.912.912,0,0,0,1.6-.221,39.02,39.02,0,0,1,4.7-9.254,1.342,1.342,0,0,1,2.361.31h0a1.329,1.329,0,0,0,2.271.4,50.242,50.242,0,0,1,9.32-8.683,1.854,1.854,0,0,1,2.736,2.312,14.475,14.475,0,0,1-.833,1.536l-4.7,7.694a1.164,1.164,0,0,0,1.266,1.74c.025-.008.049-.008.074-.016a1.345,1.345,0,0,1,1.25,2.271,70.032,70.032,0,0,0-5.326,5.685.883.883,0,0,0,.76,1.446,6.788,6.788,0,0,1,1.576.033,2.135,2.135,0,0,1,.988,3.782,69.737,69.737,0,0,0-8.413,8.021,1.819,1.819,0,0,0,1,3.014c.025,0,.049.008.065.008a1.452,1.452,0,0,1,.588,2.589q-5.673,4.3-11.215,8.781c-3.071,2.483-7,6.485-9.851,9.124C401.36,258.285,399.588,245.551,398.836,241.508Z" transform="translate(-398.508 -203.157)" fill="#c5d621"/>
    </g>
    <g id="Group_65" data-name="Group 65" transform="translate(330.232 215.918)">
      <path id="Path_180" data-name="Path 180" d="M404.305,277a6.222,6.222,0,0,1,1.5-2.81,2.176,2.176,0,0,1,2.908-.163c.278.294.441.686.735.956a1.955,1.955,0,0,0,2.5-.2,8.081,8.081,0,0,0,1.536-2.263,12.745,12.745,0,0,1,4.7-4.713.667.667,0,0,1,1,.49h0a.659.659,0,0,0,1.086.417,27.891,27.891,0,0,1,6.183-4.2.965.965,0,0,1,1.38,1.021h0a.959.959,0,0,0,1.291,1.046,36.03,36.03,0,0,1,8.9-2.23,1.333,1.333,0,0,1,.915,2.41,10.071,10.071,0,0,1-1.062.678l-5.644,3.218a.837.837,0,0,0,.2,1.536.514.514,0,0,0,.057.016.971.971,0,0,1,0,1.87,50.771,50.771,0,0,0-5.334,1.732.635.635,0,0,0-.025,1.176,5.084,5.084,0,0,1,.98.564,1.535,1.535,0,0,1-.694,2.728,50.248,50.248,0,0,0-8.094,2.132,1.31,1.31,0,0,0-.425,2.246c.016.008.025.025.041.033a1.045,1.045,0,0,1-.531,1.838q-5.072.735-10.128,1.634c-2.8.5-6.673,1.658-9.385,2.328A134.44,134.44,0,0,0,404.305,277Z" transform="translate(-398.89 -264.347)" fill="#c5d621"/>
    </g>
    <g id="Group_66" data-name="Group 66" transform="translate(324.939 181.19)">
      <path id="Path_181" data-name="Path 181" d="M393.259,305.634l-.849-.025c.719-27.681,12.113-61.35,28.351-83.779l.686.5C405.307,244.635,393.978,278.107,393.259,305.634Z" transform="translate(-392.41 -221.83)" fill="#a3aa17"/>
    </g>
    <g id="Group_67" data-name="Group 67" transform="translate(326.548 223.696)">
      <path id="Path_182" data-name="Path 182" d="M395.156,298.791l-.776-.351c7.76-17.283,24.226-22.209,32.149-24.569l.245.817C418.974,277.015,402.752,281.866,395.156,298.791Z" transform="translate(-394.38 -273.87)" fill="#a3aa17"/>
    </g>
    <path id="Path_183" data-name="Path 183" d="M310.241,303.575C225.032,289.7,138.019,289.5,52.034,297.139c-7.351.653-16,2.246-19.072,8.993-2.254,4.942-.351,11.027,3.324,15.021s8.789,6.289,13.845,8.209c22.911,8.658,47.521,11.55,71.854,14.2,63.106,6.869,203.081,5.6,223.427-24.087,3.529-5.146,2.7-13.379-2.532-16.736-1.789-.074-4.484-.131-6.265-.2C328.513,302.195,318.237,304.874,310.241,303.575Z" transform="translate(-1.442 -53.513)" fill="#7d512c"/>
    <g id="Group_68" data-name="Group 68" transform="translate(151.059 32.707)">
      <path id="Path_184" data-name="Path 184" d="M188.9,40.327a109.632,109.632,0,0,1,2.777,22,97.349,97.349,0,0,1-12.146-.735,177.1,177.1,0,0,1,3.4-21.2C183.573,40.269,187.812,39.714,188.9,40.327Z" transform="translate(-179.53 -40.043)" fill="#d6effb"/>
      <path id="Path_185" data-name="Path 185" d="M182.693,48.177c-.31,2.263-.629,4.517-.939,6.779A6.237,6.237,0,0,0,182,58.673c.237.466.76.9,1.233.686.351-.163.466-.6.539-.98a97.366,97.366,0,0,0,1.193-12.048,14.364,14.364,0,0,0-.139-3.929c-.131-.58-.539-.711-.849-.229a6.62,6.62,0,0,0-.588,1.944C183.077,45.465,182.889,46.821,182.693,48.177Z" transform="translate(-179.908 -40.38)" fill="#fff"/>
    </g>
    <g id="Group_69" data-name="Group 69" transform="translate(165.672 32.707)">
      <path id="Path_186" data-name="Path 186" d="M206.789,40.327a109.632,109.632,0,0,1,2.777,22,97.35,97.35,0,0,1-12.146-.735,175.474,175.474,0,0,1,3.4-21.2C201.463,40.269,205.7,39.714,206.789,40.327Z" transform="translate(-197.42 -40.043)" fill="#d6effb"/>
      <path id="Path_187" data-name="Path 187" d="M200.583,48.177c-.31,2.263-.629,4.517-.939,6.779a6.238,6.238,0,0,0,.245,3.716c.237.466.76.9,1.233.686.351-.163.466-.6.539-.98a97.372,97.372,0,0,0,1.193-12.048,14.365,14.365,0,0,0-.139-3.929c-.131-.58-.531-.711-.849-.229a6.62,6.62,0,0,0-.588,1.944C200.967,45.465,200.771,46.821,200.583,48.177Z" transform="translate(-197.798 -40.38)" fill="#fff"/>
    </g>
    <g id="Group_70" data-name="Group 70" transform="translate(180.276 32.707)">
      <path id="Path_188" data-name="Path 188" d="M224.669,40.327a109.632,109.632,0,0,1,2.777,22,97.349,97.349,0,0,1-12.146-.735,177.1,177.1,0,0,1,3.4-21.2C219.351,40.269,223.59,39.714,224.669,40.327Z" transform="translate(-215.3 -40.043)" fill="#d6effb"/>
      <path id="Path_189" data-name="Path 189" d="M218.473,48.177c-.31,2.263-.629,4.517-.939,6.779a6.237,6.237,0,0,0,.245,3.716c.237.466.76.9,1.233.686.351-.163.466-.6.539-.98a97.372,97.372,0,0,0,1.193-12.048,14.365,14.365,0,0,0-.139-3.929c-.131-.58-.531-.711-.849-.229a6.62,6.62,0,0,0-.588,1.944C218.857,45.465,218.661,46.821,218.473,48.177Z" transform="translate(-215.68 -40.38)" fill="#fff"/>
    </g>
    <g id="Group_85" data-name="Group 85" transform="translate(24.122 179.17)">
      <g id="Group_71" data-name="Group 71">
        <path id="Path_190" data-name="Path 190" d="M43.664,302.328a60.125,60.125,0,0,0,8.96-1.054q-2.34-15.768-4.435-31.577c-.139-1.046-6.445,2.483-6.91,3.463-.939,2.009-.123,5.93-.057,8.119A125.641,125.641,0,0,0,43.664,302.328Z" transform="translate(-27.183 -228.544)" fill="#442624"/>
        <path id="Path_191" data-name="Path 191" d="M101.154,287.658a60.122,60.122,0,0,0,8.96-1.054q-2.34-15.768-4.435-31.577c-.139-1.046-6.445,2.483-6.91,3.463-.939,2.009-.123,5.93-.057,8.119A125.837,125.837,0,0,0,101.154,287.658Z" transform="translate(-37.716 -225.857)" fill="#442624"/>
        <path id="Path_192" data-name="Path 192" d="M86.834,219.408c4.419-.237,9.728.221,11.884,4.084,1.029,1.838,1.062,4.043,1.07,6.15q.037,8.491.065,16.973a6.106,6.106,0,0,1-.572,3.186c-.858,1.429-2.679,1.887-4.313,2.246a208.6,208.6,0,0,0-52.275,18.876,24.234,24.234,0,0,1-6.779,2.744,7.623,7.623,0,0,1-6.82-1.8c-1.438-1.5-1.919-3.651-2.3-5.693q-1.715-9.054-2.589-18.231c-1.282-13.469,13.191-16.867,23.614-20.616A136.591,136.591,0,0,1,86.834,219.408Z" transform="translate(-24.122 -219.357)" fill="#025e2b"/>
      </g>
      <g id="Group_84" data-name="Group 84">
        <g id="Group_83" data-name="Group 83" clip-path="url(#clip-path)">
          <g id="Group_72" data-name="Group 72" transform="translate(-5.556 2.592)">
            <path id="Path_193" data-name="Path 193" d="M18.022,253.217l-.7-.523c7.368-9.957,19.66-17.259,36.519-21.694.719-.188,1.438-.376,2.165-.555,2.442-.621,4.966-1.266,7.368-2.132,1.7-.621,3.406-1.372,5.056-2.107,4.084-1.805,8.307-3.676,12.832-3.676h.155a32.044,32.044,0,0,1,7.073,1.135,41.857,41.857,0,0,0,5.317,1.029,20.236,20.236,0,0,0,11.125-2.083l.4.776a21.086,21.086,0,0,1-11.615,2.173,41.415,41.415,0,0,1-5.432-1.046,30.829,30.829,0,0,0-6.877-1.111h-.147c-4.345,0-8.478,1.83-12.481,3.6-1.666.735-3.39,1.5-5.113,2.132-2.442.89-4.982,1.536-7.449,2.164-.719.18-1.438.368-2.156.555C37.4,236.228,25.276,243.416,18.022,253.217Z" transform="translate(-17.32 -222.53)" fill="#044920"/>
          </g>
          <g id="Group_73" data-name="Group 73" transform="translate(51.131 4.802)">
            <path id="Path_194" data-name="Path 194" d="M90.78,232.942c-.261,0-.515-.008-.776-.025a4.139,4.139,0,0,1-2.859-1.258,1.822,1.822,0,0,1-.4-1.454,3.123,3.123,0,0,1,1.683-1.968,21,21,0,0,1,4.664-2.41c3.7-1.2,7.613-.335,11.394.506l.18.041c3.733.825,7.662,1.511,11.043.065l.343.8c-3.627,1.544-7.7.841-11.574-.016l-.18-.041c-3.667-.809-7.457-1.65-10.937-.523a20.372,20.372,0,0,0-4.468,2.32c-.6.376-1.193.792-1.282,1.364a.935.935,0,0,0,.221.768,3.26,3.26,0,0,0,2.222.931,24.319,24.319,0,0,0,6.126-.694,38.528,38.528,0,0,1,4.149-.67,38.115,38.115,0,0,1,5.2.016c1.013.049,2.042.074,3.071.1,3.3,0,5.791-.629,7.621-1.911l.506.719c-1.977,1.389-4.639,2.066-8.119,2.075-1.029-.025-2.1-.049-3.12-.1a37.781,37.781,0,0,0-5.089-.016,37.38,37.38,0,0,0-4.051.662A30.14,30.14,0,0,1,90.78,232.942Z" transform="translate(-86.722 -225.236)" fill="#044920"/>
          </g>
          <g id="Group_74" data-name="Group 74" transform="translate(-6.7 10.405)">
            <path id="Path_195" data-name="Path 195" d="M16.761,265.139l-.841-.245c1.176-4.076,4.933-6.739,7.874-8.25,1.38-.711,2.834-1.331,4.239-1.928a41.62,41.62,0,0,0,6-2.932,41.2,41.2,0,0,0,3.676-2.7c.506-.4,1-.792,1.519-1.184a51.863,51.863,0,0,1,23.516-9.957l.694-.1a17.387,17.387,0,0,0,3.733-.817,5.494,5.494,0,0,0,3.161-2.687,1.067,1.067,0,0,0,.123-.694c-.139-.531-1.078-.629-1.478-.653-7.89-.351-15.266,2.981-23.418,7.049-11.4,5.693-21.416,11.108-28.514,19.758l-.678-.555c7.2-8.781,17.308-14.245,28.8-19.987,8.258-4.125,15.748-7.506,23.851-7.139,1.274.057,2.083.523,2.287,1.307a1.911,1.911,0,0,1-.172,1.266,6.184,6.184,0,0,1-3.659,3.161,18.737,18.737,0,0,1-3.912.858l-.686.1a50.9,50.9,0,0,0-23.124,9.793c-.506.384-1,.776-1.5,1.176a42.7,42.7,0,0,1-3.757,2.753,42.9,42.9,0,0,1-6.126,3c-1.389.588-2.826,1.2-4.174,1.895C21.409,258.858,17.856,261.365,16.761,265.139Z" transform="translate(-15.92 -232.096)" fill="#044920"/>
          </g>
          <g id="Group_75" data-name="Group 75" transform="translate(-1.374 12.626)">
            <path id="Path_196" data-name="Path 196" d="M23.093,264.951l-.653-.58a25.471,25.471,0,0,1,5.783-4.876,50.9,50.9,0,0,1,6.926-3.341c1.421-.6,2.883-1.217,4.28-1.9a81.486,81.486,0,0,0,8.527-5.08c4.582-2.989,9.328-6.069,14.735-7.392,1.233-.3,2.5-.506,3.716-.7a38.369,38.369,0,0,0,4.566-.939,39.083,39.083,0,0,0,4.958-1.96,26.862,26.862,0,0,1,7.433-2.5,26.972,26.972,0,0,1,6.886.27,23.8,23.8,0,0,0,7.376.147c.694-.139,1.421-.343,2.116-.539,1.87-.531,3.806-1.086,5.709-.466l-.27.833c-1.65-.539-3.373-.041-5.2.482-.719.2-1.454.417-2.189.555a24.484,24.484,0,0,1-7.645-.139,26.861,26.861,0,0,0-6.665-.27,26.222,26.222,0,0,0-7.188,2.434,40.151,40.151,0,0,1-5.072,2,37.622,37.622,0,0,1-4.672.956c-1.209.2-2.459.4-3.651.694-5.26,1.282-9.94,4.329-14.466,7.278a83.078,83.078,0,0,1-8.625,5.138c-1.421.694-2.9,1.315-4.329,1.919a49.6,49.6,0,0,0-6.8,3.275A24.218,24.218,0,0,0,23.093,264.951Z" transform="translate(-22.44 -234.815)" fill="#044920"/>
          </g>
          <g id="Group_76" data-name="Group 76" transform="translate(-2.297 23.781)">
            <path id="Path_197" data-name="Path 197" d="M23.475,277.99l-.719-.5c3.251-4.721,6.984-9.361,12.211-11.329.76-.286,1.536-.506,2.287-.727.792-.229,1.617-.466,2.393-.768a27.633,27.633,0,0,0,4.762-2.63c.621-.4,1.242-.792,1.87-1.168a69.956,69.956,0,0,1,7.564-3.749c1.536-.686,3.12-1.4,4.639-2.156A13.587,13.587,0,0,0,63.44,251.3a1.69,1.69,0,0,0,.351-.678.685.685,0,0,0-.18-.58,2.409,2.409,0,0,0-1.625-.7c-2.883-.188-5.652,1.576-7.866,2.989-10.594,6.755-21.49,13.4-32.37,19.758l-.441-.751c10.872-6.347,21.76-12.987,32.345-19.734,2.328-1.478,5.219-3.316,8.4-3.12a3.253,3.253,0,0,1,2.246,1.029,1.625,1.625,0,0,1,.368,1.258,2.294,2.294,0,0,1-.515,1.078,14.266,14.266,0,0,1-5.26,3.912c-1.536.768-3.128,1.487-4.672,2.173a71.224,71.224,0,0,0-7.466,3.7c-.621.376-1.233.768-1.846,1.16a28.146,28.146,0,0,1-4.917,2.712c-.809.319-1.65.555-2.467.792-.735.212-1.5.433-2.222.7C30.27,268.866,26.644,273.391,23.475,277.99Z" transform="translate(-21.31 -248.472)" fill="#044920"/>
          </g>
          <g id="Group_77" data-name="Group 77" transform="translate(2.015 15.293)">
            <path id="Path_198" data-name="Path 198" d="M27.333,279.451l-.743-.457c2.328-3.79,4.966-8.086,9-10.757a32.371,32.371,0,0,1,7.319-3.259c1.389-.482,2.818-.988,4.174-1.585a57.851,57.851,0,0,0,6.183-3.357l8.919-5.342a16.687,16.687,0,0,0,4.688-3.618,17.739,17.739,0,0,0,1.519-2.434,22.4,22.4,0,0,1,1.258-2.107c2.344-3.333,6.526-5.415,12.775-6.371a57.868,57.868,0,0,1,11.942-.58c.6.033,1.209.074,1.813.114,4.2.286,8.536.572,11.933-1.617l.474.735c-3.643,2.344-8.127,2.05-12.464,1.756-.6-.041-1.209-.082-1.805-.114a57.272,57.272,0,0,0-11.762.572c-6,.915-9.981,2.883-12.187,6.012a20.191,20.191,0,0,0-1.2,2.017,17.627,17.627,0,0,1-1.6,2.565,17.656,17.656,0,0,1-4.925,3.823l-8.911,5.342a56.638,56.638,0,0,1-6.281,3.414c-1.38.613-2.834,1.119-4.239,1.609a31.614,31.614,0,0,0-7.122,3.161C32.2,271.528,29.62,275.743,27.333,279.451Z" transform="translate(-26.59 -238.08)" fill="#044920"/>
          </g>
          <g id="Group_78" data-name="Group 78" transform="translate(6.916 18.887)">
            <path id="Path_199" data-name="Path 199" d="M33,281.066l-.408-.768c2.6-1.38,5.53-2.949,7.531-5.342.5-.6.956-1.266,1.4-1.911.384-.564.784-1.152,1.225-1.707,2.981-3.765,7.466-5.718,11.8-7.613a46.382,46.382,0,0,0,8.086-4.166,45.721,45.721,0,0,0,6.559-6.012,38.539,38.539,0,0,1,7.972-6.943c5.317-3.137,11.844-3.512,16.924-3.512,1.315,0,2.63.033,3.945.057a61.4,61.4,0,0,0,13.183-.67l.172.858a61.271,61.271,0,0,1-13.379.686c-1.315-.025-2.622-.057-3.929-.057-4.966,0-11.345.359-16.475,3.39a38.062,38.062,0,0,0-7.792,6.8,45.813,45.813,0,0,1-6.69,6.126,47.564,47.564,0,0,1-8.233,4.247c-4.435,1.928-8.617,3.757-11.468,7.351-.417.531-.809,1.1-1.184,1.658a23.477,23.477,0,0,1-1.446,1.977C38.683,278.035,35.669,279.644,33,281.066Z" transform="translate(-32.59 -242.48)" fill="#044920"/>
          </g>
          <g id="Group_79" data-name="Group 79" transform="translate(23.985 21.851)">
            <path id="Path_200" data-name="Path 200" d="M54.012,274.886c-1.127-1.911-.294-4.337,1.111-5.734a11.966,11.966,0,0,1,5.236-2.655l.572-.163a15.518,15.518,0,0,0,4.59-1.87,15.058,15.058,0,0,0,2.1-1.887c.253-.253.5-.506.751-.751a22.082,22.082,0,0,1,5.17-3.708c.392-.2.8-.4,1.2-.588a17.253,17.253,0,0,0,2.785-1.552,17.724,17.724,0,0,0,2.344-2.238c.392-.425.784-.841,1.193-1.25,4.688-4.6,11.3-5.946,16.034-6.273a85.329,85.329,0,0,1,11.933.31c1.756.131,3.578.261,5.366.343l-.041.874c-1.8-.082-3.627-.212-5.391-.343a83.748,83.748,0,0,0-11.811-.31c-4.582.31-10.986,1.609-15.486,6.02-.4.392-.784.809-1.16,1.217a17.682,17.682,0,0,1-2.467,2.344,18.508,18.508,0,0,1-2.932,1.642c-.392.188-.784.376-1.176.58a21.155,21.155,0,0,0-4.966,3.561c-.253.237-.49.49-.735.735a16.122,16.122,0,0,1-2.222,1.985,16.275,16.275,0,0,1-4.844,1.993l-.572.163a11.2,11.2,0,0,0-4.868,2.434c-1.135,1.135-1.862,3.161-.972,4.672Z" transform="translate(-53.487 -246.11)" fill="#044920"/>
          </g>
          <g id="Group_80" data-name="Group 80" transform="translate(45.781 24.508)">
            <path id="Path_201" data-name="Path 201" d="M82.833,264.291c-1.748,0-2.369-.694-2.573-1.307a2.247,2.247,0,0,1,.327-1.854,8.1,8.1,0,0,1,3.847-2.8,13.411,13.411,0,0,0,2.41-1.315,12.181,12.181,0,0,0,1.83-1.789c.31-.343.621-.694.947-1.021A17.7,17.7,0,0,1,99.937,249.6a51.069,51.069,0,0,1,11.288.221l6.788.629-.082.874-6.788-.629a50.353,50.353,0,0,0-11.092-.221,16.811,16.811,0,0,0-9.8,4.362c-.319.319-.613.653-.915.988a13.576,13.576,0,0,1-1.96,1.911,14.761,14.761,0,0,1-2.565,1.4,7.313,7.313,0,0,0-3.463,2.467,1.454,1.454,0,0,0-.245,1.119c.229.686,1.307.76,2.173.7l7.988-.523.057.874-7.988.523C83.144,264.283,82.988,264.291,82.833,264.291Z" transform="translate(-80.172 -249.362)" fill="#044920"/>
          </g>
          <g id="Group_81" data-name="Group 81" transform="translate(53.815 27.047)">
            <path id="Path_202" data-name="Path 202" d="M94.943,262.451a26.684,26.684,0,0,1-3.128-.188c-.988-.123-1.576-.49-1.756-1.095-.253-.858.515-1.576.809-1.846,2.785-2.614,6.249-5.865,10.594-6.649a21.941,21.941,0,0,1,5.571-.049l10.716.817-.065.874-10.716-.817a20.938,20.938,0,0,0-5.35.041c-4.084.735-7.449,3.888-10.153,6.42-.449.417-.637.735-.564.964.09.3.6.425,1.021.474a25,25,0,0,0,6.534-.065l.123.866A25.891,25.891,0,0,1,94.943,262.451Z" transform="translate(-90.008 -252.47)" fill="#044920"/>
          </g>
          <g id="Group_82" data-name="Group 82" transform="translate(59.678 29.593)">
            <path id="Path_203" data-name="Path 203" d="M107.881,261.054c-3.145-.074-6.322-.261-9.45-.547-.678-.057-1.078-.31-1.209-.751a1.215,1.215,0,0,1,.368-1.111,9.576,9.576,0,0,1,5.889-2.9,27.309,27.309,0,0,1,6.485.106l7.155.686-.082.874-7.155-.686a26.872,26.872,0,0,0-6.273-.114,8.685,8.685,0,0,0-5.358,2.614c-.188.212-.18.294-.18.294s.065.09.449.123c3.1.286,6.265.466,9.393.539Z" transform="translate(-97.186 -255.588)" fill="#044920"/>
          </g>
        </g>
      </g>
    </g>
    <rect id="Rectangle_10" data-name="Rectangle 10" width="143.471" height="7.653" transform="translate(52.039 53.206)" fill="#b8773c"/>
    <g id="Group_86" data-name="Group 86" transform="translate(320.52 233.914)">
      <path id="Path_205" data-name="Path 205" d="M392.709,303.476l-.98-.237c.98-4.117.817-7.547-.474-10.2a20.421,20.421,0,0,0-2.148-3.259L387,286.993l.809-.613,2.107,2.785a21.74,21.74,0,0,1,2.254,3.422C393.559,295.463,393.747,299.13,392.709,303.476Z" transform="translate(-387 -286.38)" fill="#442624"/>
    </g>
    <path id="Path_206" data-name="Path 206" d="M389.144,287.356c-1.634-2.156-3.8-4.746-3.8-4.746a14.172,14.172,0,0,0-2.3,2.638.769.769,0,0,0-.188.653.786.786,0,0,0,.319.335c1.1.768,2.205,1.527,3.308,2.3a3.26,3.26,0,0,0,1.74.751A1.286,1.286,0,0,0,389.144,287.356Z" transform="translate(-65.716 -51.775)" fill="#442624"/>
    <path id="Path_207" data-name="Path 207" d="M258.306,50.487c-3.063,7.547-3.578,16.3-.441,23.81,2.018,4.835,5.522,9.279,5.709,14.523.229,6.208-4.239,11.525-5.9,17.512-3,10.839,3.725,22.209,12.4,29.372,3.8,3.137,8.021,5.8,11.3,9.475,5.44,6.118,7.653,14.343,10.431,22.037s6.722,15.683,13.984,19.464c7.858,4.092,17.479,2.173,25.737-1.021,9.385-3.627,18.443-9,24.251-17.218s7.76-19.66,2.916-28.474c-2.1-3.823-5.334-7.008-6.926-11.068-2.214-5.644-.882-12.048,1.135-17.765s4.729-11.313,5.268-17.349A25.265,25.265,0,0,0,351.723,74.7c-5.4-5.889-13.306-8.895-19.048-14.449-5.317-5.154-8.429-12.162-13.24-17.79-8.495-9.957-21.915-14.212-34.7-12.611C271.546,31.5,263.525,37.63,258.306,50.487Z" transform="translate(-42.434 -5.408)" fill="#442624"/>
    <path id="Path_208" data-name="Path 208" d="M325.407,229.98c7.915,6,14.359,20.257,17.332,27.747l15.781,39.794a255.156,255.156,0,0,1-43.927,5.881,3,3,0,0,1-2.05-.425,2.079,2.079,0,0,1-.523-.956q-4.423-13.477-8.854-26.954c-2.8-8.544-5.415-18.345.327-25.852C308.851,242.183,315.679,230.976,325.407,229.98Z" transform="translate(-50.554 -42.133)" fill="#442624"/>
    <path id="Path_209" data-name="Path 209" d="M219.56,216.325c-2.156,3.961-4.223,8.094-4.77,12.579a206.692,206.692,0,0,1,29.944-26.26c5.709-4.1,12.1-8.568,13.649-15.429a7.685,7.685,0,0,0-.229-4.737c-1.748-4-7.686-4.737-11.362-3.316-3.553,1.372-5.914,5.464-8.176,8.331A203.322,203.322,0,0,0,219.56,216.325Z" transform="translate(-34.931 -32.701)" fill="#f7b68b"/>
    <path id="Path_210" data-name="Path 210" d="M336.4,168.632q-.943-8.16-1.895-16.328a66.064,66.064,0,0,0-2.5-13.42c-1.438-4.3-3.88-8.356-7.466-10.774-5.865-3.937-14.09-3.153-18.933-8.47-5.415,3.39-12.9,3.333-18.8,5.571-6.6,2.508-11.7,8.666-14.539,15.593-18.1,44.156-8.887,73.708-6.82,74.68a85.673,85.673,0,0,0,46.247,7.686c5.228-.6,10.6-1.789,14.833-5.17,6.828-5.464,9.14-15.4,9.548-24.577S337.452,177.747,336.4,168.632Z" transform="translate(-43.445 -21.919)" fill="#025e2b"/>
    <g id="Group_87" data-name="Group 87" transform="translate(244.395 70.162)">
      <path id="Path_211" data-name="Path 211" d="M298.292,115.958a18.236,18.236,0,0,0,6.853-16.646A61.915,61.915,0,0,0,316.466,85.9q.76,11.407,1.127,22.83c.147,4.6,3.921,8.495,8.037,10.561-4.778,3.9-10.226,7.384-16.352,8.094s-13-2.026-15.478-7.678C295.556,118.376,296.569,117.33,298.292,115.958Z" transform="translate(-293.8 -85.9)" fill="#f7b68b"/>
      <path id="Path_212" data-name="Path 212" d="M318.025,89.511c-.155-1.086-.515-1.666-1-1.911a64.71,64.71,0,0,1-10.447,12.023,18.049,18.049,0,0,1-4.942,14.882c.253-.114.506-.245.735-.376,5.758-3.333,9.949-8.789,12.62-14.809C316.089,96.854,318.409,92.256,318.025,89.511Z" transform="translate(-295.236 -86.211)" fill="#e6a377"/>
    </g>
    <g id="Group_98" data-name="Group 98" transform="translate(219.752 24.373)">
      <g id="Group_97" data-name="Group 97" transform="translate(3.053 2.608)">
        <g id="Group_88" data-name="Group 88">
          <path id="Path_213" data-name="Path 213" d="M278.789,87.511c2.107,2.728,4.566,5.35,7.751,6.657,4.95,2.026,10.831.417,15.037-2.9s6.984-8.094,9.262-12.93c2.989-6.347,5.326-13.15,5.456-20.167s-2.189-14.294-7.335-19.072a23.294,23.294,0,0,0-11.411-5.6,26.333,26.333,0,0,0-22.241,5.954C260.811,52.421,268.717,74.451,278.789,87.511Z" transform="translate(-267.368 -33.034)" fill="#f7b68b"/>
        </g>
        <g id="Group_89" data-name="Group 89" transform="translate(23.15 26.224)">
          <path id="Path_214" data-name="Path 214" d="M301.281,69.935c0,2.646-1.25,4.795-2.785,4.795s-2.785-2.148-2.785-4.795,1.25-4.795,2.785-4.795S301.281,67.288,301.281,69.935Z" transform="translate(-295.71 -65.14)" fill="#442624"/>
        </g>
        <g id="Group_90" data-name="Group 90" transform="translate(5.4 29.083)">
          <path id="Path_215" data-name="Path 215" d="M279.551,73.435c0,2.646-1.25,4.795-2.785,4.795s-2.785-2.148-2.785-4.795,1.25-4.795,2.785-4.795S279.551,70.788,279.551,73.435Z" transform="translate(-273.98 -68.64)" fill="#442624"/>
        </g>
        <g id="Group_91" data-name="Group 91" transform="translate(21.488 16.862)">
          <path id="Path_216" data-name="Path 216" d="M303.277,55.329a3.727,3.727,0,0,1,1.568,2.646c.016.564-.351,1.266-.907,1.176a1.333,1.333,0,0,1-.6-.368,9.5,9.5,0,0,0-8.168-2.107c-.515.114-1.209.2-1.438-.286a.959.959,0,0,1,.27-.964C296.228,52.838,300.875,53.394,303.277,55.329Z" transform="translate(-293.676 -53.677)" fill="#442624"/>
        </g>
        <g id="Group_92" data-name="Group 92" transform="translate(2.532 21.15)">
          <path id="Path_217" data-name="Path 217" d="M275.509,59.175a2.979,2.979,0,0,1,1.723-.188,1.526,1.526,0,0,1,1.184,1.16,7.785,7.785,0,0,0-5.693,5.775c-.147.653-.327,1.47-.972,1.634a1.129,1.129,0,0,1-1.242-1C270.069,63.855,273.165,60.057,275.509,59.175Z" transform="translate(-270.468 -58.927)" fill="#442624"/>
        </g>
        <g id="Group_93" data-name="Group 93" transform="translate(12.116 36.449)">
          <path id="Path_218" data-name="Path 218" d="M284.267,82.7c-.523.735-1.242,1.315-1.691,2.1-.686,1.209-.441,3.03.825,3.6a2.434,2.434,0,0,0,2.336-.31,4.6,4.6,0,0,0,1.487-1.936,8.792,8.792,0,0,0-.163-7.523c-.67-1.307-1.65-1.274-2.066-.049C284.536,79.93,285.32,81.229,284.267,82.7Z" transform="translate(-282.201 -77.657)" fill="#e78863"/>
        </g>
        <g id="Group_94" data-name="Group 94" transform="translate(28.998 34.475)">
          <path id="Path_219" data-name="Path 219" d="M304.9,75.918a3.423,3.423,0,0,0-2.026,1.348c.212.523.858.694,1.421.743a11.2,11.2,0,0,0,4.092-.482c.939-.278,2.107-1.364.849-2.066C308.212,74.881,305.908,75.6,304.9,75.918Z" transform="translate(-302.87 -75.242)" fill="#e78863"/>
        </g>
        <g id="Group_95" data-name="Group 95" transform="translate(4.995 39.671)">
          <path id="Path_220" data-name="Path 220" d="M276.438,81.641a3.617,3.617,0,0,0-2.606.506c-.261.2-.474.572-.261.817a.577.577,0,0,0,.3.163,4.956,4.956,0,0,0,1.805.074,3.587,3.587,0,0,0,1.119-.286c.294-.147.564-.343.547-.67S276.854,81.682,276.438,81.641Z" transform="translate(-273.484 -81.602)" fill="#e78863"/>
        </g>
        <g id="Group_96" data-name="Group 96" transform="translate(23.064 42.139)">
          <path id="Path_221" data-name="Path 221" d="M296.418,92.968a.819.819,0,0,1-.074-1.634,6.741,6.741,0,0,0,6.3-5.987.818.818,0,1,1,1.625.188,8.44,8.44,0,0,1-7.776,7.425A.2.2,0,0,1,296.418,92.968Z" transform="translate(-295.606 -84.624)" fill="#442624"/>
        </g>
      </g>
      <path id="Path_222" data-name="Path 222" d="M328.427,84.647A21.028,21.028,0,0,1,312.9,69.79c-.915-3.471-.939-7.22-2.565-10.422-2.2-4.345-6.828-6.779-11.059-9.205s-9.083-5.195-10.218-9.924a34.986,34.986,0,0,0-25.427,21c.155-8.356,2.385-17.047,8.054-23.189s14.523-9.573,22.666-7.694c2.736-1.233,7.531,1.086,10.357,2.1s4.215,1,6.42,3.047A41.636,41.636,0,0,1,323.82,59.163C325.2,67.625,325.151,76.716,328.427,84.647Z" transform="translate(-263.63 -29.841)" fill="#442624"/>
      <path id="Path_223" data-name="Path 223" d="M324.511,64.56a4.386,4.386,0,0,1,3.112-1.511,3.159,3.159,0,0,1,2.483,1.887,6.886,6.886,0,0,1,.5,3.2,17.872,17.872,0,0,1-3.684,10.21,4.484,4.484,0,0,1-2.793,1.968,3.427,3.427,0,0,1-3.316-2.442C319.259,73.536,321.31,67.59,324.511,64.56Z" transform="translate(-274.009 -35.923)" fill="#f7b68b"/>
    </g>
    <path id="Path_224" data-name="Path 224" d="M260.862,147.316c-5.415,7.776-18.925,27.183-24.332,34.951a31.606,31.606,0,0,0,20.4,11.141c-.3-.033,13.232-37.679,13.894-40.121,2.6-9.589,7.335-17.806,10.872-26.856C273.049,127.917,265.469,140.7,260.862,147.316Z" transform="translate(-38.913 -23.163)" fill="#025e2b"/>
    <path id="Path_225" data-name="Path 225" d="M260.851,213.308c-2.189-4.966-3.872-10.349-3.324-15.748,2.532-25.206,12.285-46.672,23.083-69.591a13.874,13.874,0,0,1,8.8-3.259c-4.664,5.832-10.341,19.685-14.768,36.772,7.923.221,16.483.572,24.406.792,6.322-21.866,10.651-28.947,19.66-35.89a5.867,5.867,0,0,1,6.175,2.924c-8.437,12.072-14.727,24.022-16.254,38.675-1.054,10.079,6.935,55.322,3.635,55.9,2.81,19.358,5.669,38.9,12.571,57.209a476.516,476.516,0,0,1-65.948-1.38C256.481,270.174,248.183,235.476,260.851,213.308Z" transform="translate(-42.112 -22.848)" fill="#b8773c"/>
    <path id="Path_226" data-name="Path 226" d="M312.89,246.837c-.155-1.037-.294-2.042-.449-3.071,0,0-40.088,3.61-51.761-10.586a51.14,51.14,0,0,0-5.66,16.409C266.953,251.256,292.282,253.445,312.89,246.837Z" transform="translate(-42.301 -42.719)" fill="#a06834"/>
    <g id="Group_109" data-name="Group 109" transform="translate(30.549 227.339)">
      <ellipse id="Ellipse_1" data-name="Ellipse 1" cx="157.569" cy="27.526" rx="157.569" ry="27.526" fill="#966135"/>
      <g id="Group_108" data-name="Group 108">
        <g id="Group_107" data-name="Group 107" clip-path="url(#clip-path-2)">
          <g id="Group_99" data-name="Group 99" transform="translate(29.005 5.943)">
            <path id="Path_227" data-name="Path 227" d="M359.571,304.943c-18.876-3.063-38.365-3.651-57.209-4.215-5.775-.172-11.746-.351-17.618-.6-26.742-1.127-53.876-3.8-80.112-6.387-44.908-4.419-91.351-8.993-137.051-5.938L67.5,286.6c45.8-3.055,92.29,1.519,137.247,5.946,26.227,2.581,53.345,5.252,80.046,6.379,5.856.245,11.827.425,17.6.6,18.884.564,38.406,1.152,57.364,4.231Z" transform="translate(-67.5 -285.605)" fill="#b5753f"/>
          </g>
          <g id="Group_100" data-name="Group 100" transform="translate(189.971 18.691)">
            <path id="Path_228" data-name="Path 228" d="M398,321.051,367.348,315.2c-5.807-1.1-11.8-2.254-17.757-2.965-9.818-1.176-19.873-1.233-29.6-1.282l-44.074-.237a29,29,0,0,1-9.532-1.184,2.72,2.72,0,0,1-1.813-2.54,2.677,2.677,0,0,1,1.732-2.548c11.68-4.484,25.313-3.292,36.266-2.336,32.664,2.859,66.349,5.8,99.29,10.308l-.163,1.2c-32.917-4.5-66.585-7.441-99.151-10.292-10.912-.948-24.39-2.132-35.808,2.254a1.459,1.459,0,0,0-.956,1.4,1.508,1.508,0,0,0,1.013,1.413,28.071,28.071,0,0,0,9.132,1.111l44.074.237c9.761.049,19.848.106,29.74,1.291,6,.719,12.015,1.87,17.839,2.973l30.654,5.848Z" transform="translate(-264.57 -301.214)" fill="#b5753f"/>
          </g>
          <g id="Group_101" data-name="Group 101" transform="translate(1.772 10.695)">
            <path id="Path_229" data-name="Path 229" d="M336.041,325.44a187.56,187.56,0,0,0-59.087-8.356c-4.141.074-8.364.294-12.448.506-10.431.531-21.212,1.086-31.692-.621-9.279-1.511-18.247-4.778-26.914-7.947-4.3-1.568-8.756-3.194-13.183-4.582-25.117-7.866-51.818-8.936-77.637-9.965l-35.523-1.421c-14.988-.6-30.483-1.217-45.03,3.447l-.368-1.16c14.751-4.737,30.36-4.108,45.447-3.5l35.523,1.421c25.9,1.037,52.675,2.107,77.947,10.022,4.452,1.4,8.919,3.022,13.232,4.6,8.617,3.145,17.537,6.4,26.693,7.89,10.349,1.683,21.065,1.135,31.43.6,4.092-.212,8.331-.425,12.489-.506a189.23,189.23,0,0,1,59.463,8.413Z" transform="translate(-34.16 -291.424)" fill="#b5753f"/>
          </g>
          <g id="Group_102" data-name="Group 102" transform="translate(-8.519 17.144)">
            <path id="Path_230" data-name="Path 230" d="M314,330.963a113.755,113.755,0,0,0-55.142-6.387c-2.3.3-4.631.686-6.886,1.054-5.873.964-11.95,1.952-18.01,1.707-8.634-.359-16.957-3.2-25.01-5.954-1.9-.653-3.814-1.307-5.718-1.919-26.04-8.446-53.713-11.043-80.479-13.543-33.113-3.1-67.345-6.306-101.152-5.138l-.041-1.217c33.881-1.168,68.162,2.042,101.308,5.146,26.832,2.516,54.578,5.113,80.741,13.6,1.911.621,3.823,1.274,5.734,1.928,7.972,2.728,16.213,5.546,24.667,5.889,5.938.245,11.95-.735,17.765-1.691,2.271-.368,4.615-.751,6.926-1.062a115.05,115.05,0,0,1,55.73,6.461Z" transform="translate(-21.56 -299.319)" fill="#b5753f"/>
          </g>
          <g id="Group_103" data-name="Group 103" transform="translate(-26.129 22.683)">
            <path id="Path_231" data-name="Path 231" d="M148.862,325.981c-10.316,0-20.624-2.173-30.671-4.3-8.429-1.781-17.145-3.618-25.77-4.158a176.915,176.915,0,0,0-20.51.31,165.377,165.377,0,0,1-22.413.18c-2.5-.212-5.015-.539-7.457-.858-3.5-.457-7.106-.923-10.676-1.046-10.553-.359-20.984,2.279-31.071,4.827L0,319.773c10.169-2.573,20.69-5.228,31.406-4.868,3.627.122,7.27.6,10.79,1.054,2.426.319,4.933.645,7.4.849,7.384.621,14.939.212,22.25-.18a181.061,181.061,0,0,1,20.649-.31c8.715.547,17.471,2.393,25.942,4.182,12.971,2.736,26.391,5.571,39.582,3.627.621-.09,1.25-.2,1.87-.335a2.127,2.127,0,0,0,1.013-3.586c-2.72-2.606-6.894-4.452-11.762-5.187a75.441,75.441,0,0,0-8.772-.645,80.716,80.716,0,0,1-8.6-.613,79.871,79.871,0,0,1-9-2.018c-2.312-.613-4.7-1.242-7.073-1.691a98.5,98.5,0,0,0-16.3-1.209L17.88,307.317,17.9,306.1l81.508,1.527a98.732,98.732,0,0,1,16.507,1.233c2.418.449,4.827,1.094,7.163,1.707a77.256,77.256,0,0,0,8.862,1.985,77.685,77.685,0,0,0,8.47.6,76.559,76.559,0,0,1,8.911.653c3.61.547,8.7,1.952,12.415,5.513a3.25,3.25,0,0,1,.882,3.284,3.331,3.331,0,0,1-2.475,2.361c-.645.139-1.3.253-1.952.351A61.812,61.812,0,0,1,148.862,325.981Z" transform="translate(0 -306.1)" fill="#b5753f"/>
          </g>
          <g id="Group_104" data-name="Group 104" transform="translate(-8.527 38.75)">
            <path id="Path_232" data-name="Path 232" d="M294.892,343.96l-83.534-7.972c-7.751-.735-15.756-1.5-23.646-1.6-6.877-.09-13.894.335-20.673.735-10.684.637-21.735,1.291-32.558,0a188.326,188.326,0,0,1-19.848-3.831c-11.533-2.655-23.467-5.4-35.261-3.872a101.086,101.086,0,0,0-12.227,2.63c-3.488.9-7.09,1.83-10.716,2.418A59.6,59.6,0,0,1,21.55,327.42l.523-1.095a58.312,58.312,0,0,0,34.159,4.942c3.569-.572,7.147-1.495,10.6-2.393a101.826,101.826,0,0,1,12.375-2.655c12.015-1.552,24.055,1.217,35.694,3.9a187.46,187.46,0,0,0,19.718,3.806c10.716,1.274,21.71.621,32.345-.008,6.8-.4,13.837-.825,20.763-.735,7.939.1,15.977.866,23.744,1.609l83.542,7.972Z" transform="translate(-21.55 -325.772)" fill="#b5753f"/>
          </g>
          <g id="Group_105" data-name="Group 105" transform="translate(89.635 51.135)">
            <path id="Path_233" data-name="Path 233" d="M147.219,352.456a49.644,49.644,0,0,1-5.489-.294l.139-1.209c11.174,1.25,22.356-1.772,33.17-4.688,5.709-1.544,11.615-3.137,17.5-4.108,16.761-2.769,35.1-.825,54.521,5.775l-.392,1.152c-19.227-6.534-37.369-8.454-53.933-5.726-5.824.964-11.7,2.548-17.381,4.084C166.193,349.907,156.759,352.456,147.219,352.456Z" transform="translate(-141.73 -340.934)" fill="#b5753f"/>
          </g>
          <g id="Group_106" data-name="Group 106" transform="translate(206.682 6.137)">
            <path id="Path_234" data-name="Path 234" d="M403.637,301.368c-33.489-3.61-67.533-6.191-101.161-7.653-5.75-.253-11.688-.515-17.014-2.851l-.278-.123-.073-.294a2.79,2.79,0,0,1,.515-2.4c1.119-1.446,3.586-2.14,5.538-2.181a228.265,228.265,0,0,1,24.308,1.266,223.072,223.072,0,0,0,24.226,1.258c3.757-.082,7.58-.351,11.272-.621,3.455-.245,7.033-.506,10.561-.6a120.114,120.114,0,0,1,42.277,6.412l-.392,1.152a118.839,118.839,0,0,0-41.853-6.347c-3.5.1-7.065.351-10.512.6-3.708.27-7.547.539-11.337.621a227.262,227.262,0,0,1-24.357-1.266,224.375,224.375,0,0,0-24.177-1.258c-1.658.033-3.774.629-4.607,1.707a1.509,1.509,0,0,0-.343,1.086c5.048,2.124,10.749,2.377,16.262,2.614,33.677,1.47,67.737,4.051,101.259,7.662Z" transform="translate(-285.03 -285.844)" fill="#b5753f"/>
          </g>
        </g>
      </g>
    </g>
    <g id="Group_119" data-name="Group 119" transform="translate(128.556 233.514)">
      <ellipse id="Ellipse_3" data-name="Ellipse 3" cx="71.135" cy="14.841" rx="71.135" ry="14.841" fill="#f27f5a"/>
      <g id="Group_118" data-name="Group 118">
        <g id="Group_117" data-name="Group 117" clip-path="url(#clip-path-3)">
          <g id="Group_110" data-name="Group 110" transform="translate(-12.497 -8.683)">
            <path id="Path_235" data-name="Path 235" d="M138.207,313.2l-1.527-2.622a735.718,735.718,0,0,1,68.84-35.318l1.242,2.769A732.578,732.578,0,0,0,138.207,313.2Z" transform="translate(-136.68 -275.26)" fill="#f8b68f"/>
          </g>
          <g id="Group_111" data-name="Group 111" transform="translate(3.316 -6.159)">
            <path id="Path_236" data-name="Path 236" d="M157.567,316.29l-1.527-2.622a735.709,735.709,0,0,1,68.84-35.318l1.242,2.769A732.573,732.573,0,0,0,157.567,316.29Z" transform="translate(-156.04 -278.35)" fill="#f8b68f"/>
          </g>
          <g id="Group_112" data-name="Group 112" transform="translate(19.129 -3.635)">
            <path id="Path_237" data-name="Path 237" d="M176.927,319.38l-1.527-2.622a734.653,734.653,0,0,1,68.84-35.318l1.242,2.769A733.477,733.477,0,0,0,176.927,319.38Z" transform="translate(-175.4 -281.44)" fill="#f8b68f"/>
          </g>
          <g id="Group_113" data-name="Group 113" transform="translate(34.943 -1.103)">
            <path id="Path_238" data-name="Path 238" d="M196.287,322.48l-1.527-2.622A735.661,735.661,0,0,1,263.6,284.54l1.242,2.769A731.572,731.572,0,0,0,196.287,322.48Z" transform="translate(-194.76 -284.54)" fill="#f8b68f"/>
          </g>
          <g id="Group_114" data-name="Group 114" transform="translate(50.756 1.421)">
            <path id="Path_239" data-name="Path 239" d="M215.647,325.57l-1.527-2.622a735.657,735.657,0,0,1,68.84-35.318L284.2,290.4A730.548,730.548,0,0,0,215.647,325.57Z" transform="translate(-214.12 -287.63)" fill="#f8b68f"/>
          </g>
          <g id="Group_115" data-name="Group 115" transform="translate(66.569 3.945)">
            <path id="Path_240" data-name="Path 240" d="M235.007,328.66l-1.527-2.622a735.7,735.7,0,0,1,68.84-35.318l1.242,2.769A731.556,731.556,0,0,0,235.007,328.66Z" transform="translate(-233.48 -290.72)" fill="#f8b68f"/>
          </g>
          <g id="Group_116" data-name="Group 116" transform="translate(82.382 6.469)">
            <path id="Path_241" data-name="Path 241" d="M254.367,331.75l-1.527-2.622a735.721,735.721,0,0,1,68.84-35.318l1.242,2.769A731.565,731.565,0,0,0,254.367,331.75Z" transform="translate(-252.84 -293.81)" fill="#f8b68f"/>
          </g>
        </g>
      </g>
    </g>
    <g id="Group_120" data-name="Group 120" transform="translate(156.058 192.178)">
      <path id="Path_242" data-name="Path 242" d="M227.209,254.76l-41.559-2.9s0,24.1,12.023,35.906c11.86,7.727,29.535,6.69,29.535,6.69s17.676,1.037,29.535-6.69c12.023-11.811,12.023-35.906,12.023-35.906Z" transform="translate(-185.65 -238.32)" fill="#c5d621"/>
      <ellipse id="Ellipse_5" data-name="Ellipse 5" cx="41.559" cy="9.516" rx="41.559" ry="9.516" transform="translate(0 4.025)" fill="#357d72"/>
      <path id="Path_243" data-name="Path 243" d="M262.194,249.918c-1.7-2.393-5.309-1.968-8.168-1.291a8.941,8.941,0,0,0-13.485-6.551,7.631,7.631,0,0,0-1.593-2.459,12.779,12.779,0,0,0-4.288-2.859,17.6,17.6,0,0,0-12.513-.6,14.9,14.9,0,0,0-5.6,3.537,13.419,13.419,0,0,0-3.243,5.121,6.851,6.851,0,0,0-11.729,2.687c-1.527-2.352-5.236-2.622-7.408-.849a6.952,6.952,0,0,0-2.091,6.8c7.106,2.916,20.689,4.884,36.29,4.884,14.367,0,27.036-1.674,34.5-4.215A4.7,4.7,0,0,0,262.194,249.918Z" transform="translate(-186.795 -235.283)" fill="#fff0e8"/>
      <path id="Path_244" data-name="Path 244" d="M275.506,267.243a13.543,13.543,0,0,0-1.707,1.968q-1.286,1.691-2.508,3.414a1.934,1.934,0,0,0-.482,1.144c.016.621.6,1.062,1.127,1.389.613.376,1.242.727,1.887,1.046a5.31,5.31,0,0,0,1.968.637,2.111,2.111,0,0,0,1.854-.751,3,3,0,0,0,.425-1.013,27.212,27.212,0,0,0,.939-5.848c.057-1.07-.041-2.328-.923-2.94A2.9,2.9,0,0,0,275.506,267.243Z" transform="translate(-201.251 -240.96)" fill="#a3aa17"/>
      <path id="Path_245" data-name="Path 245" d="M261.944,282.913a.634.634,0,0,1-.1.6.548.548,0,0,1-.319.122c-1.576.237-3.071-.67-4.378-1.576q-1.666-1.152-3.267-2.385a1.763,1.763,0,0,1-.662-.768c-.2-.645.384-1.25.915-1.674l1.568-1.25c1.968-1.568,2.761-1.233,3.806.768A21.737,21.737,0,0,1,261.944,282.913Z" transform="translate(-198.021 -242.558)" fill="#a3aa17"/>
      <path id="Path_246" data-name="Path 246" d="M239.365,284.183a1.446,1.446,0,0,0-.024.768c.172.474.76.621,1.258.67a14.9,14.9,0,0,0,5.505-.482,1.314,1.314,0,0,0,.645-.327,1.4,1.4,0,0,0,.229-1.029,41.979,41.979,0,0,0-1.054-7.547c-.384-1.658-.833-5.726-2.9-3.259-.956,1.135-1.144,2.491-1.568,3.863C240.7,279.282,239.92,281.683,239.365,284.183Z" transform="translate(-195.478 -242.046)" fill="#a3aa17"/>
      <path id="Path_247" data-name="Path 247" d="M223.822,294.155c.776-.523.751-1.666.629-2.6-.163-1.274-.319-2.54-.482-3.814a5.524,5.524,0,0,0-.449-1.821,1.813,1.813,0,0,0-1.454-1.062,2.427,2.427,0,0,0-1.062.261c-.792.343-3.047,1.282-3.365,2.156-.261.719.6,1.813,1.054,2.459C219.167,290.406,222.883,294.792,223.822,294.155Z" transform="translate(-191.502 -244.365)" fill="#a3aa17"/>
      <path id="Path_248" data-name="Path 248" d="M264.885,269.761c.31.408.719.866,1.225.792.523-.073.784-.653.956-1.16.286-.849.572-1.691.858-2.54a4,4,0,0,0,.278-2.524,1.1,1.1,0,0,0-.482-.629,1.353,1.353,0,0,0-.768-.065,11.91,11.91,0,0,0-4.231,1.331c-.188.1-.392.229-.433.433a.8.8,0,0,0,.147.531A33.1,33.1,0,0,0,264.885,269.761Z" transform="translate(-199.688 -240.472)" fill="#a3aa17"/>
      <path id="Path_249" data-name="Path 249" d="M266.262,287.5a1.945,1.945,0,0,0,.122,1.854,1.857,1.857,0,0,0,1.683.294,18.321,18.321,0,0,0,2.483-.6,1.669,1.669,0,0,0,.776-.417,1.481,1.481,0,0,0,.172-1.291,11.046,11.046,0,0,0-.874-2.336q-.992-2.156-1.977-4.3a.457.457,0,0,0-.221-.27c-.221-.082-.408.188-.49.408C267.144,283.011,266.9,285.282,266.262,287.5Z" transform="translate(-200.387 -243.554)" fill="#a3aa17"/>
      <path id="Path_250" data-name="Path 250" d="M229.1,278.073a1.215,1.215,0,0,0,.711.27.828.828,0,0,0,.686-.613,2.255,2.255,0,0,0,.025-.964,23.494,23.494,0,0,0-1.56-5.914,2.7,2.7,0,0,0-1.16-1.536,1.947,1.947,0,0,0-1.7.106,5.9,5.9,0,0,0-1.364,1.1c-.686.678-1.372,1.364-2.058,2.042C221.307,273.931,228.119,277.444,229.1,278.073Z" transform="translate(-192.4 -241.49)" fill="#a3aa17"/>
      <path id="Path_251" data-name="Path 251" d="M210,285.454c-.3.711-.751,1.536-1.519,1.593a1.971,1.971,0,0,1-1.07-.319,6.989,6.989,0,0,1-2.769-2.328,1.164,1.164,0,0,1-.2-1.054,1.358,1.358,0,0,1,.384-.425c2.271-1.879,4.6-3.8,7.392-4.746a.541.541,0,0,1,.449-.016C213.414,278.577,210.278,284.817,210,285.454Z" transform="translate(-189.082 -243.13)" fill="#a3aa17"/>
      <path id="Path_252" data-name="Path 252" d="M197.251,271.808a1.4,1.4,0,0,0,.719.572.955.955,0,0,0,.915-.417,2.629,2.629,0,0,0,.368-.988,22.322,22.322,0,0,0,.294-7.367c-.073-.6-.31-1.331-.915-1.389a1.308,1.308,0,0,0-.433.049,17.2,17.2,0,0,0-4.117,1.519c-1.854.972-.49,2.393.286,3.757A35.8,35.8,0,0,0,197.251,271.808Z" transform="translate(-187.024 -240.217)" fill="#a3aa17"/>
      <path id="Path_253" data-name="Path 253" d="M187.79,269.82c.425,1.936.939,3.953,1.593,5.979,1.111.082,2.23.131,3.341.139a.954.954,0,0,0,.621-.147c.376-.319.057-.915-.27-1.274A29.24,29.24,0,0,0,187.79,269.82Z" transform="translate(-186.042 -241.61)" fill="#a3aa17"/>
      <path id="Path_254" data-name="Path 254" d="M252.669,288.795a1.111,1.111,0,0,1,.915-.31.791.791,0,0,1,.482.653,2.788,2.788,0,0,1-.229,1.331c-.555,1.585-1.111,3.177-1.674,4.762-.123.343-.286.735-.637.833a1.018,1.018,0,0,1-.564-.033,6.89,6.89,0,0,1-3.1-1.8,1.469,1.469,0,0,1-.5-.882c-.041-.735,1.813-1.805,2.3-2.205Q251.15,289.934,252.669,288.795Z" transform="translate(-196.955 -245.025)" fill="#a3aa17"/>
      <path id="Path_255" data-name="Path 255" d="M213.639,268.1a1.748,1.748,0,0,1,1.242-.139,2.355,2.355,0,0,1-.686,2.066c-1.086,1.438-2.181,2.875-3.267,4.321a.61.61,0,0,1-1,.188,8.449,8.449,0,0,1-2-2.3c-1.1-1.617.057-2.181,1.511-2.622C210.862,269.19,212.243,268.634,213.639,268.1Z" transform="translate(-189.65 -241.257)" fill="#a3aa17"/>
      <path id="Path_256" data-name="Path 256" d="M197.472,282.543a4.158,4.158,0,0,0-.253,1.47c.016.278.155.613.433.621a.6.6,0,0,0,.359-.139,20.625,20.625,0,0,0,3.823-3.275,1.64,1.64,0,0,0,.58-1.282,1.561,1.561,0,0,0-.327-.645,8.118,8.118,0,0,0-1-1.111,1.513,1.513,0,0,0-1.446-.523c-.645.245-.768,1.225-1,1.8C198.207,280.468,197.8,281.489,197.472,282.543Z" transform="translate(-187.769 -243.036)" fill="#a3aa17"/>
      <path id="Path_257" data-name="Path 257" d="M238.023,298.018a.579.579,0,0,0,.433-.139.634.634,0,0,0,.074-.547A14.183,14.183,0,0,0,236,291.41a1.768,1.768,0,0,0-.572-.555,1.412,1.412,0,0,0-.613-.114,3.465,3.465,0,0,0-2.254,1.029c-.572.539-1.895,1.936-1.781,2.785.09.67,1.111,1.356,1.683,1.609.678.3,1.429.425,2.115.7A9.253,9.253,0,0,0,238.023,298.018Z" transform="translate(-193.916 -245.443)" fill="#a3aa17"/>
      <path id="Path_258" data-name="Path 258" d="M213.5,295.335a.807.807,0,0,0-.433-.359c-.359-.1-.694.188-.956.449a36.871,36.871,0,0,0-2.7,3.055c-.172.212-.335.417-.482.613a46.779,46.779,0,0,0,5.211,1.568,19.555,19.555,0,0,0-.294-4.313A2.66,2.66,0,0,0,213.5,295.335Z" transform="translate(-189.915 -246.215)" fill="#a3aa17"/>
    </g>
    <path id="Path_259" data-name="Path 259" d="M337.137,208.708a6.993,6.993,0,0,1-.809,2.6,7.387,7.387,0,0,1-2.9,2.328,195.318,195.318,0,0,1-70.049,22.609A372.117,372.117,0,0,1,316.643,201.1c5.17-2.81,11.435-6.722,17.39-7.449,3.929-.474,3.463.449,3.676,4.533A50.4,50.4,0,0,1,337.137,208.708Z" transform="translate(-43.832 -35.458)" fill="#f7b68b"/>
    <path id="Path_260" data-name="Path 260" d="M205.037,247.244c-.212,2.908,1.789,4.746,4.5,5.742a7.139,7.139,0,0,0,9.524-7.114,63.29,63.29,0,0,1,2.9-20.559,3.038,3.038,0,0,0,.229-1.389c-.441-3-3.741.327-4.435,1.095a60.6,60.6,0,0,0-5.26,6.73C209.292,236.527,205.453,241.51,205.037,247.244Z" transform="translate(-33.141 -40.798)" fill="#f7b68b"/>
    <path id="Path_261" data-name="Path 261" d="M274.2,233.36c-4.443,2.63-9.132,4.819-13.706,7.212-1.707.9-3.4,1.821-5.056,2.81-6.061,3.627-11.762,8.3-15,14.572a151.062,151.062,0,0,0,19.448-1.511A45.511,45.511,0,0,1,269.959,242.6a46.756,46.756,0,0,1,4.982-4.059,3.991,3.991,0,0,0,1.911-2.189C277.147,234.969,275.472,233.981,274.2,233.36Z" transform="translate(-39.63 -42.752)" fill="#f7b68b"/>
    <path id="Path_262" data-name="Path 262" d="M225.7,240.09a1.484,1.484,0,0,1-.457,1.184,10.8,10.8,0,0,1-2.932-6.5,10.044,10.044,0,0,1,1.805-6.853c1.233.4,1.315,4.5,1.438,5.636A38.783,38.783,0,0,1,225.7,240.09Z" transform="translate(-36.301 -41.756)" fill="#f7b68b"/>
    <path id="Path_263" data-name="Path 263" d="M319.627,159.566c-2.328,9.181-7.482,26.04-9.467,35.3,1.642,15.168,26.8,17.365,36.176,10.9,6.387-4.4,2.516-41.681,1.348-49.8-.6-4.231-4.607-16.4-10.586-23.377-3.716-4.337-6.036-1.9-8.911,3.038C323.768,143.254,320.778,155.049,319.627,159.566Z" transform="translate(-52.402 -23.88)" fill="#025e2b"/>
    <g id="Group_122" data-name="Group 122" transform="translate(110.488 192.776)">
      <path id="Path_264" data-name="Path 264" d="M139.79,240.57l3.831,40.481s10.765,6.167,19.195,0l5.178-34.673,2.434-3.929Z" transform="translate(-131.678 -236.849)" fill="#d6effb"/>
      <path id="Path_265" data-name="Path 265" d="M157.364,236.37c-5.709-.523-11.7-.964-16.859,2.491a1.58,1.58,0,0,0-.727.866c-.27.947.58,1.748,1.274,2.05,3.863,1.658,7.972,1.789,12.015,1.895a49.49,49.49,0,0,0,12.08-.653,3.813,3.813,0,0,0,2.091-1C171.144,237.947,158.54,236.476,157.364,236.37Z" transform="translate(-131.667 -236.015)" fill="#9ccce0"/>
      <path id="Path_266" data-name="Path 266" d="M143.48,261.38l2.091,22.078s9.63,5.522,17.169,0l2.908-22.078Z" transform="translate(-132.354 -240.662)" fill="#edf8fd"/>
      <path id="Path_267" data-name="Path 267" d="M157.25,257.148c-4.468-.408-9.164-.751-13.208,1.952a1.253,1.253,0,0,0-.572.678c-.212.743.449,1.364,1,1.6,3.03,1.3,6.24,1.4,9.41,1.487a39.041,39.041,0,0,0,9.459-.506,2.979,2.979,0,0,0,1.642-.776C168.04,258.373,158.165,257.23,157.25,257.148Z" transform="translate(-132.345 -239.836)" fill="#fff"/>
      <path id="Path_268" data-name="Path 268" d="M175.453,242.171c-.988-.874-1.7-1.307-2.548-1.977a4.693,4.693,0,0,0-2.94-1.095,3,3,0,0,0-2.622,1.544c-.719,1.454,1,2.785,2.344,2.842C171.491,243.56,173.7,242.6,175.453,242.171Z" transform="translate(-136.695 -236.58)" fill="#9ccce0"/>
      <g id="Group_121" data-name="Group 121" transform="translate(0 11.265)">
        <path id="Path_269" data-name="Path 269" d="M141.483,275.057a21.443,21.443,0,0,1-4.729-1.87,10.553,10.553,0,0,1-4.313-3.847,12.7,12.7,0,0,1-1.225-3.414c-.359-1.47-.678-2.981-.956-4.484a13.052,13.052,0,0,1,.033-6.494,7.761,7.761,0,0,1,9.066-4.917l-.515,1.96a5.759,5.759,0,0,0-6.641,3.594,11.45,11.45,0,0,0,.033,5.489c.27,1.47.58,2.94.931,4.37a10.977,10.977,0,0,0,1,2.875A8.584,8.584,0,0,0,137.7,271.4a18.616,18.616,0,0,0,4.28,1.691Z" transform="translate(-129.859 -249.806)" fill="#d6effb"/>
      </g>
    </g>
    <g id="Group_132" data-name="Group 132" transform="translate(241.793 193.851)">
      <g id="Group_131" data-name="Group 131" transform="translate(0 18.55)">
        <g id="Group_126" data-name="Group 126" transform="translate(5.334 9.245)">
          <g id="Group_123" data-name="Group 123" transform="translate(15.96)">
            <rect id="Rectangle_11" data-name="Rectangle 11" width="27.828" height="1.013" transform="matrix(0.742, -0.671, 0.671, 0.742, 0, 18.662)" fill="#442624"/>
          </g>
          <g id="Group_124" data-name="Group 124" transform="translate(0 18.222)">
            <path id="Path_270" data-name="Path 270" d="M301.6,309.361a4.557,4.557,0,0,1-4.345-3.414c-.441-1.985.441-4.1,2.7-6.469a17.755,17.755,0,0,1,6.739-4.754c3.292-1.184,5.53-1.372,6.649-.555,1.536,1.119.278,3.529-.474,4.974l-.221.425a21.272,21.272,0,0,1-8.013,8.748,6.892,6.892,0,0,1-2.361.98A3.793,3.793,0,0,1,301.6,309.361Zm9.842-14.67a14.259,14.259,0,0,0-4.427.988h0a16.825,16.825,0,0,0-6.347,4.5c-2,2.107-2.8,3.921-2.434,5.546a3.49,3.49,0,0,0,3.855,2.581,6.274,6.274,0,0,0,2.017-.858,20.329,20.329,0,0,0,7.629-8.331c.065-.131.139-.278.229-.441.523-1,1.6-3.079.776-3.684A2.226,2.226,0,0,0,311.443,294.691Z" transform="translate(-297.145 -293.67)" fill="#442624"/>
          </g>
          <g id="Group_125" data-name="Group 125" transform="translate(0.835 18.067)">
            <path id="Path_271" data-name="Path 271" d="M299.37,307.97a1.145,1.145,0,0,1-.915-.4c-.588-.678-.278-1.789.948-3.39h0A31.31,31.31,0,0,1,313.174,294l1.4-.523-.792,1.266A40.172,40.172,0,0,1,301.7,306.99,4.9,4.9,0,0,1,299.37,307.97Zm12.669-12.407a30.362,30.362,0,0,0-11.827,9.238h0c-1.086,1.413-1.078,2-.98,2.107.025.033.319.278,1.879-.735A39.416,39.416,0,0,0,312.039,295.563Z" transform="translate(-298.167 -293.48)" fill="#442624"/>
          </g>
        </g>
        <g id="Group_130" data-name="Group 130">
          <g id="Group_127" data-name="Group 127" transform="translate(15.959)">
            <rect id="Rectangle_12" data-name="Rectangle 12" width="27.828" height="1.013" transform="matrix(0.742, -0.671, 0.671, 0.742, 0, 18.662)" fill="#442624"/>
          </g>
          <g id="Group_128" data-name="Group 128" transform="translate(0 18.221)">
            <path id="Path_272" data-name="Path 272" d="M295.071,298.041a4.557,4.557,0,0,1-4.345-3.414c-.441-1.985.441-4.1,2.7-6.469a17.755,17.755,0,0,1,6.739-4.754c3.3-1.184,5.538-1.372,6.649-.555,1.536,1.119.278,3.529-.474,4.974l-.221.425A21.271,21.271,0,0,1,298.1,297a6.825,6.825,0,0,1-2.361.98A3.153,3.153,0,0,1,295.071,298.041Zm9.851-14.67a14.259,14.259,0,0,0-4.427.988h0a16.825,16.825,0,0,0-6.346,4.5c-2,2.107-2.8,3.921-2.434,5.546a3.49,3.49,0,0,0,3.855,2.581,6.274,6.274,0,0,0,2.018-.858,20.329,20.329,0,0,0,7.629-8.331c.065-.131.139-.278.229-.441.523-1,1.609-3.087.776-3.692A2.332,2.332,0,0,0,304.921,283.371Z" transform="translate(-290.615 -282.35)" fill="#442624"/>
          </g>
          <g id="Group_129" data-name="Group 129" transform="translate(0.835 18.066)">
            <path id="Path_273" data-name="Path 273" d="M292.84,296.65a1.145,1.145,0,0,1-.915-.4c-.588-.678-.278-1.789.948-3.39a31.333,31.333,0,0,1,13.763-10.177l1.4-.523-.792,1.266a40.172,40.172,0,0,1-12.08,12.244A4.831,4.831,0,0,1,292.84,296.65Zm12.669-12.407a30.362,30.362,0,0,0-11.827,9.238h0c-1.086,1.413-1.078,2-.98,2.107.025.033.319.278,1.879-.735A39.188,39.188,0,0,0,305.509,284.243Z" transform="translate(-291.637 -282.16)" fill="#442624"/>
          </g>
        </g>
      </g>
      <path id="Path_274" data-name="Path 274" d="M379.764,260.38a4.872,4.872,0,0,0-1.658-3.1c-6.575-5.856-13.15-12.424-19.726-18.182a6.848,6.848,0,0,0-2.548-1.634,6.457,6.457,0,0,0-3.48.327A58.516,58.516,0,0,0,326.566,253.6a4.277,4.277,0,0,0-.033,5.767A183.525,183.525,0,0,0,361.083,289.8a4,4,0,0,0,2.875.988,3.955,3.955,0,0,0,2.026-1.47c3.218-3.627,6.15-6.51,8.593-10.692C377.812,273.057,380.458,266.678,379.764,260.38Zm-3.814,2.7a10.965,10.965,0,0,1-.858,4.607,3.714,3.714,0,0,1-3.823,2.165,5.426,5.426,0,0,1-2.352-1.487c-5.1-4.631-6.91-5.979-11.86-10.765a4.2,4.2,0,0,1-1.5-2.32,3.488,3.488,0,0,1,.6-2.1c.89-1.536,2.785-3.79,4.631-4.19,1.911-.417,3.659,1.291,4.974,2.524,4.027,3.765,4.835,4.174,8.862,7.939a4.733,4.733,0,0,1,1,1.168A4.894,4.894,0,0,1,375.949,263.084Z" transform="translate(-296.994 -237.331)" fill="#eaddd6"/>
      <path id="Path_275" data-name="Path 275" d="M337.79,263.974c4.876-7.751,11.247-14.441,17.659-20.984a8.765,8.765,0,0,1,3.9-2.663,2.654,2.654,0,0,1,.351-.065c-.433-.392-.874-.784-1.307-1.168a6.848,6.848,0,0,0-2.548-1.634,6.457,6.457,0,0,0-3.48.327A58.516,58.516,0,0,0,326.576,253.6a4.277,4.277,0,0,0-.033,5.767c3,3.406,6.142,6.673,9.385,9.842A10.035,10.035,0,0,1,337.79,263.974Z" transform="translate(-296.995 -237.331)" fill="#fff0e8"/>
      <path id="Path_276" data-name="Path 276" d="M374.723,276.8c-.376-.286-.866-.588-1.291-.368a.864.864,0,0,0-.351,1,2.248,2.248,0,0,0,.662.931,15.022,15.022,0,0,0,1.895,1.56,2.355,2.355,0,0,0,.923.441.86.86,0,0,0,.89-.368C378.113,278.818,375.393,277.307,374.723,276.8Z" transform="translate(-305.716 -244.481)" fill="#ea8b54"/>
      <path id="Path_277" data-name="Path 277" d="M368.433,271.241c-.376-.286-.866-.588-1.291-.368a.864.864,0,0,0-.351,1,2.249,2.249,0,0,0,.662.931,15.019,15.019,0,0,0,1.895,1.56,2.354,2.354,0,0,0,.923.441.86.86,0,0,0,.89-.368C371.823,273.25,369.1,271.747,368.433,271.241Z" transform="translate(-304.564 -243.462)" fill="#c5d621"/>
    </g>
    <path id="Path_278" data-name="Path 278" d="M98.354,300.41a8.324,8.324,0,0,0,1.16,5.277c1.772,2.565,5.481,3.2,8.429,2.2a5.676,5.676,0,0,0,3.1-2.222,5.785,5.785,0,0,0,.743-2.467c.466-4.166-1.813-9.957-5.905-11.754C100.935,289.252,98.607,296.7,98.354,300.41Z" transform="translate(-13.594 -53.321)" fill="#f3dccc"/>
    <path id="Path_279" data-name="Path 279" d="M122.4,297.9a8.234,8.234,0,0,0-4.4,3.128c-1.666,2.63-.809,6.289,1.266,8.617a5.7,5.7,0,0,0,3.259,1.993,5.963,5.963,0,0,0,2.565-.27c4.019-1.193,8.454-5.554,8.519-10.022C133.667,295.927,125.9,296.687,122.4,297.9Z" transform="translate(-17.036 -54.416)" fill="#f3dccc"/>
    <g id="Group_151" data-name="Group 151" transform="translate(57.912 111.463)">
      <g id="Group_133" data-name="Group 133" transform="translate(18.794 32.188)">
        <path id="Path_280" data-name="Path 280" d="M96.709,177.6c2.148-1.111,4.541-2.009,6.935-1.65-.956,2.066-5.228,5.219-6.534,5.979-2.459,1.421-5.693,2.753-8.576,2.679-.376-1.037,2.581-3.243,3.316-3.847A26.963,26.963,0,0,1,96.709,177.6Z" transform="translate(-88.5 -175.872)" fill="#68b5a8"/>
      </g>
      <g id="Group_134" data-name="Group 134" transform="translate(15.696 40.114)">
        <path id="Path_281" data-name="Path 281" d="M95.287,187.809c2.769-1.429,5.856-2.589,8.936-2.132-1.233,2.663-6.739,6.73-8.421,7.7-3.161,1.83-7.335,3.545-11.051,3.455-.49-1.331,3.324-4.174,4.272-4.958A35.187,35.187,0,0,1,95.287,187.809Z" transform="translate(-84.707 -185.576)" fill="#68b5a8"/>
      </g>
      <g id="Group_135" data-name="Group 135" transform="translate(10.577 24.672)">
        <path id="Path_282" data-name="Path 282" d="M78.44,166.67c1.225,5.579,3.488,12.334,7.9,16.254C86.534,172.045,81.438,167.8,78.44,166.67Z" transform="translate(-78.44 -166.67)" fill="#68b5a8"/>
      </g>
      <g id="Group_136" data-name="Group 136" transform="translate(0.727 30.471)">
        <path id="Path_283" data-name="Path 283" d="M66.38,173.77c3.047,7.531,7.841,16.467,14.964,20.91C79.016,179.365,70.856,174.636,66.38,173.77Z" transform="translate(-66.38 -173.77)" fill="#68b5a8"/>
      </g>
      <g id="Group_137" data-name="Group 137" transform="translate(5.554 66.702)">
        <path id="Path_284" data-name="Path 284" d="M72.29,219.649a15.108,15.108,0,0,1,12.211-.466C80.425,224.7,73.319,222.189,72.29,219.649Z" transform="translate(-72.29 -218.127)" fill="#456d9f"/>
      </g>
      <g id="Group_138" data-name="Group 138" transform="translate(11.113 8.998)">
        <path id="Path_285" data-name="Path 285" d="M79.132,226.326a139.9,139.9,0,0,1,22.421-78.846l.711.466A139.085,139.085,0,0,0,79.981,226.3Z" transform="translate(-79.095 -147.48)" fill="#456d9f"/>
      </g>
      <g id="Group_139" data-name="Group 139" transform="translate(0 67.75)">
        <path id="Path_286" data-name="Path 286" d="M71.044,219.884c4.876,6.845,4.656,16.14,2.565,24.275s-5.824,15.83-7.425,24.079-.653,17.708,5.358,23.589a8.489,8.489,0,0,0,1.184.694H82c5.946-9.736,4.835-17.692,3.471-26.709-1.2-7.923-4.108-15.527-5.187-23.475a51.391,51.391,0,0,1-.172-12.473c.433-4,.784-7.2,3.153-10.455C79.931,222.22,75,221.713,71.044,219.884Z" transform="translate(-65.491 -219.41)" fill="#84a6d4"/>
      </g>
      <g id="Group_150" data-name="Group 150" transform="translate(20.854)">
        <g id="Group_140" data-name="Group 140">
          <path id="Path_287" data-name="Path 287" d="M97.62,146.654c1.707-3.365,3.79-6.657,6.82-8.911a4.94,4.94,0,0,1,3.651-1.233,3.838,3.838,0,0,1,2.826,3.087,9.206,9.206,0,0,1-.417,4.378c-2.785,9.712-11.427,20.869-19.358,27.044C90.13,163.538,95.741,150.363,97.62,146.654Z" transform="translate(-91.022 -136.464)" fill="#f27f5a"/>
        </g>
        <g id="Group_141" data-name="Group 141" transform="translate(12.267 3.068)">
          <path id="Path_288" data-name="Path 288" d="M108.262,141.331a1.111,1.111,0,1,1-1.111-1.111A1.112,1.112,0,0,1,108.262,141.331Z" transform="translate(-106.04 -140.22)" fill="#ffce74"/>
        </g>
        <g id="Group_142" data-name="Group 142" transform="translate(14.489 9.716)">
          <path id="Path_289" data-name="Path 289" d="M109.871,148.915a.555.555,0,1,1-.555-.555A.556.556,0,0,1,109.871,148.915Z" transform="translate(-108.76 -148.36)" fill="#ffce74"/>
        </g>
        <g id="Group_143" data-name="Group 143" transform="translate(8.567 19.877)">
          <path id="Path_290" data-name="Path 290" d="M102.621,161.355a.555.555,0,1,1-.555-.555A.567.567,0,0,1,102.621,161.355Z" transform="translate(-101.51 -160.8)" fill="#ffce74"/>
        </g>
        <g id="Group_144" data-name="Group 144" transform="translate(8.567 19.877)">
          <path id="Path_291" data-name="Path 291" d="M102.621,161.355a.555.555,0,1,1-.555-.555A.567.567,0,0,1,102.621,161.355Z" transform="translate(-101.51 -160.8)" fill="#ffce74"/>
        </g>
        <g id="Group_145" data-name="Group 145" transform="translate(16.89 5.657)">
          <path id="Path_292" data-name="Path 292" d="M112.811,143.945a.555.555,0,1,1-.555-.555A.556.556,0,0,1,112.811,143.945Z" transform="translate(-111.7 -143.39)" fill="#ffce74"/>
        </g>
        <g id="Group_146" data-name="Group 146" transform="translate(12.52 6.702)">
          <path id="Path_293" data-name="Path 293" d="M107.461,145.225a.555.555,0,1,1-.555-.555A.556.556,0,0,1,107.461,145.225Z" transform="translate(-106.35 -144.67)" fill="#ffce74"/>
        </g>
        <g id="Group_147" data-name="Group 147" transform="translate(9.67 14.642)">
          <path id="Path_294" data-name="Path 294" d="M103.971,154.945a.555.555,0,1,1-.555-.555A.556.556,0,0,1,103.971,154.945Z" transform="translate(-102.86 -154.39)" fill="#ffce74"/>
        </g>
        <g id="Group_148" data-name="Group 148" transform="translate(9.114 9.92)">
          <path id="Path_295" data-name="Path 295" d="M103.291,149.165a.555.555,0,1,1-.555-.555A.556.556,0,0,1,103.291,149.165Z" transform="translate(-102.18 -148.61)" fill="#ffce74"/>
        </g>
        <g id="Group_149" data-name="Group 149" transform="translate(3.748 24.672)">
          <path id="Path_296" data-name="Path 296" d="M96.721,167.225a.555.555,0,1,1-.555-.555A.556.556,0,0,1,96.721,167.225Z" transform="translate(-95.61 -166.67)" fill="#ffce74"/>
        </g>
      </g>
    </g>
    <rect id="Rectangle_13" data-name="Rectangle 13" width="6.641" height="26.203" transform="translate(61.53 60.859)" fill="#945f2f"/>
    <rect id="Rectangle_14" data-name="Rectangle 14" width="6.641" height="26.203" transform="translate(177.156 60.859)" fill="#945f2f"/>
    <g id="Group_155" data-name="Group 155" transform="translate(54.479 26.369)">
      <g id="Group_152" data-name="Group 152" transform="translate(6.697 2.904)">
        <path id="Path_297" data-name="Path 297" d="M70.078,35.84a78.453,78.453,0,0,0-.572,11.337c.082,3.9.686,8.241,3.725,10.684,2.369,1.911,5.636,2.156,8.683,2.263,5.677.2,11.37.245,17.047-.082,10.414-.6,12.734-2.769,13.812-7.327s.057-12.219-.515-16.867C98.053,36.4,84.282,35.881,70.078,35.84Z" transform="translate(-69.487 -35.84)" fill="#eaddd6"/>
      </g>
      <g id="Group_153" data-name="Group 153" transform="translate(0 0.016)">
        <path id="Path_298" data-name="Path 298" d="M68.861,41.343a16.669,16.669,0,0,0-1.74-1.274c-.392-.253-.8-.482-1.2-.711-.613-.351-1.242-.711-1.838-1.135a7.134,7.134,0,0,1-2.573-2.949,2.419,2.419,0,0,1-.221-1.046,2.118,2.118,0,0,1,1.8-1.879,4.12,4.12,0,0,1,2.116.286,15.759,15.759,0,0,1,5.113,3.006l-1.037,1.184a14.2,14.2,0,0,0-4.6-2.7,2.744,2.744,0,0,0-1.307-.221c-.261.049-.5.245-.506.408a.994.994,0,0,0,.1.359A5.524,5.524,0,0,0,64.99,36.94c.539.384,1.119.711,1.723,1.062.425.245.849.49,1.258.751a17.6,17.6,0,0,1,1.911,1.4Z" transform="translate(-61.288 -32.304)" fill="#eaddd6"/>
      </g>
      <g id="Group_154" data-name="Group 154" transform="translate(48.356)">
        <path id="Path_299" data-name="Path 299" d="M121.936,41.339l-1.013-1.209a18.758,18.758,0,0,1,1.911-1.4c.417-.261.833-.506,1.258-.751.6-.351,1.176-.678,1.723-1.062a5.583,5.583,0,0,0,2.026-2.271.993.993,0,0,0,.1-.359c-.008-.163-.253-.359-.506-.408a2.744,2.744,0,0,0-1.307.221,14.2,14.2,0,0,0-4.6,2.7l-1.037-1.184a15.845,15.845,0,0,1,5.113-3.006,4.12,4.12,0,0,1,2.116-.286,2.143,2.143,0,0,1,1.8,1.879,2.306,2.306,0,0,1-.221,1.045,7.085,7.085,0,0,1-2.573,2.949c-.6.425-1.233.784-1.838,1.135q-.613.343-1.2.711A17.236,17.236,0,0,0,121.936,41.339Z" transform="translate(-120.49 -32.284)" fill="#eaddd6"/>
      </g>
    </g>
    <g id="Group_156" data-name="Group 156" transform="translate(131.881 64.97)">
      <path id="Path_300" data-name="Path 300" d="M192.547,80.137a12.146,12.146,0,0,0-10.267,1.307,411.77,411.77,0,0,1,.931,51.189c1.772.972,3.806,1.813,5.636.956C187.409,116.117,189.411,97.387,192.547,80.137Z" transform="translate(-160.855 -79.542)" fill="#442624"/>
      <ellipse id="Ellipse_6" data-name="Ellipse 6" cx="25.958" cy="24.275" rx="25.958" ry="24.275" transform="translate(0 44.563)" fill="#442624"/>
      <ellipse id="Ellipse_7" data-name="Ellipse 7" cx="21.269" cy="20.526" rx="21.269" ry="20.526" transform="matrix(0.969, -0.246, 0.246, 0.969, 0.164, 54.502)" fill="#73413d"/>
    </g>
    <path id="Path_301" data-name="Path 301" d="M142.009,121.807q-1.544-11.664-2.5-23.385c-.31-3.79-.564-7.653.343-11.345a7.251,7.251,0,0,1,1.993-3.823,3.366,3.366,0,0,1,4.027-.49c1.168.817,1.446,2.41,1.576,3.831,1.348,14.22-1.732,28.449-2.875,42.694a12.551,12.551,0,0,0,.384,5.407,26.326,26.326,0,0,0,1.862,3.39c2.475,4.46,2.254,9.859,1.968,14.947-.065.065-.319-.2-.384-.139h-9.7c-.392-3.88-1.193-7.915.261-11.533.547-1.356,1.331-2.606,1.928-3.945C143.054,132.548,142.711,127.084,142.009,121.807Z" transform="translate(-20.886 -15.077)" fill="#025e2b"/>
    <g id="Group_157" data-name="Group 157" transform="translate(113.553 -0.003)">
      <path id="Path_302" data-name="Path 302" d="M138.805,8.395a31.261,31.261,0,0,1,6.959-1.846,11.578,11.578,0,0,1,6.992,1.193c-1.634,2.859-1.944,6.877-1.732,10.161.547,8.625,7.588,16.189,6.779,24.8-.433,4.607-3.128,8.748-6.485,11.925.106-.016-.286.27-.4.27h-13c-3.659-4.133-5.1-11.411-3.88-16.793.776-3.447,2.565-6.559,4.182-9.7s3.087-6.485,3.153-10.014-1.609-7.3-4.827-8.764C137.441,9.22,137.874,8.721,138.805,8.395Z" transform="translate(-133.611 -1.18)" fill="#025e2b"/>
      <path id="Path_303" data-name="Path 303" d="M162.745,20.408c3.61-1.952,8.438-2.058,11.558.6,3.9,3.333,3.627,10.006.147,13.779-2.516,2.728-6.2,4.108-8.887,6.673a7.441,7.441,0,0,0-2.344,3.937,4.008,4.008,0,0,0,1.6,4.084,2.772,2.772,0,0,0,3.929-1.119,2.479,2.479,0,0,1-.923,2.834,3.931,3.931,0,0,1-3.071.539,5.771,5.771,0,0,1-4.01-7.49c1.078-2.63,3.9-3.994,6.257-5.579a23.367,23.367,0,0,0,6.15-6.069c1.65-2.385,2.8-5.758,1.021-8.054A5.9,5.9,0,0,0,169.72,22.6c-5.064-.221-9.606,3.308-12.464,7.49-.6.874-1.968,2.23-2.875.874-.588-.882.988-2.875,1.413-3.545A19.51,19.51,0,0,1,162.745,20.408Z" transform="translate(-137.392 -3.474)" fill="#025e2b"/>
      <path id="Path_304" data-name="Path 304" d="M144.844,3.506a7.776,7.776,0,0,1,4.378.188,3.63,3.63,0,0,1,1.658.833,3.478,3.478,0,0,1,.727,1.291,2.09,2.09,0,0,1-.114,2.156,2.205,2.205,0,0,1-.7.433,16.162,16.162,0,0,1-4.819,1.266c-1.438.147-3.855.392-5.187-.286C138.481,8.2,143.381,3.956,144.844,3.506Z" transform="translate(-134.814 -0.596)" fill="#025e2b"/>
      <path id="Path_305" data-name="Path 305" d="M146.224,3.814a2.736,2.736,0,0,1-1.119-1.38A1.941,1.941,0,0,1,145.317.7a1.776,1.776,0,0,1,2.026-.6,1.869,1.869,0,0,1,1.16,1.789,2.011,2.011,0,0,1-1.266,1.74,3.875,3.875,0,0,0-.858.327" transform="translate(-135.696 0.003)" fill="#025e2b"/>
    </g>
  </g>
</svg>
