<svg xmlns="http://www.w3.org/2000/svg" viewBox="0 0 133.77 133.77"><defs><style>.cls-1{fill:#116036;}.cls-2{fill:#fff;fill-rule:evenodd;}</style></defs><g id="Layer_2" data-name="Layer 2"><g id="Layer_1-2" data-name="Layer 1"><path class="cls-1" d="M133.77,66.88A66.89,66.89,0,1,1,66.88,0,66.89,66.89,0,0,1,133.77,66.88Z"/><path class="cls-2" d="M67.4,73.4c.77-1.16,1.56-2.31,2.41-3.41A4.69,4.69,0,0,1,71,68.51l1.89-2.12a9.54,9.54,0,0,1,1.67-1.69l.21-.19a5.85,5.85,0,0,1,1.66-1.59L78.59,61a5.48,5.48,0,0,1,1.73-1.48,10.61,10.61,0,0,0,1.46-1.22c0-.22.18-.31.32-.42.89-.71,1.78-1.44,2.71-2.11a.75.75,0,0,1,.24-.15h.07a12.24,12.24,0,0,0,1.68-1.2L89,52.8a1.43,1.43,0,0,1,.83-.57l2.57-1.81a.23.23,0,0,1,.26.09,4.62,4.62,0,0,1,.94,1.62l.07.1c.19.08.25.25.34.41a18.79,18.79,0,0,1,1.14,2.5.75.75,0,0,1,.07.57,1.24,1.24,0,0,0,.1.2,4.77,4.77,0,0,1,.59,1.63,3.67,3.67,0,0,1,.21,1.58,29.86,29.86,0,0,1,.29,5.59,2.07,2.07,0,0,1-.12,1.6c-.25,1.53-.5,3.06-.89,4.56-.21.85-.45,1.69-.68,2.54.12.22,0,.42-.07.61-.33.94-.67,1.87-1,2.79s-.74,1.54-1.12,2.31a.7.7,0,0,1-.31.37l-.59,1.09a1.49,1.49,0,0,1-.29.67c-.47.78-1,1.52-1.54,2.26a1,1,0,0,1-.43.39,5.6,5.6,0,0,0-.82,1c0,.06,0,.14-.07.18a14,14,0,0,1-2.67,2.6c-.32.13-.5.43-.75.64a1.67,1.67,0,0,1-.55.57,27.08,27.08,0,0,1-2.22,1.59,1.51,1.51,0,0,1-.67.3A38.94,38.94,0,0,1,74.47,94c-1.84.62-3.71,1.08-5.57,1.56-.34.09-.67.2-1,.31a.91.91,0,0,1,.12-.61A38.55,38.55,0,0,1,72.71,86c2.22-3.35,4.67-6.56,6.94-9.88a1.3,1.3,0,0,0,.22-.44c-4.8,4.24-10,8-14.24,13C61.41,79.89,55.79,72,51,63.63c.31.95.61,1.91.92,2.87,1.72,5.31,3.71,10.54,5.45,15.85.85,2.61,1.64,5.23,2.29,7.9,0,.08,0,.16.06.29a20.75,20.75,0,0,1-2.47-.64A26.55,26.55,0,0,1,42.72,79.58,29.42,29.42,0,0,1,38,67.77a44.13,44.13,0,0,1,3.26-26.23,28.15,28.15,0,0,1,1.84-3.37c.21-.32.35-.39.68-.13,1.52,1.16,3,2.39,4.4,3.68a2,2,0,0,1,1.08,1c.79.81,1.59,1.61,2.38,2.41a5.83,5.83,0,0,1,1.21,1.22,11.65,11.65,0,0,1,1.72,2.17c.71.93,1.41,1.86,2.12,2.78a1.18,1.18,0,0,1,.58.81l2.37,3.71a.81.81,0,0,1,.42.69c.49.94,1,1.87,1.48,2.8a2.48,2.48,0,0,1,.6,1c.31.65.59,1.32.89,2a1.62,1.62,0,0,1,.12.57,7.09,7.09,0,0,0,.58,1.49,4.17,4.17,0,0,1,.69,1.86c0,.07,0,.16,0,.23l1,3.59a1.39,1.39,0,0,1,.31.82c.26,1.27.53,2.54.68,3.91C66.82,74.29,66.93,73.71,67.4,73.4Z"/></g></g></svg>