<svg xmlns="http://www.w3.org/2000/svg" viewBox="0 0 159.4 159.4"><defs><style>.cls-1{fill:#0f6026;}.cls-2{fill:#fff;}</style></defs><g id="Layer_2" data-name="Layer 2"><g id="Layer_1-2" data-name="Layer 1"><circle class="cls-1" cx="79.7" cy="79.7" r="79.7"/><path class="cls-2" d="M108,45.1l-.43.55c-.09,1.07-.13,2.15-.3,3.2-1.3,7.85-3.61,15.35-8.07,22-5,7.47-11.62,12.52-20.56,14.67C65.25,88.78,56.33,97.12,52,110.23a19.27,19.27,0,0,0-.82,3.61,1.49,1.49,0,0,0,1.55,1.84,3.73,3.73,0,0,0,2-1.36c.34-.39.22-1.15.4-1.71.83-2.57,1.7-5.13,2.62-7.91.68.5.94.67,1.19.87,7.26,5.9,15.34,8.77,24.82,7,10.94-2.06,18.7-8,22.94-18.34,2.07-5.09,2.39-10.48,2.72-15.88A173.73,173.73,0,0,0,108,45.1Z"/><path class="cls-2" d="M107.66,45.69c0-.6-.14-1.22-.19-2a50.56,50.56,0,0,1-19.34,8.84C83.61,53.55,79,54,74.44,55c-6.88,1.57-13,4.64-17.82,10-6.33,7-8,15.33-6.3,24.46a26.43,26.43,0,0,0,3.14,9,6.5,6.5,0,0,1,.42-.78A38.29,38.29,0,0,1,77.94,83,30.71,30.71,0,0,0,96.41,71.87c4.94-6,7.77-13,9.67-20.48.49-1.92,1.12-3.83,1.61-5.74h.13Z"/></g></g></svg>