<svg xmlns="http://www.w3.org/2000/svg" viewBox="0 0 188.42 188.42"><defs><style>.cls-1{fill:#0f6026;}.cls-2{fill:#6bcf29;}.cls-3{fill:#cc6d37;}.cls-4{fill:#f4e0c7;}.cls-5{fill:#ea8654;}</style></defs><g id="Layer_2" data-name="Layer 2"><g id="Layer_1-2" data-name="Layer 1"><circle class="cls-1" cx="94.21" cy="94.21" r="94.21"/><path class="cls-2" d="M180.64,94.21A86.43,86.43,0,1,1,94.21,7.78,86.42,86.42,0,0,1,180.64,94.21Z"/><circle class="cls-1" cx="94.21" cy="94.21" r="79.7"/><path class="cls-3" d="M106.74,66.57s-39.44-15-55.86,18.82S68.7,124.64,68.7,124.64s52.86,6.4,63.87-11C132.57,113.63,154.4,91.2,106.74,66.57Z"/><path class="cls-4" d="M147.42,61.62c-.22-2.93-3.43-6.11-7-4.37-3.83,1.89-1.56,6.51-5.89,8.27l-7,2.83.7,2.13-.7.23,1.13,1.1,0,.1,0,0,2.95,2.84,6.31-4.12c3.91-2.56,6.41,2,10.15-.13C152.2,68.28,150.52,62.67,147.42,61.62Z"/><path class="cls-5" d="M130,70.09a11.37,11.37,0,0,0-4.84-3.17c-6.14-2.07-14.55-2.79-20.67-.61-5.39,1.91-11,6.27-14.79,10.47C85.63,81.3,81,89.46,84.81,95.33s12.68,7.31,19.2,6.44c10.66-1.44,22.08-8.36,27.53-17.89A11.78,11.78,0,0,0,130,70.09Z"/></g></g></svg>