<svg xmlns="http://www.w3.org/2000/svg" viewBox="0 0 124.56 124.56"><defs><style>.cls-1{fill:#008048;}.cls-2{fill:#75c04a;}.cls-3{fill:#349f5a;}.cls-3,.cls-4,.cls-5,.cls-6,.cls-7,.cls-9{fill-rule:evenodd;}.cls-4{fill:#d1cbcd;}.cls-5{fill:#866d63;}.cls-6{fill:#49b66f;}.cls-7{fill:#fee22d;}.cls-8{fill:#f8eb9f;}.cls-9{fill:#94c16b;}</style></defs><g id="Layer_2" data-name="Layer 2"><g id="Layer_1-2" data-name="Layer 1"><path class="cls-1" d="M124.56,62.28A62.28,62.28,0,1,1,62.28,0,62.28,62.28,0,0,1,124.56,62.28Z"/><path class="cls-2" d="M119.42,62.28A57.14,57.14,0,1,1,62.28,5.14,57.14,57.14,0,0,1,119.42,62.28Z"/><path class="cls-1" d="M115,62.28A52.69,52.69,0,1,1,62.28,9.59,52.69,52.69,0,0,1,115,62.28Z"/><g id="rMopTv.tif"><path class="cls-3" d="M49,32.63c-8.53-.34-14.89,4.13-20.92,9.75a10.87,10.87,0,0,1,.34-4.17,17.78,17.78,0,0,1,16.1-14.12c.18,0,.39.05.48-.2h1.55c.91.19,1.85.09,2.75.26a17.59,17.59,0,0,1,12.84,9.51,1,1,0,0,1,.14,1c-.4.25-.68,0-1-.22a15.79,15.79,0,0,0-10.17-1.81C50.48,32.71,49.76,33.1,49,32.63Z"/><path class="cls-4" d="M50.46,97a.33.33,0,0,0,0-.17,2.67,2.67,0,0,1,2.74,0c0,.05,0,.1,0,.15Z"/><path class="cls-5" d="M53.19,96.88l-2.74,0a13,13,0,0,1-5.18-1.37,4.69,4.69,0,0,1-2.64-3.36,1,1,0,0,1,.3-1c7.13-6.71,11.16-15.21,13.9-24.42A60,60,0,0,0,59,57.39a2.74,2.74,0,0,1,.23-1.6A58.53,58.53,0,0,0,62,41.32c.15-1.93.13-3.86.34-5.78a.81.81,0,0,1,0-.31.27.27,0,0,1,.19-.2c.86.33,1.69.7,1.91,1.74.18,4,.13,8,0,12.08-.11,5.09-.28,10.18-.69,15.25-.67,8.19-1.54,16.34-4.06,24.22a28.74,28.74,0,0,1-3,6.48A3.73,3.73,0,0,1,53.19,96.88Z"/><path class="cls-6" d="M64.46,36.77a8.51,8.51,0,0,0-1.81-1.68.21.21,0,0,1,0-.33.58.58,0,0,1,.17-.06,9.74,9.74,0,0,1,3.88-1,33.07,33.07,0,0,1,3.45,0A1,1,0,0,1,71,34a3,3,0,0,0,1.25.44A19.8,19.8,0,0,1,85.12,45.06,23.13,23.13,0,0,1,86.23,64.5a11.49,11.49,0,0,1-1.82,3.22c-1-2-2-3.89-3-5.81C79.14,57.3,77,52.6,74.35,48.19A50.91,50.91,0,0,0,64.86,37C64.74,36.94,64.59,36.86,64.46,36.77Z"/><path class="cls-3" d="M71,34c-2.59-.06-5.18-.24-7.67.72-.16.06-.35.2-.53,0a13.93,13.93,0,0,1,9.72-7.12c7.27-1.61,14.52,2.6,17.76,9.19.14.29.29.57.44.86a13.5,13.5,0,0,1,1,4.54c-1-.61-1.93-1.17-2.84-1.74a68.89,68.89,0,0,0-7.72-4.36A23.33,23.33,0,0,0,71,34Z"/><path class="cls-6" d="M62.65,34.76v.33l-.18.07-.21.18c-1.74,1-3.71,1.66-5.34,2.89a.24.24,0,0,1-.27,0c-.41-.07-.66.23-1,.4a30.39,30.39,0,0,0-11.2,12.63c-2.11,4.16-4.12,8.37-6.19,12.55-.32.66-.71,1.29-1.16,2.07a12.63,12.63,0,0,1-1.67-3.43c-2.93-9.24-1.6-17.62,5.21-24.8a17.93,17.93,0,0,1,7.5-4.6,3,3,0,0,0,.86-.41c1.62-.11,3.21-.47,4.87-.44a14.94,14.94,0,0,1,7.85,2.18c.15.09.3.42.55.11Z"/></g><path class="cls-7" d="M65.87,47.65c-.68-.24-5,3.43-5.58,3.9a32,32,0,0,0-4.78,4.89A38.06,38.06,0,0,0,49,67.79c-2.4,7.43.2,15.79,9.61,19A24.33,24.33,0,0,0,65.87,88c9.95,0,18-6.57,18-14.53,0-9.67-7.13-18.27-15.87-24.41A10.32,10.32,0,0,0,65.87,47.65Z"/><path class="cls-8" d="M62.82,84.91h0Z"/><path class="cls-8" d="M79.48,75.05A12.06,12.06,0,0,0,78,69.36C75.75,77.19,72,81.07,68.8,83l.78,0C75.06,83,79.47,79.42,79.48,75.05Z"/><path class="cls-9" d="M56.65,38.22c1.64-1.46,3.75-2,5.62-3.09.25.43.58.79.36,1.09-.39.51-.76,3.74-1.05,4.31-2.49,4-4.71,5.69-6,10.23a114.43,114.43,0,0,0-3.1,14.64,1.63,1.63,0,0,1-.31.9c-1.16.87-1.26.81-1.78-.5S49.8,63.18,49.11,62a25.59,25.59,0,0,1,.48-11.08,25.19,25.19,0,0,1,6.83-12.3A1.81,1.81,0,0,0,56.65,38.22Z"/><path class="cls-9" d="M49.11,62a3.8,3.8,0,0,1,1,1.83,14.45,14.45,0,0,0,.48,1.73c.5,1.1.4,1.14,1.43.7.3.3.21.66.17,1a3.82,3.82,0,0,1-.13.36c-.09.32,0,.66-.12.84,0-.12.11-.37.08-.63,2.6-8.75,5.49-17.41,8.19-26.13a6.86,6.86,0,0,0,.25-1.91c0-.39-.1-.86.41-1.07-.9.18-.1-1.7-.18-1.51.25-1.39,1-.53,1.77-1.93.29.26.18.6.17.91-.3,6.8-1,13.54-3.31,20-.14.38,0,.85-.37,1.16a41.81,41.81,0,0,1-5.78,10.44c-.22.27-.44.55-.68.81-.81,1-.83,1-1.37-.12A18.21,18.21,0,0,1,49.11,62Z"/><path class="cls-9" d="M60.85,37.67c0,.39,0,.77,0,1.16-.26,4.18-2.07,7.94-3.24,11.86C55.89,56.48,54,62.23,52.17,68c-.45-.07-.2-.37-.18-.59l0-1.13c.45-2.53.84-5.07,1.35-7.58a72.6,72.6,0,0,1,6-18.64A9.17,9.17,0,0,1,60.85,37.67Z"/></g></g></svg>