<svg xmlns="http://www.w3.org/2000/svg" width="43" height="43" viewBox="0 0 43 43">
  <g id="Group_316" data-name="Group 316" transform="translate(-20.049 -30)">
    <circle id="Ellipse_14" data-name="Ellipse 14" cx="21.5" cy="21.5" r="21.5" transform="translate(20.049 30)" fill="#fff"/>
    <path id="Path_490" data-name="Path 490" d="M3,10H2V4a1,1,0,0,1,.992-1H21.008A.99.99,0,0,1,22,3.988V10H21V20a1,1,0,0,1-.993,1H3.993A1,1,0,0,1,3,20H3Zm16,0H5v9H19ZM4,5V8H20V5Zm5,7h6v2H9Z" transform="translate(30.049 39)" fill="#7283a7"/>
  </g>
</svg>
