<svg xmlns="http://www.w3.org/2000/svg" viewBox="0 0 106.84 106.83"><defs><style>.cls-1{fill:#125e2f;}.cls-2{fill:none;stroke:#fff;stroke-miterlimit:10;stroke-width:2px;}</style></defs><g id="Layer_2" data-name="Layer 2"><g id="Layer_1-2" data-name="Layer 1"><path class="cls-1" d="M106.84,53.42A53.42,53.42,0,1,1,53.42,0,53.42,53.42,0,0,1,106.84,53.42Z"/><rect class="cls-2" x="19.31" y="30.84" width="68.59" height="44.9" rx="5.24"/><path class="cls-2" d="M72.18,67.44c0,2.37-1.6,4.3-3.57,4.3H29c-2,0-3.58-1.93-3.58-4.3V39.13c0-2.37,1.6-4.3,3.58-4.3H68.61c2,0,3.57,1.93,3.57,4.3Z"/><path class="cls-2" d="M83.41,40.44a3.74,3.74,0,1,1-3.74-3.74A3.74,3.74,0,0,1,83.41,40.44Z"/><path class="cls-2" d="M83.41,53.91a3.74,3.74,0,1,1-3.74-3.74A3.74,3.74,0,0,1,83.41,53.91Z"/><path class="cls-2" d="M83.41,69.42a1.32,1.32,0,0,1-1.32,1.32H77.25a1.32,1.32,0,0,1-1.32-1.32h0a1.33,1.33,0,0,1,1.32-1.32h4.84a1.33,1.33,0,0,1,1.32,1.32Z"/><path class="cls-2" d="M36,77.48a1.74,1.74,0,0,1-1.74,1.74H29a1.74,1.74,0,0,1-1.75-1.74h0A1.75,1.75,0,0,1,29,75.73h5.24A1.74,1.74,0,0,1,36,77.48Z"/><path class="cls-2" d="M81.92,77.48a1.75,1.75,0,0,1-1.75,1.74H74.93a1.74,1.74,0,0,1-1.74-1.74h0a1.74,1.74,0,0,1,1.74-1.75h5.24a1.75,1.75,0,0,1,1.75,1.75Z"/><path class="cls-2" d="M38.64,46.18c-.32,2.78-1.6,4.12-.19,6.91,1.23,2.45,2.5,5-.06,7.3"/><path class="cls-2" d="M48.74,46.18c-.32,2.78-1.59,4.12-.19,6.91,1.23,2.45,2.5,5-.06,7.3"/><path class="cls-2" d="M58.84,46.18c-.32,2.78-1.59,4.12-.19,6.91,1.24,2.45,2.51,5-.06,7.3"/></g></g></svg>