<svg xmlns="http://www.w3.org/2000/svg" viewBox="0 0 188.42 188.42"><defs><style>.cls-1{fill:#0f6026;}.cls-2{fill:#6bcf29;}.cls-3{fill:#b6eeff;}.cls-4{fill:#fff;}.cls-5{fill:#b27940;}.cls-6{fill:#fcb9d9;}.cls-7{fill:#dd97bc;}</style></defs><g id="Layer_2" data-name="Layer 2"><g id="Layer_1-2" data-name="Layer 1"><circle class="cls-1" cx="94.21" cy="94.21" r="94.21"/><path class="cls-2" d="M180.64,94.21A86.43,86.43,0,1,1,94.21,7.78,86.42,86.42,0,0,1,180.64,94.21Z"/><circle class="cls-1" cx="94.21" cy="94.21" r="79.7"/><rect class="cls-3" x="75.39" y="42.21" width="43" height="6"/><path class="cls-4" d="M74.76,48.87,70.39,66.11v76.1h53V65.66l-4.11-16.74S91.78,42.88,74.76,48.87Z"/><rect class="cls-3" x="70.39" y="76.21" width="53" height="48"/><path class="cls-5" d="M87.94,89.34c-.75-.87-2.24-3.58-1.25-4.71,1.69-1.91,4.29,3.12,4.15,4.62"/><path class="cls-4" d="M86.63,91.54c-1.86-2.42-6.36-5.32-9.55-5,0,0,1.19,2.54,1.28,2.72,1.07,2.08,3.87,4.49,6.44,3.44"/><path class="cls-5" d="M105,89.34c.75-.87,2.24-3.58,1.25-4.71-1.69-1.91-4.29,3.12-4.15,4.62"/><path class="cls-4" d="M106.32,91.54c1.86-2.42,6.35-5.32,9.55-5,0,0-1.19,2.54-1.29,2.72-1.06,2.08-3.86,4.49-6.43,3.44"/><path class="cls-4" d="M82.55,107.61c-3.19-9.18,3.17-22.13,14.08-22,6.51.1,11.25,4.36,13.42,10.2,2.83,7.59,3.09,13.46-4.34,18.06a16.71,16.71,0,0,1-16.55,1A12.4,12.4,0,0,1,82.55,107.61Z"/><path class="cls-6" d="M84.09,111.91c-1.62-9.7,15.77-12,21.91-8.91,2.79,1.39,6.1,4.17,5,7.71-1,3.21-5.31,4.21-8.12,5.13-4.33,1.41-15.72,3.36-18.22-2.18A7,7,0,0,1,84.09,111.91Z"/><path d="M93,96.53c.57,3.59-6.68,3.91-6-.47.53-3.32,4.88-2.88,5.84-.06A3,3,0,0,1,93,96.53Z"/><path class="cls-4" d="M91.8,96.51c.19,1.14-2.12,1.24-1.89-.15.16-1,1.54-.91,1.85,0A1.36,1.36,0,0,1,91.8,96.51Z"/><path class="cls-4" d="M89.41,97.37c0-.25.46-.27.41,0s-.34.2-.4,0A.06.06,0,0,1,89.41,97.37Z"/><path class="cls-4" d="M102.48,96.39c0-.25.47-.27.42,0s-.34.2-.41,0C102.49,96.41,102.48,96.4,102.48,96.39Z"/><path d="M99.38,96c-.57,3.6,6.68,3.92,6-.47-.53-3.32-4.88-2.87-5.85,0A4,4,0,0,0,99.38,96Z"/><path class="cls-4" d="M100.3,96c-.18,1.14,2.12,1.24,1.9-.15-.17-1-1.55-.91-1.85,0A1.54,1.54,0,0,0,100.3,96Z"/><path class="cls-7" d="M93.84,110a2.11,2.11,0,1,1-2.11-2.11A2.11,2.11,0,0,1,93.84,110Z"/><path class="cls-7" d="M104.67,109a2.11,2.11,0,1,1-2.11-2.1A2.11,2.11,0,0,1,104.67,109Z"/><path class="cls-4" d="M102.62,96.39c0-.25.47-.27.42,0s-.34.2-.41,0C102.63,96.41,102.62,96.4,102.62,96.39Z"/></g></g></svg>