<svg xmlns="http://www.w3.org/2000/svg" width="42" height="42" viewBox="0 0 42 42">
  <g id="Group_186" data-name="Group 186" transform="translate(-281 -323)">
    <circle id="Ellipse_13" data-name="Ellipse 13" cx="21" cy="21" r="21" transform="translate(281 323)" fill="rgba(2,94,43,0.2)"/>
    <g id="Group_185" data-name="Group 185" transform="translate(293 334)">
      <path id="Path_316" data-name="Path 316" d="M-71.213-167a5.276,5.276,0,0,0-5.287,5.253,5.276,5.276,0,0,0,5.287,5.253,5.276,5.276,0,0,0,5.287-5.253A5.276,5.276,0,0,0-71.213-167Zm0,9.338a4.1,4.1,0,0,1-4.112-4.085,4.1,4.1,0,0,1,4.112-4.085,4.1,4.1,0,0,1,4.112,4.085,4.1,4.1,0,0,1-4.112,4.085Zm0,0" transform="translate(80.002 167)" fill="#025e2b" stroke="#025e2b" stroke-width="0.6"/>
      <path id="Path_317" data-name="Path 317" d="M-128.65,60.264A7.532,7.532,0,0,0-134.039,58h-2.344a7.532,7.532,0,0,0-5.389,2.264,7.639,7.639,0,0,0-2.228,5.4.585.585,0,0,0,.586.584h16.406a.585.585,0,0,0,.586-.584,7.639,7.639,0,0,0-2.228-5.4ZM-142.8,65.081a6.475,6.475,0,0,1,6.419-5.914h2.344a6.475,6.475,0,0,1,6.42,5.914Zm0,0" transform="translate(144 -46.248)" fill="#025e2b" stroke="#025e2b" stroke-width="0.6"/>
    </g>
  </g>
</svg>
