<?xml version="1.0" encoding="utf-8"?>
<!-- Svg Vector Icons : http://www.onlinewebfonts.com/icon -->
<!DOCTYPE svg PUBLIC "-//W3C//DTD SVG 1.1//EN" "http://www.w3.org/Graphics/SVG/1.1/DTD/svg11.dtd">
<svg version="1.1" xmlns="http://www.w3.org/2000/svg" xmlns:xlink="http://www.w3.org/1999/xlink" x="0px" y="0px" viewBox="0 0 1000 1000" enable-background="new 0 0 1000 1000" xml:space="preserve">
<metadata> Svg Vector Icons : http://www.onlinewebfonts.com/icon </metadata>
<g><g transform="translate(0.000000,511.000000) scale(0.100000,-0.100000)"><path d="M4692.1,4638.1c-808.6-146.6-1407.5-720.2-1538.9-1475.8c-20.2-126.3-20.2-252.7,0-515.5c17.7-189.5,35.4-366.4,43-389.2c10.1-30.3-5.1-53.1-45.5-68.2c-55.6-20.2-144-106.1-181.9-171.8c-7.6-15.1-27.8-88.4-40.4-159.2c-53.1-283,75.8-745.5,270.4-960.3c63.2-70.8,126.4-126.4,144-126.4c17.7,0,45.5-85.9,70.8-209.7c48-262.8,149.1-490.2,308.3-697.4l121.3-159.2l-10.1-333.5c-10.1-351.3-32.8-427.1-151.6-538.3c-32.8-30.3-101.1-73.3-151.6-93.5c-123.8-53.1-1053.8-338.6-1523.8-470c-432.1-121.3-682.3-227.4-909.7-389.1c-533.2-381.6-887-1084.1-978-1940.8C90.4-4310,93-4335.3,135.9-4383.3c45.5-50.5,53.1-50.5,4864.5-50.5c4637.1,0,4821.5,2.5,4859.5,45.5c53.1,58.1,53.1,141.5,2.5,477.6c-98.6,672.2-371.5,1261-745.5,1612.2c-313.4,295.7-545.8,406.9-1291.3,616.6c-861.7,245.1-1397.4,424.5-1485.9,497.8c-136.5,116.2-161.7,192-171.8,555.9l-10.1,333.5l121.3,159.2c159.2,207.2,260.3,434.6,308.3,697.4c22.8,116.2,53.1,209.7,68.2,209.7c48,0,209.7,184.5,272.9,315.9c139,280.5,197.1,694.9,121.3,884.5c-37.9,96-123.8,187-202.2,217.3c-42.9,17.7-55.6,37.9-45.5,80.9c7.6,30.3,27.8,204.7,45.5,389.2c20.2,252.7,20.2,374,0,502.9C6728.9,3839.6,6215.9,4393,5526,4587.6C5318.8,4645.7,4881.6,4673.5,4692.1,4638.1z M5425,4345c384.1-98.6,725.3-336.1,937.5-654.5c232.5-348.7,278-659.6,192-1339.3c-20.2-166.8-37.9-305.8-37.9-308.3c-2.5-32.8,98.6-83.4,164.3-83.4c123.8,0,149.1-63.2,131.4-313.3c-20.2-331-176.9-652-303.2-629.2c-88.4,17.7-144-53.1-144-176.9c-2.5-298.2-144-664.6-343.7-876.9l-111.2-118.8v-379.1c0-432.1,30.3-576.2,159.2-745.5c50.5-63.2,139-136.4,219.9-179.4c154.1-78.3,674.7-245.1,1478.3-475.1c573.6-164.3,803.6-257.8,1028.5-427.1c285.6-212.3,548.4-616.6,684.8-1051.2c70.8-219.9,144-578.7,144-694.9v-73.3H5000.4H376v96c0,123.8,83.4,507.9,154.2,712.6c141.5,411.9,396.7,801.1,662.1,1000.7c219.9,166.8,454.9,270.4,876.9,389.1c722.7,204.7,1455.6,437.2,1609.7,507.9c164.3,78.3,252.7,164.3,341.1,336.1c48,91,55.6,154.1,65.7,535.7l10.1,432.1L3979.5-39.3c-204.7,229.9-341.1,581.2-343.7,879.4c0,123.8-55.6,194.6-144,176.9c-126.4-22.8-283,298.2-303.2,629.2c-17.7,250.2,7.6,313.3,131.4,313.3c65.7,0,166.8,50.5,164.3,83.4c0,2.5-17.7,141.5-37.9,308.3c-85.9,679.8-40.4,990.6,192.1,1339.3C4017.4,4254,4740.1,4521.9,5425,4345z"/></g></g>
</svg>