<svg xmlns="http://www.w3.org/2000/svg" viewBox="0 0 133.77 133.77"><defs><style>.cls-1{fill:#116036;}.cls-2{fill:#fff;fill-rule:evenodd;}</style></defs><g id="Layer_2" data-name="Layer 2"><g id="Layer_1-2" data-name="Layer 1"><path class="cls-1" d="M133.77,66.88A66.89,66.89,0,1,1,66.89,0,66.88,66.88,0,0,1,133.77,66.88Z"/><path class="cls-2" d="M47.54,39.51c1.16.33,2.32.64,3.46,1,1,.3,1.93.61,2.86,1,1.45.62,2.86,1.32,4.28,2a6.65,6.65,0,0,1,.74.41c.52.32,1,.09,1.5,0,1.14-.3,2.27-.63,3.42-.88a28.92,28.92,0,0,1,6-.57,27.53,27.53,0,0,1,5.51.54c1,.21,2,.43,3,.7a27.24,27.24,0,0,1,5.35,2.16,26.52,26.52,0,0,1,5.1,3.5,23.47,23.47,0,0,1,4,4.46,22.38,22.38,0,0,1,2.4,4.47,20.27,20.27,0,0,1,1.4,5.56A21.49,21.49,0,0,1,96.22,70a22.94,22.94,0,0,1-1.33,4.42A21.82,21.82,0,0,1,92.28,79c-.32.41-.63.84-1,1.24A1.42,1.42,0,0,0,91,81.42c.13,1,.25,2,.38,2.94.33,2.48.64,5,1,7.41.07.54.17,1.08.21,1.62a.73.73,0,0,1-.8.86c-3.21,0-6.43,0-9.64,0A1.45,1.45,0,0,1,80.71,93c-.16-1.2-.31-2.39-.47-3.58a1.12,1.12,0,0,0-1.41-1c-1.28.32-2.55.68-3.84.93a29.9,29.9,0,0,1-6.88.43A27.42,27.42,0,0,1,63,89.17a1.06,1.06,0,0,0-1.35.8c-.16.8-.22,1.61-.36,2.42A3.88,3.88,0,0,1,61,93.58a1.33,1.33,0,0,1-1.26.67H50.31a.82.82,0,0,1-.92-1.06c.17-1.25.31-2.51.48-3.76.23-1.64.45-3.29.7-4.94a2.13,2.13,0,0,0-.7-2.18A21.55,21.55,0,0,1,45.61,77,22.18,22.18,0,0,1,43.8,73.1a1.11,1.11,0,0,0-1-.77c-1.49-.19-3-.37-4.48-.58a1.39,1.39,0,0,1-1.09-1.54q0-3.22,0-6.45c0-.56,0-1.11,0-1.67a1.53,1.53,0,0,1,1.47-1.62c1.22-.1,2.45-.3,3.68-.47a3.84,3.84,0,0,0,1.07-.28,1,1,0,0,0,.4-.51,21.23,21.23,0,0,1,3.32-6.16,22.35,22.35,0,0,1,2.45-2.78,1.61,1.61,0,0,0,.43-1.9c-.24-.75-.44-1.51-.67-2.27-.41-1.43-.84-2.86-1.26-4.29-.21-.73-.41-1.47-.61-2.2Zm23.09,5.25c-1.19.11-2.38.17-3.55.35a13.49,13.49,0,0,0-2.38.63,1.09,1.09,0,0,0-.57,1.45,1.13,1.13,0,0,0,1.37.61,17.33,17.33,0,0,1,2.13-.5A18,18,0,0,1,73,47.23a8.24,8.24,0,0,1,3,.9,1.1,1.1,0,0,0,1.47-.37,1,1,0,0,0-.22-1.47,5.83,5.83,0,0,0-1.41-.71A16.32,16.32,0,0,0,70.63,44.76ZM50.08,55.23a2.25,2.25,0,1,0,4.5,0A2.18,2.18,0,0,0,52.33,53,2.21,2.21,0,0,0,50.08,55.23Z"/></g></g></svg>