<svg xmlns="http://www.w3.org/2000/svg" width="38" height="38" viewBox="0 0 38 38">
  <g id="Group_347" data-name="Group 347" transform="translate(-20 -541)">
    <path id="Path_512" data-name="Path 512" d="M19,0A19,19,0,1,1,0,19,19,19,0,0,1,19,0Z" transform="translate(20 541)" fill="#7283a7"/>
    <path id="Path_386" data-name="Path 386" d="M16.89,4.654H3.654V16.236l7.687-7.688a.828.828,0,0,1,1.17,0l4.379,4.388ZM2,3.821A.828.828,0,0,1,2.821,3h14.9a.821.821,0,0,1,.821.821V17.069a.828.828,0,0,1-.821.821H2.821A.822.822,0,0,1,2,17.069Zm4.963,5.8A1.654,1.654,0,1,1,8.618,7.963,1.654,1.654,0,0,1,6.963,9.618Z" transform="translate(29 550)" fill="#fff"/>
  </g>
</svg>
