<svg xmlns="http://www.w3.org/2000/svg" viewBox="0 0 106.84 106.83"><defs><style>.cls-1{fill:#125e2f;}.cls-2{fill:none;stroke:#fff;stroke-miterlimit:10;stroke-width:2px;}.cls-3{fill:#fff;}</style></defs><g id="Layer_2" data-name="Layer 2"><g id="Layer_1-2" data-name="Layer 1"><path class="cls-1" d="M106.84,53.42A53.42,53.42,0,1,1,53.42,0,53.42,53.42,0,0,1,106.84,53.42Z"/><rect class="cls-2" x="27.6" y="29.77" width="51.64" height="47.29" rx="3.87"/><path class="cls-2" d="M50.72,42.94a6.82,6.82,0,1,1-6.82-6.81A6.82,6.82,0,0,1,50.72,42.94Z"/><path class="cls-2" d="M70,60.34a7,7,0,1,1-7-6.94A7,7,0,0,1,70,60.34Z"/><path class="cls-2" d="M43.9,53.52a6.82,6.82,0,1,1-6.82,6.82A6.82,6.82,0,0,1,43.9,53.52Z"/><path class="cls-2" d="M63,38.32a4.63,4.63,0,1,1-4.59,4.62A4.6,4.6,0,0,1,63,38.32Z"/><path class="cls-3" d="M57,70.52a.47.47,0,0,1-.47.47H50.32a.47.47,0,0,1-.47-.47h0a.47.47,0,0,1,.47-.47h6.19a.47.47,0,0,1,.47.47Z"/></g></g></svg>