<svg xmlns="http://www.w3.org/2000/svg" xmlns:xlink="http://www.w3.org/1999/xlink" width="182" height="120" viewBox="0 0 182 120">
  <defs>
    <clipPath id="clip-path">
      <rect id="Rectangle_31" data-name="Rectangle 31" width="182" height="120" rx="5" transform="translate(212 316)" fill="#fff"/>
    </clipPath>
  </defs>
  <g id="Mask_Group_6" data-name="Mask Group 6" transform="translate(-212 -316)" clip-path="url(#clip-path)">
    <g id="Group_203" data-name="Group 203" transform="translate(148.075 333)">
      <path id="Path_353" data-name="Path 353" d="M114.588,5h.178a2.5,2.5,0,0,0,0-5H57.193A9.2,9.2,0,0,0,48,9.195V76.139a9.2,9.2,0,0,0,9.193,9.194h50.878a9.2,9.2,0,0,0,9.195-9.194V22.583a9.16,9.16,0,0,0-2.678-6.478Zm-57.4,0h52.4v8.517a9.162,9.162,0,0,0-1.517-.128H57.193a4.195,4.195,0,0,1,0-8.389Zm55.073,71.139a4.2,4.2,0,0,1-4.195,4.194H57.193A4.2,4.2,0,0,1,53,76.139V17.376a9.142,9.142,0,0,0,4.193,1.013h50.878a4.177,4.177,0,0,1,2.424.774c.057.048.117.092.178.134a4.189,4.189,0,0,1,1.592,3.286Z" transform="translate(0)" fill="#f2f3f7" stroke="#f2f3f7" stroke-width="0.5"/>
      <path id="Path_355" data-name="Path 355" d="M160.629,172.653c-.244,0-.49.008-.736.022a12.513,12.513,0,0,0-18.3,0q-.37-.022-.737-.022a12.523,12.523,0,0,0-2.637,24.766v13.459a2.637,2.637,0,0,0,2.637,2.637h19.771a2.637,2.637,0,0,0,2.637-2.637V197.419a12.523,12.523,0,0,0-2.638-24.766ZM143.5,208.241v-3.2h14.5v3.2Zm17.133-15.817a2.637,2.637,0,0,0-2.637,2.637v4.707h-14.5v-4.707a2.637,2.637,0,0,0-2.637-2.637,7.248,7.248,0,0,1,0-14.5,7.343,7.343,0,0,1,1.361.129A2.638,2.638,0,0,0,144.851,177a7.244,7.244,0,0,1,11.785,0,2.636,2.636,0,0,0,2.633,1.053,7.248,7.248,0,1,1,1.36,14.368Z" transform="translate(-69.345 -142.652)" fill="#f2f3f7" stroke="#f2f3f7" stroke-width="0.5"/>
    </g>
  </g>
</svg>
