<svg xmlns="http://www.w3.org/2000/svg" width="42" height="42" viewBox="0 0 42 42">
  <g id="Group_186" data-name="Group 186" transform="translate(-281 -323)">
    <circle id="Ellipse_13" data-name="Ellipse 13" cx="21" cy="21" r="21" transform="translate(281 323)" fill="rgba(2,94,43,0.2)"/>
    <g id="Group_202" data-name="Group 202" transform="translate(245 333)">
      <path id="Path_353" data-name="Path 353" d="M65.632,1.324h.047a.662.662,0,0,0,0-1.324H50.434A2.437,2.437,0,0,0,48,2.435V20.161A2.437,2.437,0,0,0,50.434,22.6H63.906a2.437,2.437,0,0,0,2.435-2.434V5.98a2.426,2.426,0,0,0-.709-1.715Zm-15.2,0H64.308V3.579a2.426,2.426,0,0,0-.4-.034H50.434a1.111,1.111,0,0,1,0-2.221ZM65.017,20.161a1.112,1.112,0,0,1-1.111,1.111H50.434a1.112,1.112,0,0,1-1.11-1.111V4.6a2.421,2.421,0,0,0,1.11.268H63.906a1.106,1.106,0,0,1,.642.2c.015.013.031.024.047.036a1.109,1.109,0,0,1,.422.87Z" fill="#025e2b" stroke="#025e2b" stroke-width="0.5"/>
      <path id="Path_355" data-name="Path 355" d="M136.887,169.746c-.065,0-.13,0-.195.006a3.313,3.313,0,0,0-4.845,0q-.1-.006-.2-.006a3.316,3.316,0,0,0-.7,6.558v3.564a.7.7,0,0,0,.7.7h5.235a.7.7,0,0,0,.7-.7V176.3a3.316,3.316,0,0,0-.7-6.558Zm-4.537,9.423v-.847h3.839v.847Zm4.537-4.188a.7.7,0,0,0-.7.7v1.246H132.35v-1.246a.7.7,0,0,0-.7-.7,1.919,1.919,0,0,1,0-3.839,1.943,1.943,0,0,1,.36.034.7.7,0,0,0,.7-.279,1.918,1.918,0,0,1,3.121,0,.7.7,0,0,0,.7.279,1.919,1.919,0,1,1,.36,3.8Z" transform="translate(-77.426 -161.802)" fill="#025e2b" stroke="#025e2b" stroke-width="0.5"/>
    </g>
  </g>
</svg>
