<svg xmlns="http://www.w3.org/2000/svg" width="42" height="42" viewBox="0 0 42 42">
  <g id="Group_186" data-name="Group 186" transform="translate(-281 -323)">
    <circle id="Ellipse_13" data-name="Ellipse 13" cx="21" cy="21" r="21" transform="translate(281 323)" fill="rgba(2,94,43,0.2)"/>
    <g id="Group_190" data-name="Group 190" transform="translate(417 491)">
      <path id="Path_320" data-name="Path 320" d="M-117.962-17.372a.5.5,0,0,0-.5-.5H-122.5a.5.5,0,0,0-.5.5.5.5,0,0,0,.5.5h4.032a.5.5,0,0,0,.5-.5Zm0,0" transform="translate(-1 -131.351)" fill="#025e2b" stroke="#025e2b" stroke-width="0.9"/>
      <path id="Path_321" data-name="Path 321" d="M87.636-17.875H83.6a.5.5,0,0,0-.5.5.5.5,0,0,0,.5.5h4.032a.5.5,0,0,0,.5-.5.5.5,0,0,0-.5-.5Zm0,0" transform="translate(-193.585 -131.351)" fill="#025e2b" stroke="#025e2b" stroke-width="0.9"/>
      <path id="Path_322" data-name="Path 322" d="M16.628-151.963a.5.5,0,0,0,.5-.5V-156.5a.5.5,0,0,0-.5-.5.5.5,0,0,0-.5.5v4.032a.5.5,0,0,0,.5.5Zm0,0" transform="translate(-131.351 -1)" fill="#025e2b" stroke="#025e2b" stroke-width="0.9"/>
      <path id="Path_323" data-name="Path 323" d="M63.937-112.433a.513.513,0,0,0,.356-.147l2.854-2.854a.5.5,0,0,0,0-.712.5.5,0,0,0-.712,0l-2.854,2.854a.5.5,0,0,0,0,.712.52.52,0,0,0,.356.147Zm0,0" transform="translate(-175.015 -39.431)" fill="#025e2b" stroke="#025e2b" stroke-width="0.9"/>
      <path id="Path_324" data-name="Path 324" d="M-79.289-112.58a.506.506,0,0,0,.356.147.513.513,0,0,0,.356-.147.5.5,0,0,0,0-.712l-2.854-2.854a.5.5,0,0,0-.712,0,.5.5,0,0,0,0,.712Zm0,0" transform="translate(-39.435 -39.431)" fill="#025e2b" stroke="#025e2b" stroke-width="0.9"/>
      <path id="Path_325" data-name="Path 325" d="M-97-37.182a2.088,2.088,0,0,0-1.354-.507h-2.879v-2.033a2.451,2.451,0,0,0-.863-2.1,2.694,2.694,0,0,0-2.188-.272.5.5,0,0,0-.352.478v2.452a2.263,2.263,0,0,1-1.064,1.886,4.289,4.289,0,0,1-1.157.582l-.05.013a1.029,1.029,0,0,0-.775-.348h-1.911A1.038,1.038,0,0,0-110.625-36v6.27A1.038,1.038,0,0,0-109.59-28.7h1.919a1.021,1.021,0,0,0,.662-.243,2.111,2.111,0,0,0,1.475.608h6.006a2.759,2.759,0,0,0,1.542-.419,2.223,2.223,0,0,0,.934-1.622l.775-4.82A2.168,2.168,0,0,0-97-37.182Zm-10.645,7.452a.029.029,0,0,1-.03.029h-1.919a.029.029,0,0,1-.03-.029V-36a.029.029,0,0,1,.03-.03h1.919a.029.029,0,0,1,.03.03Zm10.373-5.616-.775,4.828a.045.045,0,0,1,0,.021c-.034.289-.143,1.165-1.48,1.165h-6.006a1.114,1.114,0,0,1-1.09-.935c0-.021-.008-.042-.012-.058v-5.39l.029-.008c.009,0,.013,0,.021,0a5.117,5.117,0,0,0,1.45-.717,3.283,3.283,0,0,0,1.509-2.724v-2.037a1.376,1.376,0,0,1,.939.189,1.528,1.528,0,0,1,.453,1.291v2.536a.5.5,0,0,0,.5.5h3.382a1.1,1.1,0,0,1,.7.264,1.182,1.182,0,0,1,.381,1.077Zm0,0" transform="translate(-11.683 -108.368)" fill="#025e2b" stroke="#025e2b" stroke-width="0.9"/>
    </g>
  </g>
</svg>
