<svg xmlns="http://www.w3.org/2000/svg" xmlns:xlink="http://www.w3.org/1999/xlink" width="182" height="120" viewBox="0 0 182 120">
  <defs>
    <clipPath id="clip-path">
      <rect id="Rectangle_29" data-name="Rectangle 29" width="182" height="120" rx="5" transform="translate(212 316)" fill="#fff"/>
    </clipPath>
  </defs>
  <g id="Mask_Group_4" data-name="Mask Group 4" transform="translate(-212 -316)" clip-path="url(#clip-path)">
    <g id="Group_191" data-name="Group 191" transform="translate(315.096 491)">
      <path id="Path_320" data-name="Path 320" d="M-102.819-15.86a2.021,2.021,0,0,0-2.015-2.015h-16.152A2.021,2.021,0,0,0-123-15.86a2.021,2.021,0,0,0,2.015,2.015h16.152a2.021,2.021,0,0,0,2.015-2.015Zm0,0" transform="translate(-1 -104.975)" fill="#f2f3f7" stroke="#f2f3f7" stroke-width="1.5"/>
      <path id="Path_321" data-name="Path 321" d="M101.267-17.875H85.117A2.021,2.021,0,0,0,83.1-15.86a2.021,2.021,0,0,0,2.015,2.015h16.151a2.02,2.02,0,0,0,2.015-2.015,2.01,2.01,0,0,0-2.015-2.015Zm0,0" transform="translate(-152.953 -104.975)" fill="#f2f3f7" stroke="#f2f3f7" stroke-width="1.5"/>
      <path id="Path_322" data-name="Path 322" d="M18.14-136.82a2.019,2.019,0,0,0,2.015-2.015v-16.151A2.02,2.02,0,0,0,18.14-157a2.021,2.021,0,0,0-2.015,2.015v16.151a2.02,2.02,0,0,0,2.015,2.015Zm0,0" transform="translate(-104.975 -1)" fill="#f2f3f7" stroke="#f2f3f7" stroke-width="1.5"/>
      <path id="Path_323" data-name="Path 323" d="M65.452-100.827a2.054,2.054,0,0,0,1.427-.588l11.433-11.433a2.017,2.017,0,0,0,0-2.854,2.015,2.015,0,0,0-2.854,0L64.025-104.268a2.015,2.015,0,0,0,0,2.854,2.082,2.082,0,0,0,1.427.588Zm0,0" transform="translate(-137.687 -32.594)" fill="#f2f3f7" stroke="#f2f3f7" stroke-width="1.5"/>
      <path id="Path_324" data-name="Path 324" d="M-70.266-101.414a2.025,2.025,0,0,0,1.427.588,2.054,2.054,0,0,0,1.427-.588,2.015,2.015,0,0,0,0-2.854L-78.845-115.7a2.015,2.015,0,0,0-2.854,0,2.017,2.017,0,0,0,0,2.854Zm0,0" transform="translate(-32.597 -32.594)" fill="#f2f3f7" stroke="#f2f3f7" stroke-width="1.5"/>
      <path id="Path_325" data-name="Path 325" d="M-56.026-22.045a8.364,8.364,0,0,0-5.423-2.031H-72.983v-8.143c0-3.895-1.159-6.732-3.458-8.428-3.627-2.653-8.546-1.159-8.765-1.091a2.015,2.015,0,0,0-1.411,1.914V-30c0,2.988-1.427,5.523-4.264,7.555a17.181,17.181,0,0,1-4.635,2.333l-.2.051a4.123,4.123,0,0,0-3.106-1.394h-7.656a4.157,4.157,0,0,0-4.148,4.148V7.807a4.156,4.156,0,0,0,4.148,4.147h7.689a4.089,4.089,0,0,0,2.653-.973,8.455,8.455,0,0,0,5.909,2.434h24.059a11.051,11.051,0,0,0,6.179-1.679,8.906,8.906,0,0,0,3.743-6.5l3.106-19.308a8.684,8.684,0,0,0-2.887-7.975ZM-98.67,7.807a.115.115,0,0,1-.118.117h-7.689a.115.115,0,0,1-.118-.117V-17.31a.116.116,0,0,1,.118-.118h7.689a.116.116,0,0,1,.118.118Zm41.553-22.5L-60.223,4.65a.182.182,0,0,1-.017.084c-.135,1.159-.571,4.668-5.927,4.668H-90.226a4.464,4.464,0,0,1-4.365-3.744c-.017-.084-.033-.168-.05-.234V-16.169l.117-.033c.034,0,.051-.017.084-.017a20.5,20.5,0,0,0,5.809-2.871c3.945-2.8,6.044-6.582,6.044-10.913v-8.16a5.511,5.511,0,0,1,3.761.756c1.209.89,1.814,2.637,1.814,5.172v10.157A2.021,2.021,0,0,0-75-20.063h13.548a4.413,4.413,0,0,1,2.8,1.058,4.735,4.735,0,0,1,1.528,4.314Zm0,0" transform="translate(-6.599 -86.081)" fill="#f2f3f7" stroke="#f2f3f7" stroke-width="1.5"/>
    </g>
  </g>
</svg>
