<svg xmlns="http://www.w3.org/2000/svg" viewBox="0 0 107.23 107.23"><defs><style>.cls-1{fill:#125e2f;}.cls-2{fill:none;stroke:#fff;stroke-miterlimit:10;stroke-width:2px;}</style></defs><g id="Layer_2" data-name="Layer 2"><g id="Layer_1-2" data-name="Layer 1"><path class="cls-1" d="M107.23,53.62A53.62,53.62,0,1,1,53.61,0,53.61,53.61,0,0,1,107.23,53.62Z"/><path class="cls-2" d="M42.38,41.49s-8.49,4.39-7.61,23.12c.35,7.35,2.86,13.53,10.9,14.84s21,2.27,24.86-6.76c1.25-2.88,1.24-6,1.42-9.1,0,0,1-17.13-7.76-22.1Z"/><path class="cls-2" d="M69,29.19H67.35s-1.54-1-5.21-.73l-9,0H48.9v0l-4.79,0c-3.67-.29-5.22.73-5.22.73H37.2L32,32.12h3.8L42,41.49H64.25l6.2-9.37h3.81Z"/><path class="cls-2" d="M44.07,41.78V55.61a9,9,0,0,0,9.28,8.2c8.72.22,9-7.83,9-7.83V41.78"/><rect class="cls-2" x="45.82" y="67.69" width="14.49" height="9.59" rx="0.88"/><path class="cls-2" d="M66.9,72.41a2.24,2.24,0,1,1-2.23-2.23A2.23,2.23,0,0,1,66.9,72.41Z"/></g></g></svg>