<svg xmlns="http://www.w3.org/2000/svg" viewBox="0 0 188.42 188.42"><defs><style>.cls-1{fill:#0f6026;}.cls-2,.cls-3{fill:#6bcf29;}.cls-3{fill-rule:evenodd;}.cls-4{fill:#a8c1cc;}.cls-5{fill:#647e87;}.cls-6{fill:#d6eded;}</style></defs><g id="Layer_2" data-name="Layer 2"><g id="Layer_1-2" data-name="Layer 1"><circle class="cls-1" cx="94.21" cy="94.21" r="94.21" transform="translate(-15.58 169.69) rotate(-79.51)"/><path class="cls-2" d="M180.64,94.21A86.43,86.43,0,1,1,94.21,7.78,86.42,86.42,0,0,1,180.64,94.21Z"/><circle class="cls-1" cx="94.21" cy="94.21" r="79.7" transform="translate(-16.56 20.17) rotate(-11.24)"/><path class="cls-3" d="M96.63,62.79C92.33,52.24,79.41,46.42,69.11,50.2,72.36,59.67,85.3,65.67,96.63,62.79Z"/><path class="cls-4" d="M123.3,95.13S139,107,131,116.13l-4.23,5.65s-9.85,14.91-24.57-.66C102.16,121.12,100.59,96.24,123.3,95.13Z"/><path class="cls-5" d="M132.65,111.68a2.12,2.12,0,0,1,0-4.24l.2,0c-1.91-6.58-9.5-12.32-9.5-12.32-22.71,1.11-21.14,26-21.14,26,4.66,4.94,8.83,6.81,12.36,7.06a2.58,2.58,0,0,1,0-.29,2.11,2.11,0,0,1,4.22-.16,16.09,16.09,0,0,0,8-5.95l4.24-5.65a8.85,8.85,0,0,0,2.18-4.54A2.34,2.34,0,0,1,132.65,111.68Zm-14.11,13.17a2.12,2.12,0,1,1,2.12-2.12A2.12,2.12,0,0,1,118.54,124.85Zm3.76-4.71a2.12,2.12,0,1,1,2.12-2.11A2.11,2.11,0,0,1,122.3,120.14Zm4.71-4.7a2.12,2.12,0,1,1,2.11-2.12A2.12,2.12,0,0,1,127,115.44Z"/><path class="cls-6" d="M121.48,87.72,82.77,46.53c-9.43-10.92-16.38,0-16.38,0C58.3,56.18,50.44,65.91,42.84,76c0,0-9.13,9.17,3.59,16l48.68,28.74s7.45,6,11.14-2.5a46.86,46.86,0,0,1,15.23-19C128.93,93.68,121.48,87.72,121.48,87.72Z"/><path class="cls-4" d="M52.35,91.18c-.17,1,1.14,2.61,2.28,3.44,2.94,2.16,6.52,3.27,9.73,4.94l19.38,10.07c4.14,2.15,7.6,5.49,11.83,7.45,5.94,2.76,8.44-4,11.48-8,2-2.59,4-5.62,6.43-7.77,1.71-1.48,9.43-4.74,6.85-8-1.54-1.92-6.77-2.12-9-2.34a41.06,41.06,0,0,0-9.27.17c-6.29.77-12.36,2.93-18.67,3.52a74.88,74.88,0,0,1-17.88-.75h0c-3.83-.58-7.07-3.36-10.95-3.63C53.07,90.18,52.44,90.57,52.35,91.18Z"/><path class="cls-4" d="M138.48,121.18a2,2,0,1,1-2-2A2,2,0,0,1,138.48,121.18Z"/><path class="cls-4" d="M129.08,128.24a2,2,0,1,1-2-2A2,2,0,0,1,129.08,128.24Z"/><path class="cls-4" d="M139.43,133.41a2,2,0,1,1-2-2A2,2,0,0,1,139.43,133.41Z"/><path class="cls-4" d="M149.77,128.24a2,2,0,1,1-2-2A2,2,0,0,1,149.77,128.24Z"/><path class="cls-4" d="M148.83,137.65a2,2,0,1,1-2-2A2,2,0,0,1,148.83,137.65Z"/><path class="cls-4" d="M132.37,140.47a2,2,0,1,1-2-2A2,2,0,0,1,132.37,140.47Z"/></g></g></svg>