<svg xmlns="http://www.w3.org/2000/svg" width="83" height="107.643" viewBox="0 0 83 107.643">
  <g id="Group_352" data-name="Group 352" transform="translate(-164 -184.357)">
    <circle id="Ellipse_14" data-name="Ellipse 14" cx="41.5" cy="41.5" r="41.5" transform="translate(164 209)" fill="#025e2b"/>
    <path id="Path_493" data-name="Path 493" d="M2.368,22.735a17.073,17.073,0,0,1,0-7.083c1.908.223,3.576-.407,4.119-1.721S6.3,10.992,4.792,9.8A17.082,17.082,0,0,1,9.8,4.792c1.19,1.508,2.816,2.24,4.131,1.7s1.946-2.211,1.721-4.119a17.073,17.073,0,0,1,7.083,0c-.223,1.908.407,3.576,1.721,4.119s2.94-.186,4.131-1.7A17.082,17.082,0,0,1,33.595,9.8c-1.508,1.19-2.24,2.816-1.7,4.131s2.211,1.946,4.119,1.721a17.073,17.073,0,0,1,0,7.083c-1.908-.223-3.576.407-4.119,1.721s.186,2.94,1.7,4.131a17.082,17.082,0,0,1-5.008,5.008c-1.19-1.508-2.816-2.24-4.131-1.7s-1.946,2.211-1.721,4.119a17.073,17.073,0,0,1-7.083,0c.223-1.908-.407-3.576-1.721-4.119s-2.94.186-4.131,1.7a17.082,17.082,0,0,1-5.008-5.008c1.508-1.19,2.24-2.816,1.7-4.131S4.277,22.51,2.368,22.735Zm3.072-3.18a6.2,6.2,0,0,1,4.224,3.586,6.189,6.189,0,0,1-.45,5.522q.248.263.511.511a6.068,6.068,0,0,1,9.108,3.774q.361.01.722,0a6.068,6.068,0,0,1,9.108-3.774q.263-.248.511-.511a6.068,6.068,0,0,1,3.774-9.108q.01-.361,0-.722a6.068,6.068,0,0,1-3.774-9.108q-.248-.263-.511-.511a6.2,6.2,0,0,1-5.522.45A6.2,6.2,0,0,1,19.555,5.44q-.361-.01-.722,0a6.2,6.2,0,0,1-3.586,4.224,6.189,6.189,0,0,1-5.522-.45q-.263.248-.511.511a6.2,6.2,0,0,1,.45,5.522A6.2,6.2,0,0,1,5.44,18.832Q5.43,19.194,5.44,19.555Zm13.753,4.8a5.157,5.157,0,1,1,5.157-5.157A5.157,5.157,0,0,1,19.194,24.351Zm0-3.438a1.719,1.719,0,1,0-1.719-1.719A1.72,1.72,0,0,0,19.194,20.913Z" transform="translate(186.003 231.003)" fill="#fff"/>
    <line id="Line_15" data-name="Line 15" y2="11" transform="matrix(0.985, -0.174, 0.174, 0.985, 194.015, 186.674)" fill="none" stroke="#fff" stroke-linecap="round" stroke-width="4"/>
    <line id="Line_17" data-name="Line 17" y2="11" transform="matrix(0.766, -0.643, 0.643, 0.766, 170.996, 198.957)" fill="none" stroke="#fff" stroke-linecap="round" stroke-width="4"/>
    <line id="Line_16" data-name="Line 16" y2="11" transform="matrix(0.985, 0.174, -0.174, 0.985, 216.649, 186.674)" fill="none" stroke="#fff" stroke-linecap="round" stroke-width="4"/>
    <line id="Line_18" data-name="Line 18" y2="11" transform="matrix(0.766, 0.643, -0.643, 0.766, 239.667, 198.957)" fill="none" stroke="#fff" stroke-linecap="round" stroke-width="4"/>
  </g>
</svg>
