<svg xmlns="http://www.w3.org/2000/svg" width="132.535" height="116.486" viewBox="0 0 132.535 116.486">
  <g id="Group_407" data-name="Group 407" transform="translate(136 147.929)">
    <path id="Path_556" data-name="Path 556" d="M-93.3-70.271h70.419a3.884,3.884,0,0,0,3.733-2.816l15.531-54.36a3.884,3.884,0,0,0-.633-3.4,3.884,3.884,0,0,0-3.1-1.545h-94.906l-2.775-12.491a3.884,3.884,0,0,0-3.791-3.041h-23.3A3.883,3.883,0,0,0-136-144.046a3.883,3.883,0,0,0,3.883,3.883h20.183c.491,2.213,13.282,59.775,14.019,63.086a11.666,11.666,0,0,0-7.022,10.688A11.662,11.662,0,0,0-93.289-54.74h70.409A3.883,3.883,0,0,0-19-58.623a3.883,3.883,0,0,0-3.883-3.883H-93.289a3.888,3.888,0,0,1-3.883-3.883A3.886,3.886,0,0,1-93.3-70.271Zm80.8-54.361L-25.809-78.037H-90.174l-10.354-46.594Zm0,0" fill="#7283a7"/>
    <path id="Path_557" data-name="Path 557" d="M14,223.72a11.649,11.649,0,1,0,11.649-11.649A11.662,11.662,0,0,0,14,223.72Zm11.649-3.883a3.883,3.883,0,1,1-3.883,3.883,3.888,3.888,0,0,1,3.883-3.883Zm0,0" transform="translate(-111.171 -266.811)" fill="#7283a7"/>
    <path id="Path_558" data-name="Path 558" d="M226,223.72a11.649,11.649,0,1,0,11.649-11.649A11.662,11.662,0,0,0,226,223.72Zm11.649-3.883a3.883,3.883,0,1,1-3.883,3.883,3.888,3.888,0,0,1,3.883-3.883Zm0,0" transform="translate(-268.294 -266.811)" fill="#7283a7"/>
  </g>
</svg>
