<svg xmlns="http://www.w3.org/2000/svg" viewBox="0 0 188.42 188.42"><defs><style>.cls-1{fill:#0f6026;}.cls-2{fill:#6bcf29;}.cls-3{fill:#d0cfcd;}.cls-3,.cls-4,.cls-5{fill-rule:evenodd;}.cls-4{fill:#ebedec;}.cls-5{fill:#fff;}</style></defs><g id="Layer_2" data-name="Layer 2"><g id="Layer_1-2" data-name="Layer 1"><circle class="cls-1" cx="94.21" cy="94.21" r="94.21" transform="matrix(0.14, -0.99, 0.99, 0.14, -11.92, 174.76)"/><circle class="cls-2" cx="94.21" cy="94.21" r="86.43" transform="translate(-28.66 42.69) rotate(-22.25)"/><circle class="cls-1" cx="94.21" cy="94.21" r="79.7" transform="translate(-12.17 174.42) rotate(-82.02)"/><polygon class="cls-3" points="114.37 91.98 116.85 126.8 141.66 121.55 142.13 87.44 114.37 91.98"/><polygon class="cls-4" points="91.57 87.21 116.37 91.98 142.13 87.44 116.61 82.2 91.57 87.21"/><polygon class="cls-5" points="91.39 121.55 116.76 126.8 116.24 91.98 91.39 87.21 91.39 121.55"/><polygon class="cls-3" points="76.45 97.22 78.93 132.05 103.73 126.8 104.21 92.69 76.45 97.22"/><polygon class="cls-4" points="53.64 92.45 78.45 97.22 104.21 92.69 78.69 87.44 53.64 92.45"/><polygon class="cls-5" points="53.39 126.8 78.8 132.05 78.26 97.22 53.39 92.45 53.39 126.8"/><polygon class="cls-3" points="91.72 57.15 94.19 91.98 119 86.73 119.48 52.62 91.72 57.15"/><polygon class="cls-4" points="68.91 52.38 93.72 57.15 119.48 52.62 93.95 47.37 68.91 52.38"/><polygon class="cls-5" points="68.39 86.73 93.93 91.98 93.32 57.15 68.39 52.38 68.39 86.73"/></g></g></svg>