<svg xmlns="http://www.w3.org/2000/svg" viewBox="0 0 145.68 151.28"><defs><style>.cls-1{fill:#0f6026;}</style></defs><g id="Layer_2" data-name="Layer 2"><g id="Layer_1-2" data-name="Layer 1"><g id="vwTmR2"><path class="cls-1" d="M91.32,0h7.4c.61.22,1.22.45,1.83.66,7.94,2.67,15.24,6.39,18.69,14.54,1.19,2.8,2.6,3.75,5.34,4.4a27.58,27.58,0,0,1,19.64,16.31c3.43,7.73.34,14.32-4.23,20.56-.47.65-.24,2,0,3,.87,2.87,2.18,5.63,2.86,8.55,3.34,14.32-7.46,27.55-21.9,25.08-7.78-1.32-11.53,1.51-15.38,6.66-.34.45-.75.83-1.11,1.26C94.12,113.38,88.75,127.17,93,143.49c.59,2.25-.08,3.54-2,4.18-3.89,1.3-7.84,2.41-11.76,3.61H70.48A75.33,75.33,0,0,1,61.74,148c-3.48-1.78-5.4-4.37-4.72-8.92,1.57-10.42-1.81-19.67-8.25-27.8-4.09-5.18-8.56-10.06-12.74-15.18A5.56,5.56,0,0,0,30.86,94c-7.5.38-14.79-.64-21.31-4.66C-2.53,81.82-3.27,67.46,8,58.91c1.72-1.29,1.92-2.53,1.88-4.46-.06-4-.31-8.12.58-11.94C13.89,27.89,28.94,16,45.22,14.79a9.13,9.13,0,0,0,6.26-3.08C58.54,4.68,66.79,1,77,3.72a5,5,0,0,0,2.58.09C83.52,2.61,87.41,1.28,91.32,0ZM44,87.59a45.31,45.31,0,0,0,14.35,13.94c1.7,1,3.6,1.57,4-1.26a40.65,40.65,0,0,0-2.25-19.48c-2.08.23-3.9.79-5.6.56C49.47,80.68,45.76,82.05,44,87.59Zm47.47,8.89,1.39.7,13.38-9.79-2.57-3.75c-3.94.69-7.67,1.28-11.37,2.06-.76.16-2,1.12-1.92,1.65C90.58,90.4,91.08,93.44,91.48,96.48Z"/></g></g></g></svg>