<svg xmlns="http://www.w3.org/2000/svg" width="20" height="20" viewBox="0 0 20 20">
  <g id="Path_381" data-name="Path 381" transform="translate(-2 -2)" fill="none">
    <path d="M12,22A10,10,0,1,1,22,12,10,10,0,0,1,12,22Z" stroke="none"/>
    <path d="M 12 21 C 16.96261978149414 21 21 16.96261978149414 21 12 C 21 7.037380218505859 16.96261978149414 3 12 3 C 7.037380218505859 3 3 7.037380218505859 3 12 C 3 16.96261978149414 7.037380218505859 21 12 21 M 12 22 C 6.47700023651123 22 2 17.52300071716309 2 12 C 2 6.47700023651123 6.47700023651123 2 12 2 C 17.52300071716309 2 22 6.47700023651123 22 12 C 22 17.52300071716309 17.52300071716309 22 12 22 Z" stroke="none" fill="#b1bace"/>
  </g>
</svg>
