<svg xmlns="http://www.w3.org/2000/svg" viewBox="0 0 107.23 107.23"><defs><style>.cls-1{fill:#125e2f;}.cls-2{fill:none;stroke:#fff;stroke-miterlimit:10;stroke-width:2px;}</style></defs><g id="Layer_2" data-name="Layer 2"><g id="Layer_1-2" data-name="Layer 1"><path class="cls-1" d="M107.23,53.62A53.62,53.62,0,1,1,53.61,0,53.61,53.61,0,0,1,107.23,53.62Z"/><path class="cls-2" d="M28.16,57.59s-10-2.14,0-4.75a127.87,127.87,0,0,1,46.77-.65,30.72,30.72,0,0,1,4.82,1.24c.91.32,3.07,1,3.08,2.22,0,1.71-3.64,2-4.75,2.14-2.07.3-4.14.54-6.22.76a225.07,225.07,0,0,1-27.35,1.24c-2.85-.06-5.7-.22-8.54-.54C33.28,58.94,30.79,58.12,28.16,57.59Z"/><path class="cls-2" d="M23.74,55.09c10.82,26.47,47.12,25.75,59.09.56"/><path class="cls-2" d="M23.86,55.65,20,49.49s-2.14-2.42.84-3.26a42.32,42.32,0,0,1,4.33-.81c2.38-.4,4.14-1.11,6,.9l6.19,5"/><path class="cls-2" d="M82.83,55.65l3.92-6.16s2.14-2.42-.84-3.26a41.81,41.81,0,0,0-4.33-.81c-2.38-.4-4.14-1.11-6,.9l-6.19,5"/></g></g></svg>