<svg xmlns="http://www.w3.org/2000/svg" viewBox="0 0 107.23 107.23"><defs><style>.cls-1{fill:#b4b7cd;}.cls-2{fill:none;stroke:#fff;stroke-miterlimit:10;stroke-width:2px;}</style></defs><g id="Layer_2" data-name="Layer 2"><g id="Layer_1-2" data-name="Layer 1"><path class="cls-1" d="M107.23,53.62A53.62,53.62,0,1,1,53.61,0,53.61,53.61,0,0,1,107.23,53.62Z"/><path class="cls-2" d="M28.16,57.6s-10-2.15,0-4.75a127.73,127.73,0,0,1,46.77-.66,30.75,30.75,0,0,1,4.82,1.25c.91.32,3.07,1,3.08,2.21,0,1.72-3.64,2-4.75,2.14q-3.1.45-6.22.76a225.07,225.07,0,0,1-27.35,1.24c-2.85-.06-5.7-.21-8.54-.54C33.28,58.94,30.79,58.12,28.16,57.6Z"/><path class="cls-2" d="M23.74,55.09c10.82,26.48,47.12,25.76,59.09.56"/><path class="cls-2" d="M23.86,55.65,20,49.49s-2.14-2.42.84-3.26a39.73,39.73,0,0,1,4.33-.8c2.38-.41,4.14-1.12,6,.89l6.19,5"/><path class="cls-2" d="M82.83,55.65l3.92-6.16s2.14-2.42-.84-3.26a39.29,39.29,0,0,0-4.33-.8c-2.38-.41-4.14-1.12-6,.89l-6.19,5"/></g></g></svg>