<svg xmlns="http://www.w3.org/2000/svg" width="13.75" height="13.75" viewBox="0 0 13.75 13.75">
  <path id="Path_387" data-name="Path 387" d="M4.912,5.061a5.5,5.5,0,0,0,6.062,8.9,2.376,2.376,0,0,0-.165-1.184,8.459,8.459,0,0,0-1.549-1.955c-.232-.244-.217-.432-.134-.988l.009-.063c.056-.381.151-.606,1.433-.81a.88.88,0,0,1,1.06.518l.08.118a1.259,1.259,0,0,0,.645.52c.113.052.254.117.443.223.448.256.448.546.448,1.18v.072a3.609,3.609,0,0,1-.067.711,5.5,5.5,0,0,0-2.135-8.484,5.415,5.415,0,0,0-1.084.87c-.093.127-.225.778-.653.832a2.521,2.521,0,0,1-.421-.006c-.428-.028-1.012-.065-1.2.443a2.013,2.013,0,0,0,.245,1.65.4.4,0,0,1,.032.357.7.7,0,0,1-.2.342,1.982,1.982,0,0,1-.288-.3,1.886,1.886,0,0,0-.833-.66c-.127-.035-.265-.064-.4-.093-.377-.079-.8-.169-.9-.381a1.487,1.487,0,0,1-.072-.595,2.189,2.189,0,0,0-.14-.925A.874.874,0,0,0,4.912,5.061ZM8.875,15.75A6.875,6.875,0,1,1,15.75,8.875,6.875,6.875,0,0,1,8.875,15.75Z" transform="translate(-2 -2)" fill="#b1bace"/>
</svg>
